SplineFontDB: 2.0
FontName: GentiumAlt
FullName: GentiumAlt
FamilyName: GentiumAlt
Weight: Book
Copyright: Copyright (c) SIL International 2003-2005. All rights reserved.
Version: 1.02; 2005; OFL release
ItalicAngle: 0
UnderlinePosition: -48
UnderlineWidth: 14
Ascent: 1638
Descent: 410
Order2: 1
NeedsXUIDChange: 1
XUID: [1021 707 1445083784 15020800]
FSType: 0
OS2Version: 1
OS2_WeightWidthSlopeOnly: 0
OS2_UseTypoMetrics: 1
CreationTime: 1032220800
ModificationTime: 1204358581
PfmFamily: 17
TTFWeight: 400
TTFWidth: 5
LineGap: 45
VLineGap: 0
Panose: 2 0 5 3 6 0 0 2 0 4
OS2TypoAscent: -88
OS2TypoAOffset: 1
OS2TypoDescent: -69
OS2TypoDOffset: 1
OS2TypoLinegap: 90
OS2WinAscent: -410
OS2WinAOffset: 1
OS2WinDescent: -45
OS2WinDOffset: 1
HheadAscent: -410
HheadAOffset: 1
HheadDescent: 45
HheadDOffset: 1
OS2SubXSize: 856
OS2SubYSize: 856
OS2SubXOff: 0
OS2SubYOff: 1200
OS2SupXSize: 856
OS2SupYSize: 856
OS2SupXOff: 0
OS2SupYOff: 1200
OS2StrikeYSize: 102
OS2StrikeYPos: 512
OS2Vendor: 'SIL '
Lookup: 258 0 0 "'kern' Horizontal Kerning lookup 0"  {"'kern' Horizontal Kerning lookup 0"  } ['kern' ('DFLT' <'dflt' > 'grek' <'dflt' > 'latn' <'dflt' > ) ]
TtfTable: prep 104
\,ZLZ!4i.2!!3-%.fm3]!rrB&!\:tb!ru!p49.#7+oi;W#V3Uh"9:pl49.#7+oi;W#V3Uh!<@WM
AcPX-3<16'#V3Uh!W[HFAcPX-3<16'#V,nd!!N?*!!b$a!!"-1I;'Nd
EndTtf
TtfTable: fpgm 354
\,ZL[9=Os.:fst'!KL<m!WRk`!(7j<!!rW-?X>=o!!+Vn+@U!4YQ8,`\,ZR]\,ZOZ+YC2(""YQa
YQH1@;HP/H+Gq;!8S!]$7NcAQA?Z1_7NcAQA5ZMSAVsVD+KtiE=D8n^!*!&DYWu>1BcsV[<*1<J
5\4)$3\@iA"=tZbYQQ7A;HP0$=Wg0VC11YW"=6M[C11XN=<i]+0E!K4!!OoH+Ktqp:fpRsY^f+\
YWtTZ)^-@I7BjR(=KoS/)^/?e/[tcb/0H'(Bgf0+?m$R\I;'NdYQ8,`\,Zab\,Z^_/[tcd/5%+i
""$rKY^d[s5Zru%+Ktqp;ck7fYeZ-R)i>kC+Ktqp;ck7f\,cSeMAqEt=WjpN-<""k+h.P<MM`@1
,?Z/!!!=QH=KhlR7CWAK:fnqc\,h+)+WIWf,t0%%,9^2/+^%2b\,Zgd92eq]6lR9m=Y0UR
EndTtf
TtfTable: cvt  26
!%It!!)NZ5!.k1N!$;+^!#,O0!$2:0!'(#Z
EndTtf
TtfTable: maxp 32
!!*'"#,;21!!iU(!"/c-z!"&]+!WW<B!!<3%
EndTtf

StartChar: exclam
Encoding: 33 33 4
Width: 557
GlyphClass: 2
Flags: W
Fore
391 123 m 0,0,1
 391 88 391 88 380.5 58.5 c 128,-1,2
 370 29 370 29 351.5 7 c 128,-1,3
 333 -15 333 -15 308 -27.5 c 128,-1,4
 283 -40 283 -40 254 -40 c 0,5,6
 201 -40 201 -40 177.5 -11 c 128,-1,7
 154 18 154 18 154 72 c 0,8,9
 154 106 154 106 165 135.5 c 128,-1,10
 176 165 176 165 195 187.5 c 128,-1,11
 214 210 214 210 239 223 c 128,-1,12
 264 236 264 236 293 236 c 0,13,14
 344 236 344 236 367.5 206.5 c 128,-1,15
 391 177 391 177 391 123 c 0,0,1
326 389 m 1,16,17
 307 375 307 375 292 366.5 c 128,-1,18
 277 358 277 358 252 350 c 1,19,-1
 223 371 l 1,20,-1
 176 1398 l 1,21,22
 214 1423 214 1423 256 1444.5 c 128,-1,23
 298 1466 298 1466 332 1480 c 1,24,-1
 375 1455 l 1,25,-1
 326 389 l 1,16,17
EndSplineSet
EndChar
StartChar: quotedbl
Encoding: 34 34 5
Width: 870
GlyphClass: 2
Flags: W
Fore
309 834 m 1,0,1
 301 830 301 830 289.5 826 c 128,-1,2
 278 822 278 822 265 819 c 128,-1,3
 252 816 252 816 238.5 814.5 c 128,-1,4
 225 813 225 813 213 813 c 1,5,-1
 160 1426 l 1,6,7
 171 1432 171 1432 192 1440.5 c 128,-1,8
 213 1449 213 1449 235.5 1457 c 128,-1,9
 258 1465 258 1465 278 1471.5 c 128,-1,10
 298 1478 298 1478 309 1480 c 1,11,-1
 352 1459 l 1,12,-1
 309 834 l 1,0,1
668 834 m 1,13,14
 660 830 660 830 648.5 826 c 128,-1,15
 637 822 637 822 623.5 819 c 128,-1,16
 610 816 610 816 596.5 814.5 c 128,-1,17
 583 813 583 813 571 813 c 1,18,-1
 518 1426 l 1,19,20
 529 1432 529 1432 549.5 1440.5 c 128,-1,21
 570 1449 570 1449 593 1457 c 128,-1,22
 616 1465 616 1465 636.5 1471.5 c 128,-1,23
 657 1478 657 1478 668 1480 c 1,24,-1
 711 1459 l 1,25,-1
 668 834 l 1,13,14
EndSplineSet
EndChar
StartChar: numbersign
Encoding: 35 35 6
Width: 961
GlyphClass: 2
Flags: W
Fore
399 590 m 1,0,-1
 588 590 l 1,1,-1
 661 846 l 1,2,-1
 473 846 l 1,3,-1
 399 590 l 1,0,-1
806 961 m 1,4,-1
 957 961 l 1,5,-1
 982 936 l 1,6,7
 977 914 977 914 968 888.5 c 128,-1,8
 959 863 959 863 951 846 c 1,9,-1
 773 846 l 1,10,-1
 700 590 l 1,11,-1
 851 590 l 1,12,-1
 873 563 l 1,13,14
 868 543 868 543 860.5 517.5 c 128,-1,15
 853 492 853 492 845 475 c 1,16,-1
 667 475 l 1,17,-1
 580 170 l 1,18,19
 562 156 562 156 538 146 c 128,-1,20
 514 136 514 136 488 127 c 1,21,-1
 462 147 l 1,22,-1
 555 475 l 1,23,-1
 366 475 l 1,24,-1
 279 170 l 1,25,26
 261 156 261 156 238 146 c 128,-1,27
 215 136 215 136 189 127 c 1,28,-1
 163 147 l 1,29,-1
 256 475 l 1,30,-1
 109 475 l 1,31,-1
 87 500 l 1,32,33
 92 520 92 520 100 545 c 128,-1,34
 108 570 108 570 117 590 c 1,35,-1
 289 590 l 1,36,-1
 362 846 l 1,37,-1
 218 846 l 1,38,-1
 193 870 l 1,39,40
 198 892 198 892 207 916.5 c 128,-1,41
 216 941 216 941 224 961 c 1,42,-1
 395 961 l 1,43,-1
 478 1251 l 1,44,45
 500 1267 500 1267 522 1275 c 128,-1,46
 544 1283 544 1283 566 1292 c 1,47,-1
 595 1270 l 1,48,-1
 506 961 l 1,49,-1
 694 961 l 1,50,-1
 777 1251 l 1,51,52
 799 1267 799 1267 821.5 1275 c 128,-1,53
 844 1283 844 1283 867 1292 c 1,54,-1
 894 1270 l 1,55,-1
 806 961 l 1,4,-1
EndSplineSet
EndChar
StartChar: dollar
Encoding: 36 36 7
Width: 961
GlyphClass: 2
Flags: W
Fore
225 958 m 0,0,1
 225 920 225 920 241 891.5 c 128,-1,2
 257 863 257 863 285 840 c 128,-1,3
 313 817 313 817 351 798.5 c 128,-1,4
 389 780 389 780 432 763 c 1,5,-1
 432 1115 l 1,6,7
 374 1113 374 1113 334.5 1098.5 c 128,-1,8
 295 1084 295 1084 270.5 1062 c 128,-1,9
 246 1040 246 1040 235.5 1012.5 c 128,-1,10
 225 985 225 985 225 958 c 0,0,1
727 324 m 0,11,12
 727 371 727 371 711 407 c 128,-1,13
 695 443 695 443 667 470.5 c 128,-1,14
 639 498 639 498 601.5 519 c 128,-1,15
 564 540 564 540 522 558 c 1,16,-1
 522 113 l 1,17,18
 562 118 562 118 599 135.5 c 128,-1,19
 636 153 636 153 664.5 180.5 c 128,-1,20
 693 208 693 208 710 244.5 c 128,-1,21
 727 281 727 281 727 324 c 0,11,12
522 -143 m 1,22,23
 513 -151 513 -151 506.5 -155.5 c 128,-1,24
 500 -160 500 -160 493.5 -163 c 128,-1,25
 487 -166 487 -166 479 -168.5 c 128,-1,26
 471 -171 471 -171 459 -174 c 1,27,-1
 432 -152 l 1,28,-1
 432 -9 l 1,29,30
 427 -9 427 -9 422 -9.5 c 128,-1,31
 417 -10 417 -10 412 -10 c 0,32,33
 342 -10 342 -10 267.5 14.5 c 128,-1,34
 193 39 193 39 102 96 c 0,35,36
 95 101 95 101 91.5 129.5 c 128,-1,37
 88 158 88 158 88 195 c 0,38,39
 88 233 88 233 91 272.5 c 128,-1,40
 94 312 94 312 102 340 c 1,41,-1
 145 336 l 1,42,43
 193 233 193 233 267 179.5 c 128,-1,44
 341 126 341 126 432 114 c 1,45,-1
 432 593 l 1,46,47
 370 616 370 616 310.5 641 c 128,-1,48
 251 666 251 666 203.5 701.5 c 128,-1,49
 156 737 156 737 127 787 c 128,-1,50
 98 837 98 837 98 911 c 0,51,52
 98 953 98 953 114.5 1001.5 c 128,-1,53
 131 1050 131 1050 170 1092.5 c 128,-1,54
 209 1135 209 1135 273 1167 c 128,-1,55
 337 1199 337 1199 432 1210 c 1,56,-1
 432 1356 l 1,57,58
 446 1364 446 1364 452 1368 c 128,-1,59
 458 1372 458 1372 463 1374.5 c 128,-1,60
 468 1377 468 1377 474.5 1378.5 c 128,-1,61
 481 1380 481 1380 496 1384 c 1,62,-1
 522 1362 l 1,63,-1
 522 1214 l 1,64,65
 568 1213 568 1213 611.5 1206.5 c 128,-1,66
 655 1200 655 1200 693 1188 c 128,-1,67
 731 1176 731 1176 761 1159.5 c 128,-1,68
 791 1143 791 1143 811 1124 c 0,69,70
 817 1117 817 1117 809.5 1098.5 c 128,-1,71
 802 1080 802 1080 788 1058.5 c 128,-1,72
 774 1037 774 1037 757 1016 c 128,-1,73
 740 995 740 995 727 983 c 1,74,-1
 688 991 l 1,75,76
 648 1037 648 1037 606 1065 c 128,-1,77
 564 1093 564 1093 522 1105 c 1,78,-1
 522 728 l 1,79,80
 584 704 584 704 645 676 c 128,-1,81
 706 648 706 648 754 607.5 c 128,-1,82
 802 567 802 567 832 511.5 c 128,-1,83
 862 456 862 456 862 377 c 0,84,85
 862 318 862 318 842.5 258 c 128,-1,86
 823 198 823 198 781.5 146 c 128,-1,87
 740 94 740 94 675.5 55 c 128,-1,88
 611 16 611 16 522 0 c 1,89,-1
 522 -143 l 1,90,-1
 522 -143 l 1,22,23
EndSplineSet
EndChar
StartChar: percent
Encoding: 37 37 8
Width: 1413
GlyphClass: 2
Flags: W
Fore
1194 289 m 0,0,1
 1194 359 1194 359 1181.5 411 c 128,-1,2
 1169 463 1169 463 1148 497.5 c 128,-1,3
 1127 532 1127 532 1100 548.5 c 128,-1,4
 1073 565 1073 565 1044 565 c 0,5,6
 1022 565 1022 565 1000.5 550.5 c 128,-1,7
 979 536 979 536 962 507 c 128,-1,8
 945 478 945 478 934.5 434.5 c 128,-1,9
 924 391 924 391 924 332 c 0,10,11
 924 260 924 260 935 207 c 128,-1,12
 946 154 946 154 965.5 119.5 c 128,-1,13
 985 85 985 85 1012 68 c 128,-1,14
 1039 51 1039 51 1071 51 c 0,15,16
 1096 51 1096 51 1118 66 c 128,-1,17
 1140 81 1140 81 1157 111 c 128,-1,18
 1174 141 1174 141 1184 185.5 c 128,-1,19
 1194 230 1194 230 1194 289 c 0,0,1
492 877 m 0,20,21
 492 948 492 948 479.5 1000 c 128,-1,22
 467 1052 467 1052 446 1086 c 128,-1,23
 425 1120 425 1120 398 1136.5 c 128,-1,24
 371 1153 371 1153 342 1153 c 0,25,26
 320 1153 320 1153 298.5 1138.5 c 128,-1,27
 277 1124 277 1124 259.5 1095 c 128,-1,28
 242 1066 242 1066 231.5 1022.5 c 128,-1,29
 221 979 221 979 221 920 c 0,30,31
 221 848 221 848 232 795 c 128,-1,32
 243 742 243 742 262.5 707.5 c 128,-1,33
 282 673 282 673 309.5 656 c 128,-1,34
 337 639 337 639 369 639 c 0,35,36
 393 639 393 639 415.5 654 c 128,-1,37
 438 669 438 669 455 699 c 128,-1,38
 472 729 472 729 482 773.5 c 128,-1,39
 492 818 492 818 492 877 c 0,20,21
358 17 m 1,40,41
 349 10 349 10 331.5 2.5 c 128,-1,42
 314 -5 314 -5 294 -11.5 c 128,-1,43
 274 -18 274 -18 254.5 -24 c 128,-1,44
 235 -30 235 -30 223 -34 c 1,45,-1
 199 1 l 1,46,-1
 1055 1188 l 1,47,48
 1083 1205 1083 1205 1120 1217 c 128,-1,49
 1157 1229 1157 1229 1188 1237 c 1,50,-1
 1217 1204 l 1,51,-1
 358 17 l 1,40,41
1337 309 m 0,52,53
 1337 240 1337 240 1313 178.5 c 128,-1,54
 1289 117 1289 117 1249 70.5 c 128,-1,55
 1209 24 1209 24 1155.5 -3 c 128,-1,56
 1102 -30 1102 -30 1044 -30 c 256,57,58
 986 -30 986 -30 937 -3 c 128,-1,59
 888 24 888 24 853 70.5 c 128,-1,60
 818 117 818 117 798 178.5 c 128,-1,61
 778 240 778 240 778 309 c 256,62,63
 778 378 778 378 802.5 439.5 c 128,-1,64
 827 501 827 501 867.5 547 c 128,-1,65
 908 593 908 593 961 619.5 c 128,-1,66
 1014 646 1014 646 1071 646 c 0,67,68
 1131 646 1131 646 1180 619.5 c 128,-1,69
 1229 593 1229 593 1264 547.5 c 128,-1,70
 1299 502 1299 502 1318 440.5 c 128,-1,71
 1337 379 1337 379 1337 309 c 0,52,53
637 897 m 0,72,73
 637 828 637 828 613 766.5 c 128,-1,74
 589 705 589 705 548.5 658.5 c 128,-1,75
 508 612 508 612 454.5 585 c 128,-1,76
 401 558 401 558 342 558 c 256,77,78
 283 558 283 558 234.5 585 c 128,-1,79
 186 612 186 612 150.5 658.5 c 128,-1,80
 115 705 115 705 95.5 766.5 c 128,-1,81
 76 828 76 828 76 897 c 256,82,83
 76 966 76 966 100 1027.5 c 128,-1,84
 124 1089 124 1089 164.5 1134.5 c 128,-1,85
 205 1180 205 1180 258 1207 c 128,-1,86
 311 1234 311 1234 369 1234 c 0,87,88
 429 1234 429 1234 478 1207.5 c 128,-1,89
 527 1181 527 1181 562.5 1135 c 128,-1,90
 598 1089 598 1089 617.5 1028 c 128,-1,91
 637 967 637 967 637 897 c 0,72,73
EndSplineSet
EndChar
StartChar: ampersand
Encoding: 38 38 9
Width: 1366
GlyphClass: 2
Flags: W
Fore
444 1130 m 0,0,1
 444 1072 444 1072 461 1009 c 128,-1,2
 478 946 478 946 507 880 c 1,3,4
 510 881 510 881 516 885 c 0,5,6
 580 920 580 920 621.5 957 c 128,-1,7
 663 994 663 994 687 1030.5 c 128,-1,8
 711 1067 711 1067 720 1102.5 c 128,-1,9
 729 1138 729 1138 729 1171 c 0,10,11
 729 1206 729 1206 720 1237 c 128,-1,12
 711 1268 711 1268 693.5 1291.5 c 128,-1,13
 676 1315 676 1315 649.5 1329 c 128,-1,14
 623 1343 623 1343 588 1343 c 0,15,16
 552 1343 552 1343 525 1324.5 c 128,-1,17
 498 1306 498 1306 480 1276 c 128,-1,18
 462 1246 462 1246 453 1207.5 c 128,-1,19
 444 1169 444 1169 444 1130 c 0,0,1
528 84 m 0,20,21
 613 84 613 84 684 111 c 128,-1,22
 755 138 755 138 812 183 c 1,23,24
 762 235 762 235 709 295.5 c 128,-1,25
 656 356 656 356 605.5 422.5 c 128,-1,26
 555 489 555 489 508.5 560 c 128,-1,27
 462 631 462 631 425 703 c 1,28,29
 374 659 374 659 339 618 c 128,-1,30
 304 577 304 577 282.5 536.5 c 128,-1,31
 261 496 261 496 251.5 455.5 c 128,-1,32
 242 415 242 415 242 373 c 0,33,34
 242 303 242 303 266 249 c 128,-1,35
 290 195 290 195 330 158.5 c 128,-1,36
 370 122 370 122 421.5 103 c 128,-1,37
 473 84 473 84 528 84 c 0,20,21
1346 748 m 1,38,39
 1321 717 1321 717 1296.5 696.5 c 128,-1,40
 1272 676 1272 676 1247 659 c 1,41,42
 1229 668 1229 668 1206 675 c 128,-1,43
 1183 682 1183 682 1159.5 687.5 c 128,-1,44
 1136 693 1136 693 1114 696 c 128,-1,45
 1092 699 1092 699 1075 700 c 1,46,47
 1086 682 1086 682 1092.5 666.5 c 128,-1,48
 1099 651 1099 651 1102.5 633 c 128,-1,49
 1106 615 1106 615 1107 593.5 c 128,-1,50
 1108 572 1108 572 1108 543 c 0,51,52
 1108 472 1108 472 1077 393 c 128,-1,53
 1046 314 1046 314 989 239 c 1,54,55
 1058 173 1058 173 1116 127 c 0,56,57
 1154 95 1154 95 1198 84.5 c 128,-1,58
 1242 74 1242 74 1300 88 c 1,59,-1
 1309 45 l 1,60,61
 1222 7 1222 7 1162.5 -11.5 c 128,-1,62
 1103 -30 1103 -30 1081 -30 c 256,63,64
 1059 -30 1059 -30 1004 10 c 128,-1,65
 949 50 949 50 877 119 c 1,66,67
 799 53 799 53 703 11.5 c 128,-1,68
 607 -30 607 -30 498 -30 c 0,69,70
 405 -30 405 -30 328 -5.5 c 128,-1,71
 251 19 251 19 196 67 c 128,-1,72
 141 115 141 115 110.5 186.5 c 128,-1,73
 80 258 80 258 80 352 c 0,74,75
 80 464 80 464 157 578.5 c 128,-1,76
 234 693 234 693 380 799 c 1,77,78
 351 870 351 870 334 938.5 c 128,-1,79
 317 1007 317 1007 317 1073 c 0,80,81
 317 1154 317 1154 344 1223 c 128,-1,82
 371 1292 371 1292 416 1342.5 c 128,-1,83
 461 1393 461 1393 519.5 1421.5 c 128,-1,84
 578 1450 578 1450 641 1450 c 0,85,86
 705 1450 705 1450 748.5 1429.5 c 128,-1,87
 792 1409 792 1409 818.5 1375 c 128,-1,88
 845 1341 845 1341 856.5 1296.5 c 128,-1,89
 868 1252 868 1252 868 1204 c 0,90,91
 868 1099 868 1099 802.5 1007.5 c 128,-1,92
 737 916 737 916 618 842 c 0,93,94
 599 830 599 830 582 818.5 c 128,-1,95
 565 807 565 807 549 796 c 1,96,97
 584 731 584 731 627.5 666 c 128,-1,98
 671 601 671 601 719.5 538 c 128,-1,99
 768 475 768 475 819.5 416 c 128,-1,100
 871 357 871 357 922 305 c 1,101,102
 954 355 954 355 970.5 406 c 128,-1,103
 987 457 987 457 987 502 c 0,104,105
 987 544 987 544 973 581 c 128,-1,106
 959 618 959 618 936.5 645.5 c 128,-1,107
 914 673 914 673 885 689 c 128,-1,108
 856 705 856 705 827 705 c 1,109,-1
 805 733 l 1,110,111
 816 746 816 746 837.5 761 c 128,-1,112
 859 776 859 776 879 784 c 1,113,-1
 1323 784 l 1,114,-1
 1346 748 l 1,115,-1
 1346 748 l 1,38,39
EndSplineSet
EndChar
StartChar: quotesingle
Encoding: 39 39 10
Width: 512
GlyphClass: 2
Flags: W
Fore
309 834 m 1,0,1
 301 830 301 830 289.5 826 c 128,-1,2
 278 822 278 822 265 819 c 128,-1,3
 252 816 252 816 238.5 814.5 c 128,-1,4
 225 813 225 813 213 813 c 1,5,-1
 160 1426 l 1,6,7
 171 1432 171 1432 192 1440.5 c 128,-1,8
 213 1449 213 1449 235.5 1457 c 128,-1,9
 258 1465 258 1465 278 1471.5 c 128,-1,10
 298 1478 298 1478 309 1480 c 1,11,-1
 352 1459 l 1,12,-1
 309 834 l 1,0,1
EndSplineSet
EndChar
StartChar: parenleft
Encoding: 40 40 11
Width: 649
GlyphClass: 2
Flags: W
Fore
578 -315 m 1,0,1
 465 -263 465 -263 379.5 -169.5 c 128,-1,2
 294 -76 294 -76 236.5 47 c 128,-1,3
 179 170 179 170 150 317 c 128,-1,4
 121 464 121 464 121 623 c 0,5,6
 121 787 121 787 153.5 940 c 128,-1,7
 186 1093 186 1093 246 1222 c 128,-1,8
 306 1351 306 1351 390.5 1448.5 c 128,-1,9
 475 1546 475 1546 578 1600 c 1,10,-1
 610 1555 l 1,11,12
 545 1501 545 1501 487 1413 c 128,-1,13
 429 1325 429 1325 385.5 1209 c 128,-1,14
 342 1093 342 1093 316.5 952 c 128,-1,15
 291 811 291 811 291 651 c 0,16,17
 291 505 291 505 312 366.5 c 128,-1,18
 333 228 333 228 374 107.5 c 128,-1,19
 415 -13 415 -13 474 -110 c 128,-1,20
 533 -207 533 -207 610 -270 c 1,21,-1
 578 -315 l 1,0,1
EndSplineSet
EndChar
StartChar: parenright
Encoding: 41 41 12
Width: 649
GlyphClass: 2
Flags: W
Fore
530 664 m 0,0,1
 530 499 530 499 497 345.5 c 128,-1,2
 464 192 464 192 404 63 c 128,-1,3
 344 -66 344 -66 259.5 -163.5 c 128,-1,4
 175 -261 175 -261 72 -315 c 1,5,-1
 41 -270 l 1,6,7
 105 -216 105 -216 163 -128 c 128,-1,8
 221 -40 221 -40 265 76 c 128,-1,9
 309 192 309 192 334.5 333 c 128,-1,10
 360 474 360 474 360 635 c 0,11,12
 360 780 360 780 339 918.5 c 128,-1,13
 318 1057 318 1057 277.5 1178 c 128,-1,14
 237 1299 237 1299 177.5 1396 c 128,-1,15
 118 1493 118 1493 41 1555 c 1,16,-1
 72 1600 l 1,17,18
 185 1549 185 1549 270.5 1455.5 c 128,-1,19
 356 1362 356 1362 414 1239 c 128,-1,20
 472 1116 472 1116 501 969.5 c 128,-1,21
 530 823 530 823 530 664 c 0,0,1
EndSplineSet
EndChar
StartChar: asterisk
Encoding: 42 42 13
Width: 915
GlyphClass: 2
Flags: W
Fore
489 1188 m 1,0,-1
 750 1384 l 1,1,2
 771 1370 771 1370 799.5 1352 c 128,-1,3
 828 1334 828 1334 844 1317 c 1,4,-1
 846 1276 l 1,5,-1
 520 1135 l 1,6,-1
 821 1006 l 1,7,8
 819 981 819 981 818 947 c 128,-1,9
 817 913 817 913 809 891 c 1,10,-1
 772 868 l 1,11,-1
 490 1079 l 1,12,-1
 528 756 l 1,13,14
 517 750 517 750 504 742.5 c 128,-1,15
 491 735 491 735 476.5 728.5 c 128,-1,16
 462 722 462 722 448.5 716.5 c 128,-1,17
 435 711 435 711 424 709 c 1,18,-1
 385 727 l 1,19,-1
 427 1079 l 1,20,-1
 166 883 l 1,21,22
 155 890 155 890 141.5 898.5 c 128,-1,23
 128 907 128 907 115 916 c 128,-1,24
 102 925 102 925 90.5 933.5 c 128,-1,25
 79 942 79 942 72 950 c 1,26,-1
 70 993 l 1,27,-1
 396 1133 l 1,28,-1
 94 1262 l 1,29,30
 95 1274 95 1274 95.5 1289.5 c 128,-1,31
 96 1305 96 1305 97 1321 c 128,-1,32
 98 1337 98 1337 100 1351.5 c 128,-1,33
 102 1366 102 1366 106 1376 c 1,34,-1
 141 1399 l 1,35,-1
 426 1187 l 1,36,-1
 387 1513 l 1,37,38
 398 1519 398 1519 412 1526 c 128,-1,39
 426 1533 426 1533 440.5 1540 c 128,-1,40
 455 1547 455 1547 469 1552.5 c 128,-1,41
 483 1558 483 1558 494 1561 c 1,42,-1
 530 1540 l 1,43,-1
 489 1188 l 1,0,-1
EndSplineSet
EndChar
StartChar: plus
Encoding: 43 43 14
Width: 840
GlyphClass: 2
Flags: W
Fore
477 236 m 1,0,1
 457 226 457 226 433 218 c 128,-1,2
 409 210 409 210 387 205 c 1,3,-1
 362 227 l 1,4,-1
 362 506 l 1,5,-1
 86 506 l 1,6,-1
 61 530 l 1,7,8
 66 550 66 550 74.5 574 c 128,-1,9
 83 598 83 598 92 618 c 1,10,-1
 362 618 l 1,11,-1
 362 891 l 1,12,13
 381 897 381 897 406 906 c 128,-1,14
 431 915 431 915 453 920 c 1,15,-1
 477 897 l 1,16,-1
 477 618 l 1,17,-1
 754 618 l 1,18,-1
 778 594 l 1,19,20
 773 574 773 574 764.5 548.5 c 128,-1,21
 756 523 756 523 748 506 c 1,22,-1
 477 506 l 1,23,-1
 477 236 l 1,24,-1
 477 236 l 1,0,1
EndSplineSet
EndChar
StartChar: comma
Encoding: 44 44 15
Width: 469
GlyphClass: 2
Flags: W
Fore
391 70 m 0,0,1
 391 31 391 31 375.5 -18 c 128,-1,2
 360 -67 360 -67 330.5 -118 c 128,-1,3
 301 -169 301 -169 259.5 -217.5 c 128,-1,4
 218 -266 218 -266 166 -305 c 1,5,-1
 121 -270 l 1,6,7
 149 -238 149 -238 168.5 -208 c 128,-1,8
 188 -178 188 -178 200 -146 c 128,-1,9
 212 -114 212 -114 217.5 -78.5 c 128,-1,10
 223 -43 223 -43 223 0 c 0,11,12
 223 44 223 44 195.5 70 c 128,-1,13
 168 96 168 96 104 92 c 1,14,-1
 88 139 l 1,15,16
 97 151 97 151 126 166.5 c 128,-1,17
 155 182 155 182 189.5 196.5 c 128,-1,18
 224 211 224 211 257.5 220.5 c 128,-1,19
 291 230 291 230 309 229 c 1,20,21
 357 206 357 206 374 166.5 c 128,-1,22
 391 127 391 127 391 70 c 0,0,1
EndSplineSet
EndChar
StartChar: hyphen
Encoding: 45 45 16
Width: 690
GlyphClass: 2
Flags: W
Fore
629 545 m 1,0,1
 623 523 623 523 614.5 497.5 c 128,-1,2
 606 472 606 472 598 455 c 1,3,-1
 86 455 l 1,4,-1
 61 479 l 1,5,6
 66 501 66 501 74.5 525 c 128,-1,7
 83 549 83 549 92 569 c 1,8,-1
 604 569 l 1,9,-1
 629 545 l 1,10,-1
 629 545 l 1,0,1
EndSplineSet
EndChar
StartChar: period
Encoding: 46 46 17
Width: 469
GlyphClass: 2
Flags: W
Fore
369 123 m 0,0,1
 369 88 369 88 358.5 58.5 c 128,-1,2
 348 29 348 29 329.5 7 c 128,-1,3
 311 -15 311 -15 285.5 -27.5 c 128,-1,4
 260 -40 260 -40 231 -40 c 0,5,6
 177 -40 177 -40 154 -11 c 128,-1,7
 131 18 131 18 131 72 c 0,8,9
 131 106 131 106 142 135.5 c 128,-1,10
 153 165 153 165 172 187.5 c 128,-1,11
 191 210 191 210 216.5 223 c 128,-1,12
 242 236 242 236 270 236 c 0,13,14
 320 236 320 236 344.5 206.5 c 128,-1,15
 369 177 369 177 369 123 c 0,0,1
EndSplineSet
EndChar
StartChar: slash
Encoding: 47 47 18
Width: 961
GlyphClass: 2
Flags: W
Fore
211 -284 m 1,0,1
 201 -291 201 -291 185 -298.5 c 128,-1,2
 169 -306 169 -306 151 -312.5 c 128,-1,3
 133 -319 133 -319 115.5 -325 c 128,-1,4
 98 -331 98 -331 86 -335 c 1,5,-1
 49 -310 l 1,6,-1
 750 1551 l 1,7,8
 777 1568 777 1568 810 1580 c 128,-1,9
 843 1592 843 1592 872 1600 c 1,10,-1
 909 1578 l 1,11,-1
 211 -284 l 1,0,1
EndSplineSet
EndChar
StartChar: zero
Encoding: 48 48 19
Width: 961
GlyphClass: 2
Flags: W
Fore
721 565 m 0,0,1
 721 702 721 702 699.5 806 c 128,-1,2
 678 910 678 910 642 979.5 c 128,-1,3
 606 1049 606 1049 559 1084.5 c 128,-1,4
 512 1120 512 1120 461 1120 c 256,5,6
 410 1120 410 1120 369 1092.5 c 128,-1,7
 328 1065 328 1065 299.5 1007.5 c 128,-1,8
 271 950 271 950 255.5 860 c 128,-1,9
 240 770 240 770 240 645 c 0,10,11
 240 508 240 508 260 403 c 128,-1,12
 280 298 280 298 314.5 227.5 c 128,-1,13
 349 157 349 157 396.5 121 c 128,-1,14
 444 85 444 85 500 85 c 0,15,16
 552 85 552 85 593 112.5 c 128,-1,17
 634 140 634 140 662.5 198.5 c 128,-1,18
 691 257 691 257 706 347.5 c 128,-1,19
 721 438 721 438 721 565 c 0,0,1
885 602 m 0,20,21
 885 473 885 473 854.5 358 c 128,-1,22
 824 243 824 243 768.5 157 c 128,-1,23
 713 71 713 71 634.5 20.5 c 128,-1,24
 556 -30 556 -30 461 -30 c 256,25,26
 366 -30 366 -30 294 20.5 c 128,-1,27
 222 71 222 71 173.5 157 c 128,-1,28
 125 243 125 243 100.5 358 c 128,-1,29
 76 473 76 473 76 602 c 256,30,31
 76 731 76 731 107 846 c 128,-1,32
 138 961 138 961 193.5 1047.5 c 128,-1,33
 249 1134 249 1134 327 1184.5 c 128,-1,34
 405 1235 405 1235 500 1235 c 256,35,36
 595 1235 595 1235 667 1185 c 128,-1,37
 739 1135 739 1135 787.5 1049 c 128,-1,38
 836 963 836 963 860.5 847.5 c 128,-1,39
 885 732 885 732 885 602 c 0,20,21
EndSplineSet
EndChar
StartChar: one
Encoding: 49 49 20
Width: 961
GlyphClass: 2
Flags: W
Fore
170 0 m 1,0,-1
 170 53 l 1,1,2
 248 62 248 62 300 73.5 c 128,-1,3
 352 85 352 85 383 97 c 128,-1,4
 414 109 414 109 427 120.5 c 128,-1,5
 440 132 440 132 440 143 c 2,6,-1
 440 940 l 2,7,8
 440 980 440 980 437 1002 c 128,-1,9
 434 1024 434 1024 422 1038 c 0,10,11
 416 1044 416 1044 399 1048 c 128,-1,12
 382 1052 382 1052 351 1051 c 128,-1,13
 320 1050 320 1050 273 1044 c 128,-1,14
 226 1038 226 1038 160 1024 c 1,15,-1
 139 1075 l 1,16,17
 181 1087 181 1087 238.5 1108 c 128,-1,18
 296 1129 296 1129 355 1153.5 c 128,-1,19
 414 1178 414 1178 467 1202.5 c 128,-1,20
 520 1227 520 1227 553 1245 c 1,21,-1
 590 1210 l 1,22,-1
 590 143 l 2,23,24
 590 133 590 133 601 121.5 c 128,-1,25
 612 110 612 110 640 98 c 128,-1,26
 668 86 668 86 716.5 74 c 128,-1,27
 765 62 765 62 840 53 c 1,28,-1
 840 0 l 1,29,-1
 170 0 l 1,0,-1
EndSplineSet
EndChar
StartChar: two
Encoding: 50 50 21
Width: 961
GlyphClass: 2
Flags: W
Fore
821 0 m 1,0,-1
 127 0 l 1,1,-1
 98 74 l 1,2,3
 217 212 217 212 305.5 318 c 128,-1,4
 394 424 394 424 457 505.5 c 128,-1,5
 520 587 520 587 561 648.5 c 128,-1,6
 602 710 602 710 626 758.5 c 128,-1,7
 650 807 650 807 659 846.5 c 128,-1,8
 668 886 668 886 668 924 c 0,9,10
 668 970 668 970 657 1009.5 c 128,-1,11
 646 1049 646 1049 622 1078.5 c 128,-1,12
 598 1108 598 1108 559.5 1124.5 c 128,-1,13
 521 1141 521 1141 467 1141 c 0,14,15
 426 1141 426 1141 392 1122 c 128,-1,16
 358 1103 358 1103 333 1073 c 128,-1,17
 308 1043 308 1043 294.5 1006 c 128,-1,18
 281 969 281 969 281 934 c 1,19,20
 264 925 264 925 250.5 917 c 128,-1,21
 237 909 237 909 222.5 902.5 c 128,-1,22
 208 896 208 896 191.5 891.5 c 128,-1,23
 175 887 175 887 152 885 c 1,24,-1
 125 915 l 1,25,26
 125 967 125 967 160 1023.5 c 128,-1,27
 195 1080 195 1080 253 1127 c 128,-1,28
 311 1174 311 1174 384.5 1204.5 c 128,-1,29
 458 1235 458 1235 535 1235 c 0,30,31
 595 1235 595 1235 647.5 1218 c 128,-1,32
 700 1201 700 1201 738.5 1166.5 c 128,-1,33
 777 1132 777 1132 799 1078.5 c 128,-1,34
 821 1025 821 1025 821 952 c 0,35,36
 821 908 821 908 808.5 862.5 c 128,-1,37
 796 817 796 817 768.5 764.5 c 128,-1,38
 741 712 741 712 697.5 650 c 128,-1,39
 654 588 654 588 592 510.5 c 128,-1,40
 530 433 530 433 449 337 c 128,-1,41
 368 241 368 241 266 121 c 1,42,-1
 684 121 l 2,43,44
 711 121 711 121 729.5 139.5 c 128,-1,45
 748 158 748 158 759 183.5 c 128,-1,46
 770 209 770 209 776 236 c 128,-1,47
 782 263 782 263 784 280.5 c 128,-1,48
 786 298 786 298 786 299 c 1,49,-1
 836 287 l 1,50,-1
 821 0 l 1,0,-1
EndSplineSet
EndChar
StartChar: three
Encoding: 51 51 22
Width: 961
GlyphClass: 2
Flags: W
Fore
825 381 m 0,0,1
 825 297 825 297 798 222 c 128,-1,2
 771 147 771 147 718 91 c 128,-1,3
 665 35 665 35 587 2.5 c 128,-1,4
 509 -30 509 -30 406 -30 c 0,5,6
 367 -30 367 -30 326 -23 c 128,-1,7
 285 -16 285 -16 242.5 1.5 c 128,-1,8
 200 19 200 19 156.5 47.5 c 128,-1,9
 113 76 113 76 68 119 c 1,10,-1
 102 186 l 1,11,12
 147 152 147 152 184.5 130 c 128,-1,13
 222 108 222 108 255.5 95 c 128,-1,14
 289 82 289 82 322 77 c 128,-1,15
 355 72 355 72 393 72 c 0,16,17
 454 72 454 72 504 91 c 128,-1,18
 554 110 554 110 590 146 c 128,-1,19
 626 182 626 182 646 233 c 128,-1,20
 666 284 666 284 666 348 c 0,21,22
 666 423 666 423 642.5 475.5 c 128,-1,23
 619 528 619 528 582 561 c 128,-1,24
 545 594 545 594 499.5 608.5 c 128,-1,25
 454 623 454 623 410 623 c 0,26,27
 396 623 396 623 389 623 c 0,28,29
 383 623 383 623 377.5 622 c 128,-1,30
 372 621 372 621 364.5 620 c 128,-1,31
 357 619 357 619 342 616 c 1,32,-1
 328 676 l 1,33,34
 420 701 420 701 475 734 c 128,-1,35
 530 767 530 767 559.5 802.5 c 128,-1,36
 589 838 589 838 598.5 873.5 c 128,-1,37
 608 909 608 909 608 940 c 0,38,39
 608 974 608 974 597.5 1010 c 128,-1,40
 587 1046 587 1046 564.5 1075 c 128,-1,41
 542 1104 542 1104 508 1122.5 c 128,-1,42
 474 1141 474 1141 426 1141 c 0,43,44
 386 1141 386 1141 354.5 1127.5 c 128,-1,45
 323 1114 323 1114 302 1091 c 128,-1,46
 281 1068 281 1068 272.5 1037.5 c 128,-1,47
 264 1007 264 1007 270 973 c 1,48,49
 236 956 236 956 205 946.5 c 128,-1,50
 174 937 174 937 131 934 c 1,51,-1
 104 965 l 1,52,53
 104 1007 104 1007 135 1054.5 c 128,-1,54
 166 1102 166 1102 218 1142 c 128,-1,55
 270 1182 270 1182 338.5 1208.5 c 128,-1,56
 407 1235 407 1235 483 1235 c 0,57,58
 558 1235 558 1235 611.5 1211 c 128,-1,59
 665 1187 665 1187 699.5 1147.5 c 128,-1,60
 734 1108 734 1108 750 1058.5 c 128,-1,61
 766 1009 766 1009 766 958 c 0,62,63
 766 920 766 920 751.5 883 c 128,-1,64
 737 846 737 846 709.5 812 c 128,-1,65
 682 778 682 778 643 749 c 128,-1,66
 604 720 604 720 555 698 c 1,67,68
 612 691 612 691 661.5 663.5 c 128,-1,69
 711 636 711 636 747 593.5 c 128,-1,70
 783 551 783 551 804 496.5 c 128,-1,71
 825 442 825 442 825 381 c 0,0,1
EndSplineSet
EndChar
StartChar: four
Encoding: 52 52 23
Width: 961
GlyphClass: 2
Flags: W
Fore
586 1040 m 1,0,-1
 213 461 l 1,1,-1
 586 461 l 1,2,-1
 586 1040 l 1,0,-1
874 430 m 1,3,4
 853 398 853 398 835.5 382.5 c 128,-1,5
 818 367 818 367 795 350 c 1,6,-1
 725 350 l 1,7,-1
 725 104 l 2,8,9
 725 96 725 96 731 89.5 c 128,-1,10
 737 83 737 83 753 75.5 c 128,-1,11
 769 68 769 68 796 60 c 128,-1,12
 823 52 823 52 864 43 c 1,13,-1
 864 0 l 1,14,-1
 375 0 l 1,15,-1
 375 43 l 1,16,17
 440 54 440 54 481 63.5 c 128,-1,18
 522 73 522 73 545.5 81.5 c 128,-1,19
 569 90 569 90 577.5 98 c 128,-1,20
 586 106 586 106 586 115 c 2,21,-1
 586 350 l 1,22,-1
 88 350 l 1,23,-1
 55 383 l 1,24,-1
 551 1174 l 1,25,26
 593 1192 593 1192 626 1211 c 128,-1,27
 659 1230 659 1230 688 1245 c 1,28,-1
 725 1210 l 1,29,-1
 725 461 l 1,30,-1
 848 461 l 1,31,-1
 874 430 l 1,32,-1
 874 430 l 1,3,4
EndSplineSet
EndChar
StartChar: five
Encoding: 53 53 24
Width: 961
GlyphClass: 2
Flags: W
Fore
836 410 m 0,0,1
 836 323 836 323 809.5 243.5 c 128,-1,2
 783 164 783 164 732.5 103 c 128,-1,3
 682 42 682 42 608 6 c 128,-1,4
 534 -30 534 -30 440 -30 c 0,5,6
 347 -30 347 -30 256 4 c 128,-1,7
 165 38 165 38 78 119 c 1,8,-1
 113 186 l 1,9,10
 166 149 166 149 209.5 126.5 c 128,-1,11
 253 104 253 104 290 92 c 128,-1,12
 327 80 327 80 358 76 c 128,-1,13
 389 72 389 72 418 72 c 0,14,15
 483 72 483 72 531.5 96.5 c 128,-1,16
 580 121 580 121 612 162.5 c 128,-1,17
 644 204 644 204 660 257 c 128,-1,18
 676 310 676 310 676 367 c 0,19,20
 676 435 676 435 659.5 491 c 128,-1,21
 643 547 643 547 609.5 586.5 c 128,-1,22
 576 626 576 626 524.5 648 c 128,-1,23
 473 670 473 670 403 670 c 0,24,25
 382 670 382 670 355 665 c 128,-1,26
 328 660 328 660 298.5 650 c 128,-1,27
 269 640 269 640 239.5 625 c 128,-1,28
 210 610 210 610 184 590 c 1,29,-1
 137 623 l 1,30,31
 143 659 143 659 151 706.5 c 128,-1,32
 159 754 159 754 167.5 807 c 128,-1,33
 176 860 176 860 184.5 915 c 128,-1,34
 193 970 193 970 200 1022.5 c 128,-1,35
 207 1075 207 1075 212 1122 c 128,-1,36
 217 1169 217 1169 219 1204 c 1,37,-1
 655 1204 l 2,38,39
 712 1204 712 1204 744 1214 c 0,40,41
 775 1223 775 1223 776 1223 c 1,42,-1
 805 1194 l 1,43,44
 794 1178 794 1178 779.5 1160.5 c 128,-1,45
 765 1143 765 1143 750 1127 c 128,-1,46
 735 1111 735 1111 720.5 1097.5 c 128,-1,47
 706 1084 706 1084 694 1075 c 1,48,-1
 307 1075 l 1,49,50
 305 1046 305 1046 300 1000.5 c 128,-1,51
 295 955 295 955 288.5 907.5 c 128,-1,52
 282 860 282 860 275 818 c 128,-1,53
 268 776 268 776 264 754 c 1,54,55
 304 766 304 766 358 773 c 128,-1,56
 412 780 412 780 463 780 c 0,57,58
 554 780 554 780 623.5 749.5 c 128,-1,59
 693 719 693 719 740 668 c 128,-1,60
 787 617 787 617 811.5 550 c 128,-1,61
 836 483 836 483 836 410 c 0,0,1
EndSplineSet
EndChar
StartChar: six
Encoding: 54 54 25
Width: 961
GlyphClass: 2
Flags: W
Fore
500 659 m 0,0,1
 449 659 449 659 387.5 631 c 128,-1,2
 326 603 326 603 270 536 c 1,3,4
 270 417 270 417 289.5 330.5 c 128,-1,5
 309 244 309 244 345 187.5 c 128,-1,6
 381 131 381 131 432 103.5 c 128,-1,7
 483 76 483 76 545 76 c 0,8,9
 599 76 599 76 634.5 101 c 128,-1,10
 670 126 670 126 691.5 165.5 c 128,-1,11
 713 205 713 205 722 253.5 c 128,-1,12
 731 302 731 302 731 348 c 0,13,14
 731 442 731 442 708.5 502 c 128,-1,15
 686 562 686 562 652 597 c 128,-1,16
 618 632 618 632 577.5 645.5 c 128,-1,17
 537 659 537 659 500 659 c 0,0,1
881 412 m 0,18,19
 881 365 881 365 870.5 314 c 128,-1,20
 860 263 860 263 838.5 214 c 128,-1,21
 817 165 817 165 785.5 121 c 128,-1,22
 754 77 754 77 712.5 43.5 c 128,-1,23
 671 10 671 10 619 -10 c 128,-1,24
 567 -30 567 -30 506 -30 c 0,25,26
 424 -30 424 -30 352 6.5 c 128,-1,27
 280 43 280 43 226.5 109 c 128,-1,28
 173 175 173 175 142 267.5 c 128,-1,29
 111 360 111 360 111 473 c 0,30,31
 111 614 111 614 151.5 743.5 c 128,-1,32
 192 873 192 873 275.5 977 c 128,-1,33
 359 1081 359 1081 486.5 1152.5 c 128,-1,34
 614 1224 614 1224 788 1249 c 1,35,-1
 807 1190 l 1,36,37
 689 1163 689 1163 597.5 1108.5 c 128,-1,38
 506 1054 506 1054 440.5 982 c 128,-1,39
 375 910 375 910 334.5 824.5 c 128,-1,40
 294 739 294 739 279 650 c 1,41,42
 314 684 314 684 350.5 707 c 128,-1,43
 387 730 387 730 421.5 744 c 128,-1,44
 456 758 456 758 487 764 c 128,-1,45
 518 770 518 770 541 770 c 0,46,47
 622 770 622 770 685 745 c 128,-1,48
 748 720 748 720 791.5 673.5 c 128,-1,49
 835 627 835 627 858 560.5 c 128,-1,50
 881 494 881 494 881 412 c 0,18,19
EndSplineSet
EndChar
StartChar: seven
Encoding: 55 55 26
Width: 961
GlyphClass: 2
Flags: W
Fore
885 1167 m 1,0,1
 839 1060 839 1060 792 949.5 c 128,-1,2
 745 839 745 839 700.5 732 c 128,-1,3
 656 625 656 625 615 524 c 128,-1,4
 574 423 574 423 539.5 334 c 128,-1,5
 505 245 505 245 477 171 c 128,-1,6
 449 97 449 97 432 44 c 1,7,8
 397 19 397 19 358.5 1 c 128,-1,9
 320 -17 320 -17 270 -30 c 1,10,-1
 229 3 l 1,11,12
 316 156 316 156 385 295 c 128,-1,13
 454 434 454 434 513 564.5 c 128,-1,14
 572 695 572 695 625 821 c 128,-1,15
 678 947 678 947 733 1075 c 1,16,-1
 279 1075 l 2,17,18
 264 1075 264 1075 250 1074 c 128,-1,19
 236 1073 236 1073 221 1060.5 c 128,-1,20
 206 1048 206 1048 188.5 1018 c 128,-1,21
 171 988 171 988 150 930 c 1,22,-1
 104 948 l 1,23,24
 107 971 107 971 112 1005.5 c 128,-1,25
 117 1040 117 1040 123 1077 c 128,-1,26
 129 1114 129 1114 135 1148 c 128,-1,27
 141 1182 141 1182 147 1204 c 1,28,-1
 852 1204 l 1,29,-1
 885 1167 l 1,30,-1
 885 1167 l 1,0,1
EndSplineSet
EndChar
StartChar: eight
Encoding: 56 56 27
Width: 961
GlyphClass: 2
Flags: W
Fore
274 950 m 0,0,1
 274 906 274 906 295.5 873.5 c 128,-1,2
 317 841 317 841 353 815 c 128,-1,3
 389 789 389 789 435.5 767.5 c 128,-1,4
 482 746 482 746 532 724 c 1,5,6
 606 777 606 777 637 830.5 c 128,-1,7
 668 884 668 884 668 938 c 0,8,9
 668 990 668 990 652.5 1028.5 c 128,-1,10
 637 1067 637 1067 608.5 1092 c 128,-1,11
 580 1117 580 1117 540 1129 c 128,-1,12
 500 1141 500 1141 451 1141 c 0,13,14
 406 1141 406 1141 373 1124 c 128,-1,15
 340 1107 340 1107 318 1079.5 c 128,-1,16
 296 1052 296 1052 285 1018 c 128,-1,17
 274 984 274 984 274 950 c 0,0,1
707 309 m 0,18,19
 707 375 707 375 683.5 422 c 128,-1,20
 660 469 660 469 622 503 c 128,-1,21
 584 537 584 537 535 562 c 128,-1,22
 486 587 486 587 434 610 c 1,23,24
 386 575 386 575 352 541.5 c 128,-1,25
 318 508 318 508 296.5 473 c 128,-1,26
 275 438 275 438 264.5 399 c 128,-1,27
 254 360 254 360 254 315 c 0,28,29
 254 263 254 263 271 218 c 128,-1,30
 288 173 288 173 320 140 c 128,-1,31
 352 107 352 107 397.5 88.5 c 128,-1,32
 443 70 443 70 500 70 c 0,33,34
 555 70 555 70 594.5 91 c 128,-1,35
 634 112 634 112 659 146 c 128,-1,36
 684 180 684 180 695.5 222.5 c 128,-1,37
 707 265 707 265 707 309 c 0,18,19
864 352 m 0,38,39
 864 274 864 274 831.5 205 c 128,-1,40
 799 136 799 136 742.5 83.5 c 128,-1,41
 686 31 686 31 611 0.5 c 128,-1,42
 536 -30 536 -30 451 -30 c 0,43,44
 365 -30 365 -30 299 -4 c 128,-1,45
 233 22 233 22 187 66 c 128,-1,46
 141 110 141 110 117.5 166.5 c 128,-1,47
 94 223 94 223 94 285 c 0,48,49
 94 339 94 339 112.5 389.5 c 128,-1,50
 131 440 131 440 165.5 485.5 c 128,-1,51
 200 531 200 531 248.5 571 c 128,-1,52
 297 611 297 611 357 644 c 1,53,54
 314 664 314 664 275.5 688 c 128,-1,55
 237 712 237 712 208 744 c 128,-1,56
 179 776 179 776 162 817.5 c 128,-1,57
 145 859 145 859 145 915 c 0,58,59
 145 984 145 984 172.5 1043 c 128,-1,60
 200 1102 200 1102 248 1144.5 c 128,-1,61
 296 1187 296 1187 361.5 1211 c 128,-1,62
 427 1235 427 1235 502 1235 c 256,63,64
 577 1235 577 1235 635.5 1215 c 128,-1,65
 694 1195 694 1195 733.5 1160 c 128,-1,66
 773 1125 773 1125 794 1076 c 128,-1,67
 815 1027 815 1027 815 969 c 0,68,69
 815 927 815 927 800 889.5 c 128,-1,70
 785 852 785 852 758 817.5 c 128,-1,71
 731 783 731 783 693.5 751 c 128,-1,72
 656 719 656 719 612 688 c 1,73,74
 661 664 661 664 707 634.5 c 128,-1,75
 753 605 753 605 787.5 565 c 128,-1,76
 822 525 822 525 843 473 c 128,-1,77
 864 421 864 421 864 352 c 0,38,39
EndSplineSet
EndChar
StartChar: nine
Encoding: 57 57 28
Width: 961
GlyphClass: 2
Flags: W
Fore
481 555 m 0,0,1
 550 555 550 555 608.5 593 c 128,-1,2
 667 631 667 631 709 693 c 1,3,4
 707 819 707 819 683.5 903 c 128,-1,5
 660 987 660 987 625 1037.5 c 128,-1,6
 590 1088 590 1088 547.5 1109 c 128,-1,7
 505 1130 505 1130 465 1130 c 0,8,9
 414 1130 414 1130 373.5 1109.5 c 128,-1,10
 333 1089 333 1089 305 1052.5 c 128,-1,11
 277 1016 277 1016 262.5 965.5 c 128,-1,12
 248 915 248 915 248 856 c 0,13,14
 248 764 248 764 270.5 705.5 c 128,-1,15
 293 647 293 647 327.5 613.5 c 128,-1,16
 362 580 362 580 403 567.5 c 128,-1,17
 444 555 444 555 481 555 c 0,0,1
870 731 m 0,18,19
 870 579 870 579 829 448.5 c 128,-1,20
 788 318 788 318 704 217.5 c 128,-1,21
 620 117 620 117 492 49.5 c 128,-1,22
 364 -18 364 -18 190 -43 c 1,23,-1
 172 16 l 1,24,25
 305 49 305 49 401 103 c 128,-1,26
 497 157 497 157 561 228.5 c 128,-1,27
 625 300 625 300 659.5 387.5 c 128,-1,28
 694 475 694 475 704 576 c 1,29,30
 650 516 650 516 578.5 480 c 128,-1,31
 507 444 507 444 438 444 c 0,32,33
 358 444 358 444 295.5 471 c 128,-1,34
 233 498 233 498 189.5 545 c 128,-1,35
 146 592 146 592 123 656 c 128,-1,36
 100 720 100 720 100 795 c 0,37,38
 100 845 100 845 113.5 897.5 c 128,-1,39
 127 950 127 950 152.5 999 c 128,-1,40
 178 1048 178 1048 214.5 1091 c 128,-1,41
 251 1134 251 1134 296 1166 c 128,-1,42
 341 1198 341 1198 394 1216.5 c 128,-1,43
 447 1235 447 1235 506 1235 c 0,44,45
 576 1235 576 1235 641.5 1206 c 128,-1,46
 707 1177 707 1177 758 1115.5 c 128,-1,47
 809 1054 809 1054 839.5 959 c 128,-1,48
 870 864 870 864 870 731 c 0,18,19
EndSplineSet
EndChar
StartChar: less
Encoding: 60 60 31
Width: 899
GlyphClass: 2
Flags: W
Fore
838 322 m 1,0,1
 827 312 827 312 818.5 304 c 128,-1,2
 810 296 810 296 800.5 288.5 c 128,-1,3
 791 281 791 281 780 273 c 128,-1,4
 769 265 769 265 754 256 c 1,5,-1
 86 506 l 1,6,-1
 61 530 l 1,7,8
 61 532 61 532 61.5 533 c 128,-1,9
 62 534 62 534 62 536 c 1,10,-1
 65 545 l 1,11,12
 65 547 65 547 67 553 c 0,13,14
 69 561 69 561 70 566 c 1,15,16
 71 568 71 568 73 574 c 0,17,18
 74 577 74 577 74.5 580.5 c 128,-1,19
 75 584 75 584 77 587 c 0,20,21
 78 589 78 589 78 591 c 256,22,23
 78 593 78 593 79 595 c 0,24,25
 81 600 81 600 82 604.5 c 128,-1,26
 83 609 83 609 85 613 c 0,27,28
 87 616 87 616 87.5 619 c 128,-1,29
 88 622 88 622 90 625 c 2,30,-1
 92 629 l 1,31,-1
 813 899 l 1,32,-1
 838 874 l 1,33,34
 835 863 835 863 831.5 850 c 128,-1,35
 828 837 828 837 824 823 c 128,-1,36
 820 809 820 809 816 796 c 128,-1,37
 812 783 812 783 809 774 c 1,38,-1
 254 568 l 1,39,-1
 821 358 l 1,40,-1
 838 322 l 1,41,-1
 838 322 l 1,0,1
EndSplineSet
EndChar
StartChar: equal
Encoding: 61 61 32
Width: 899
GlyphClass: 2
Flags: W
Fore
838 743 m 1,0,1
 833 723 833 723 824 697.5 c 128,-1,2
 815 672 815 672 809 655 c 1,3,-1
 86 655 l 1,4,-1
 61 680 l 1,5,6
 66 700 66 700 74.5 724.5 c 128,-1,7
 83 749 83 749 92 768 c 1,8,-1
 813 768 l 1,9,-1
 838 743 l 1,10,-1
 838 743 l 1,0,1
838 444 m 1,11,12
 833 423 833 423 824 398 c 128,-1,13
 815 373 815 373 809 354 c 1,14,-1
 86 354 l 1,15,-1
 61 381 l 1,16,17
 66 401 66 401 74.5 425 c 128,-1,18
 83 449 83 449 92 469 c 1,19,-1
 813 469 l 1,20,-1
 838 444 l 1,21,-1
 838 444 l 1,11,12
EndSplineSet
EndChar
StartChar: greater
Encoding: 62 62 33
Width: 899
GlyphClass: 2
Flags: W
Fore
832 601 m 2,0,1
 830 593 830 593 828 587 c 0,2,3
 827 585 827 585 827 583 c 256,4,5
 827 581 827 581 826 579 c 0,6,7
 824 573 824 573 822 565 c 2,8,9
 818 556 818 556 817 549 c 1,10,11
 816 547 816 547 815 544 c 128,-1,12
 814 541 814 541 813 539 c 0,13,14
 811 535 811 535 810 531 c 128,-1,15
 809 527 809 527 807 524 c 1,16,-1
 86 256 l 1,17,-1
 61 281 l 1,18,19
 64 291 64 291 68 304 c 128,-1,20
 72 317 72 317 76 331 c 128,-1,21
 80 345 80 345 84 357.5 c 128,-1,22
 88 370 88 370 92 379 c 1,23,-1
 643 585 l 1,24,-1
 78 795 l 1,25,-1
 61 834 l 1,26,27
 84 852 84 852 105.5 868 c 128,-1,28
 127 884 127 884 145 899 c 1,29,-1
 815 649 l 1,30,-1
 838 625 l 1,31,-1
 832 601 l 2,0,1
EndSplineSet
EndChar
StartChar: question
Encoding: 63 63 34
Width: 887
GlyphClass: 2
Flags: W
Fore
539 123 m 0,0,1
 539 88 539 88 528.5 58.5 c 128,-1,2
 518 29 518 29 499.5 7 c 128,-1,3
 481 -15 481 -15 455.5 -27.5 c 128,-1,4
 430 -40 430 -40 401 -40 c 0,5,6
 347 -40 347 -40 324 -11 c 128,-1,7
 301 18 301 18 301 72 c 0,8,9
 301 106 301 106 312 135.5 c 128,-1,10
 323 165 323 165 342 187.5 c 128,-1,11
 361 210 361 210 386.5 223 c 128,-1,12
 412 236 412 236 440 236 c 0,13,14
 490 236 490 236 514.5 206.5 c 128,-1,15
 539 177 539 177 539 123 c 0,0,1
807 1165 m 0,16,17
 807 1090 807 1090 783.5 1030 c 128,-1,18
 760 970 760 970 724 918 c 128,-1,19
 688 866 688 866 645.5 818.5 c 128,-1,20
 603 771 603 771 565.5 720.5 c 128,-1,21
 528 670 528 670 501 613 c 128,-1,22
 474 556 474 556 469 485 c 2,23,-1
 463 389 l 1,24,25
 444 375 444 375 429.5 365.5 c 128,-1,26
 415 356 415 356 387 348 c 1,27,-1
 362 369 l 1,28,-1
 354 485 l 2,29,30
 351 542 351 542 371 598.5 c 128,-1,31
 391 655 391 655 423 709.5 c 128,-1,32
 455 764 455 764 493 817.5 c 128,-1,33
 531 871 531 871 564 922 c 128,-1,34
 597 973 597 973 619 1022.5 c 128,-1,35
 641 1072 641 1072 641 1120 c 0,36,37
 641 1244 641 1244 585 1314 c 128,-1,38
 529 1384 529 1384 424 1384 c 0,39,40
 388 1384 388 1384 355.5 1367.5 c 128,-1,41
 323 1351 323 1351 298 1324 c 128,-1,42
 273 1297 273 1297 258.5 1261 c 128,-1,43
 244 1225 244 1225 244 1186 c 0,44,45
 244 1172 244 1172 247.5 1157 c 128,-1,46
 251 1142 251 1142 256 1128 c 1,47,48
 224 1111 224 1111 189 1103 c 128,-1,49
 154 1095 154 1095 109 1090 c 1,50,-1
 82 1120 l 1,51,52
 80 1128 80 1128 80 1136 c 0,53,54
 80 1145 80 1145 80 1153 c 0,55,56
 80 1223 80 1223 114.5 1283 c 128,-1,57
 149 1343 149 1343 207.5 1387 c 128,-1,58
 266 1431 266 1431 342 1455.5 c 128,-1,59
 418 1480 418 1480 502 1480 c 0,60,61
 575 1480 575 1480 632 1457 c 128,-1,62
 689 1434 689 1434 728 1392.5 c 128,-1,63
 767 1351 767 1351 787 1293 c 128,-1,64
 807 1235 807 1235 807 1165 c 0,16,17
EndSplineSet
EndChar
StartChar: at
Encoding: 64 64 35
Width: 1653
GlyphClass: 2
Flags: W
Fore
1014 731 m 1,0,1
 1000 759 1000 759 985 781 c 128,-1,2
 970 803 970 803 952 819 c 128,-1,3
 934 835 934 835 911 843.5 c 128,-1,4
 888 852 888 852 858 852 c 0,5,6
 803 852 803 852 757.5 828 c 128,-1,7
 712 804 712 804 679 757 c 128,-1,8
 646 710 646 710 628 639.5 c 128,-1,9
 610 569 610 569 610 475 c 0,10,11
 610 390 610 390 630.5 321 c 128,-1,12
 651 252 651 252 682.5 203.5 c 128,-1,13
 714 155 714 155 752 128.5 c 128,-1,14
 790 102 790 102 825 102 c 0,15,16
 844 102 844 102 862 108.5 c 128,-1,17
 880 115 880 115 901 131.5 c 128,-1,18
 922 148 922 148 949 176.5 c 128,-1,19
 976 205 976 205 1014 250 c 1,20,-1
 1014 731 l 1,0,1
1583 549 m 0,21,22
 1583 463 1583 463 1563 386 c 128,-1,23
 1543 309 1543 309 1510 245 c 128,-1,24
 1477 181 1477 181 1433.5 130 c 128,-1,25
 1390 79 1390 79 1343 43.5 c 128,-1,26
 1296 8 1296 8 1247.5 -11 c 128,-1,27
 1199 -30 1199 -30 1157 -30 c 0,28,29
 1133 -30 1133 -30 1111 -19.5 c 128,-1,30
 1089 -9 1089 -9 1071 14 c 128,-1,31
 1053 37 1053 37 1040 73.5 c 128,-1,32
 1027 110 1027 110 1020 162 c 1,33,34
 979 105 979 105 947.5 68 c 128,-1,35
 916 31 916 31 886 9 c 128,-1,36
 856 -13 856 -13 825 -21.5 c 128,-1,37
 794 -30 794 -30 754 -30 c 0,38,39
 703 -30 703 -30 650.5 2.5 c 128,-1,40
 598 35 598 35 555.5 96 c 128,-1,41
 513 157 513 157 486 245 c 128,-1,42
 459 333 459 333 459 444 c 0,43,44
 459 501 459 501 473 562 c 128,-1,45
 487 623 487 623 513 680 c 128,-1,46
 539 737 539 737 576.5 788 c 128,-1,47
 614 839 614 839 662 877.5 c 128,-1,48
 710 916 710 916 767 938 c 128,-1,49
 824 960 824 960 889 960 c 0,50,51
 912 960 912 960 931 956.5 c 128,-1,52
 950 953 950 953 968.5 943 c 128,-1,53
 987 933 987 933 1008 915 c 128,-1,54
 1029 897 1029 897 1055 868 c 1,55,56
 1081 884 1081 884 1108 906.5 c 128,-1,57
 1135 929 1135 929 1163 960 c 1,58,-1
 1194 930 l 1,59,-1
 1189 914 l 2,60,61
 1184 897 1184 897 1178.5 868.5 c 128,-1,62
 1173 840 1173 840 1168 802.5 c 128,-1,63
 1163 765 1163 765 1163 723 c 2,64,-1
 1163 285 l 2,65,66
 1163 195 1163 195 1193.5 152 c 128,-1,67
 1224 109 1224 109 1272 109 c 0,68,69
 1297 109 1297 109 1330 140.5 c 128,-1,70
 1363 172 1363 172 1393 226.5 c 128,-1,71
 1423 281 1423 281 1443.5 354.5 c 128,-1,72
 1464 428 1464 428 1464 512 c 0,73,74
 1464 680 1464 680 1421 811 c 128,-1,75
 1378 942 1378 942 1301 1031.5 c 128,-1,76
 1224 1121 1224 1121 1118 1167.5 c 128,-1,77
 1012 1214 1012 1214 885 1214 c 0,78,79
 783 1214 783 1214 694 1188 c 128,-1,80
 605 1162 605 1162 531 1115.5 c 128,-1,81
 457 1069 457 1069 399 1004.5 c 128,-1,82
 341 940 341 940 301 863.5 c 128,-1,83
 261 787 261 787 240 700.5 c 128,-1,84
 219 614 219 614 219 524 c 0,85,86
 219 343 219 343 275 198.5 c 128,-1,87
 331 54 331 54 425.5 -47 c 128,-1,88
 520 -148 520 -148 643.5 -202 c 128,-1,89
 767 -256 767 -256 903 -256 c 0,90,91
 987 -256 987 -256 1067.5 -238.5 c 128,-1,92
 1148 -221 1148 -221 1217 -194.5 c 128,-1,93
 1286 -168 1286 -168 1339.5 -138 c 128,-1,94
 1393 -108 1393 -108 1423 -82 c 1,95,-1
 1450 -137 l 1,96,97
 1414 -175 1414 -175 1356.5 -217 c 128,-1,98
 1299 -259 1299 -259 1223.5 -294 c 128,-1,99
 1148 -329 1148 -329 1055 -352 c 128,-1,100
 962 -375 962 -375 854 -375 c 0,101,102
 682 -375 682 -375 538 -316 c 128,-1,103
 394 -257 394 -257 290 -147.5 c 128,-1,104
 186 -38 186 -38 128 117.5 c 128,-1,105
 70 273 70 273 70 465 c 0,106,107
 70 578 70 578 100.5 686.5 c 128,-1,108
 131 795 131 795 187 891.5 c 128,-1,109
 243 988 243 988 321 1069 c 128,-1,110
 399 1150 399 1150 494 1208.5 c 128,-1,111
 589 1267 589 1267 698 1300 c 128,-1,112
 807 1333 807 1333 924 1333 c 0,113,114
 1073 1333 1073 1333 1194.5 1282.5 c 128,-1,115
 1316 1232 1316 1232 1402.5 1133 c 128,-1,116
 1489 1034 1489 1034 1536 887.5 c 128,-1,117
 1583 741 1583 741 1583 549 c 0,21,22
EndSplineSet
EndChar
StartChar: A
Encoding: 65 65 36
Width: 1497
GlyphClass: 2
Flags: W
Fore
71 48 m 1,0,-1
 137 163 l 2,1,2
 204 278 204 278 282 436 c 0,3,4
 354 581 354 581 384 680 c 2,5,-1
 424 811 l 1,6,-1
 422 798 l 1,7,-1
 460 939 l 2,8,9
 497 1080 497 1080 512 1195 c 0,10,11
 531 1332 531 1332 525 1453 c 2,12,-1
 520 1574 l 1,13,-1
 531 1549 l 2,14,15
 542 1525 542 1525 570.5 1493 c 128,-1,16
 599 1461 599 1461 633 1445 c 0,17,18
 691 1419 691 1419 731 1418 c 128,-1,19
 771 1417 771 1417 829 1441 c 0,20,21
 864 1456 864 1456 894 1490 c 128,-1,22
 924 1524 924 1524 937 1551 c 2,23,-1
 950 1577 l 1,24,-1
 977 1224 l 2,25,26
 983 1135 983 1135 1008 1041 c 0,27,28
 1034 939 1034 939 1058 878 c 2,29,-1
 1082 816 l 1,30,-1
 1116 725 l 1,31,-1
 1422 86 l 1,32,-1
 1033 111 l 1,33,-1
 1018 541 l 1,34,-1
 984 655 l 1,35,-1
 928 868 l 1,36,-1
 735 1364 l 1,37,-1
 524 850 l 1,38,-1
 463 607 l 1,39,-1
 399 81 l 1,40,-1
 71 48 l 1,0,-1
388 688 m 1,41,-1
 380 692 l 2,42,43
 371 697 371 697 363.5 710.5 c 128,-1,44
 356 724 356 724 358 743 c 0,45,46
 359 762 359 762 374.5 772 c 128,-1,47
 390 782 390 782 404 783 c 2,48,-1
 418 783 l 1,49,-1
 388 688 l 1,41,-1
1078 820 m 1,50,-1
 1107 813 l 2,51,52
 1136 805 1136 805 1142.5 790.5 c 128,-1,53
 1149 776 1149 776 1135 752 c 2,54,-1
 1120 728 l 1,55,-1
 1078 820 l 1,50,-1
618.586 1022.45 m 1,56,57
 695.834 997.149 695.834 997.149 759.276 1030.65 c 0,58,59
 781.092 1040.99 781.092 1040.99 798.551 1052.5 c 2,60,-1
 813.465 1062.33 l 1,61,-1
 806.505 1038.29 l 2,62,63
 799.444 1013.91 799.444 1013.91 809.488 994.049 c 0,64,65
 815.453 982.577 815.453 982.577 830.865 973.564 c 128,-1,66
 846.276 964.551 846.276 964.551 858.207 961.273 c 2,67,-1
 870.139 957.996 l 1,68,-1
 830.368 949.256 l 2,69,70
 794.12 941.29 794.12 941.29 768.723 931.776 c 0,71,72
 752.813 926.313 752.813 926.313 742.373 919.759 c 128,-1,73
 731.934 913.203 731.934 913.203 729.945 909.38 c 1,74,-1
 726.963 906.103 l 1,75,-1
 720.003 867.864 l 1,76,-1
 741.877 839.46 l 1,77,-1
 757.785 853.116 l 2,78,79
 772.671 865.894 772.671 865.894 790.597 871.688 c 0,80,81
 811.477 878.243 811.477 878.243 844.288 874.966 c 2,82,-1
 877.099 871.688 l 1,83,-1
 855.225 860.218 l 2,84,85
 833.357 848.75 833.357 848.75 820.425 837.821 c 0,86,87
 806.881 825.597 806.881 825.597 819.431 818.702 c 2,88,-1
 832.356 811.601 l 1,89,90
 909.91 788.658 909.91 788.658 944.71 770.632 c 0,91,92
 981.899 751.369 981.899 751.369 1001.38 714.915 c 0,93,94
 1016.22 687.158 1016.22 687.158 1016.8 662.475 c 0,95,96
 1017.21 644.845 1017.21 644.845 1004.37 610.581 c 0,97,98
 997.407 592.009 997.407 592.009 980.504 575.895 c 0,99,100
 962.628 558.853 962.628 558.853 950.676 553.225 c 2,101,-1
 936.756 546.67 l 1,102,-1
 944.71 545.031 l 2,103,104
 954.317 543.052 954.317 543.052 962.11 539.022 c 0,105,106
 970.562 534.652 970.562 534.652 970.562 528.098 c 0,107,108
 974.539 498.054 974.539 498.054 944.71 490.406 c 0,109,110
 918.488 483.452 918.488 483.452 870.139 502.424 c 0,111,112
 856.221 507.885 856.221 507.885 857.214 517.172 c 2,113,-1
 858.207 526.458 l 1,114,-1
 804.516 518.812 l 2,115,116
 750.974 511.186 750.974 511.186 712.048 522.089 c 2,117,-1
 610.632 550.493 l 1,118,119
 565.89 543.393 565.89 543.393 556.443 541.48 c 128,-1,120
 546.997 539.568 546.997 539.568 543.021 530.282 c 0,121,122
 541.032 524.273 541.032 524.273 551.97 515.261 c 128,-1,123
 562.906 506.247 562.906 506.247 575.832 500.238 c 2,124,-1
 588.758 494.229 l 1,125,126
 535.066 483.851 535.066 483.851 492.81 495.049 c 0,127,128
 448.144 506.886 448.144 506.886 460.495 536.291 c 0,129,130
 468.073 554.332 468.073 554.332 483.861 561.965 c 0,131,132
 496.289 567.974 496.289 567.974 543.021 576.714 c 1,133,-1
 519.158 593.647 l 2,134,135
 497.886 608.743 497.886 608.743 487.341 628.607 c 0,136,137
 480.381 641.718 480.381 641.718 479.884 652.915 c 128,-1,138
 479.386 664.113 479.386 664.113 481.375 676.404 c 128,-1,139
 483.363 688.694 483.363 688.694 483.363 696.889 c 0,140,141
 482.369 709.999 482.369 709.999 466.958 726.933 c 128,-1,142
 451.547 743.866 451.547 743.866 449.558 753.152 c 1,143,-1
 459.501 752.06 l 2,144,145
 472.012 750.685 472.012 750.685 488.335 753.426 c 0,146,147
 506.231 756.43 506.231 756.43 521.146 765.17 c 0,148,149
 541.769 778.198 541.769 778.198 560.918 804.5 c 2,150,-1
 580.803 831.812 l 1,151,-1
 584.78 803.407 l 2,152,153
 588.758 775.002 588.758 775.002 599.694 757.522 c 0,154,155
 607.648 744.412 607.648 744.412 620.574 734.58 c 0,156,157
 634.511 723.977 634.511 723.977 642.449 720.924 c 2,158,-1
 652.392 717.1 l 1,159,-1
 580.803 699.073 l 1,160,-1
 561.912 664.66 l 1,161,-1
 569.866 620.96 l 1,162,-1
 629.523 584.361 l 1,163,-1
 580.803 632.978 l 1,164,-1
 575.832 646.634 l 2,165,166
 570.407 661.538 570.407 661.538 580.803 675.038 c 0,167,168
 592.734 690.333 592.734 690.333 602.678 697.161 c 128,-1,169
 612.62 703.989 612.62 703.989 637.477 708.906 c 0,170,171
 662.912 714.817 662.912 714.817 691.168 709.999 c 2,172,-1
 720.003 705.082 l 1,173,-1
 731.934 689.787 l 2,174,175
 744.237 674.014 744.237 674.014 734.917 666.845 c 0,176,177
 711.054 649.911 711.054 649.911 652.392 657.013 c 1,178,-1
 644.438 654.827 l 2,179,180
 637.656 652.964 637.656 652.964 633.997 646.36 c 0,181,182
 630.517 640.078 630.517 640.078 637.477 628.607 c 0,183,184
 647.076 613.372 647.076 613.372 679.237 589.277 c 2,185,-1
 712.048 564.696 l 1,186,-1
 702.105 579.444 l 2,187,188
 691.985 594.456 691.985 594.456 697.134 602.66 c 0,189,190
 702.476 611.173 702.476 611.173 723.979 613.858 c 2,191,-1
 745.854 616.59 l 1,192,-1
 758.779 615.497 l 2,193,194
 771.713 614.404 771.713 614.404 784.134 609.488 c 128,-1,195
 796.562 604.572 796.562 604.572 794.573 596.379 c 256,196,197
 792.585 588.185 792.585 588.185 783.637 576.44 c 128,-1,198
 774.688 564.696 774.688 564.696 771.705 554.317 c 1,199,-1
 788.607 557.595 l 2,200,201
 802.76 560.339 802.76 560.339 823.408 566.608 c 0,202,203
 840.038 571.657 840.038 571.657 854.23 590.37 c 0,204,205
 869.145 610.035 869.145 610.035 854.728 626.695 c 128,-1,206
 840.311 643.356 840.311 643.356 790.597 664.66 c 1,207,-1
 803.522 671.215 l 2,208,209
 816.448 677.77 816.448 677.77 831.859 676.95 c 0,210,211
 848.4 676.07 848.4 676.07 868.15 667.391 c 2,212,-1
 888.036 658.651 l 1,213,-1
 875.11 672.308 l 2,214,215
 862.896 685.212 862.896 685.212 843.294 690.88 c 0,216,217
 821.972 697.501 821.972 697.501 794.573 696.343 c 2,218,-1
 768.723 695.25 l 1,219,-1
 828.379 711.091 l 1,220,-1
 809.488 716.554 l 2,221,222
 790.601 722.016 790.601 722.016 772.203 723.108 c 0,223,224
 756.336 724.051 756.336 724.051 732.929 720.377 c 2,225,-1
 712.048 717.1 l 1,226,-1
 743.865 733.487 l 2,227,228
 775.872 749.973 775.872 749.973 794.573 751.514 c 0,229,230
 817.93 752.681 817.93 752.681 835.339 747.144 c 2,231,-1
 854.23 741.135 l 1,232,-1
 866.162 753.152 l 1,233,-1
 940.733 713.276 l 1,234,-1
 959.624 713.822 l 1,235,236
 964.83 715.882 964.83 715.882 940.733 729.117 c 0,237,238
 936.756 731.302 936.756 731.302 913.39 743.047 c 128,-1,239
 890.024 754.791 890.024 754.791 880.579 758.342 c 128,-1,240
 871.134 761.893 871.134 761.893 841.802 769.54 c 128,-1,241
 812.471 777.188 812.471 777.188 771.705 783.196 c 0,242,243
 702.105 794.121 702.105 794.121 661.34 809.689 c 128,-1,244
 620.574 825.257 620.574 825.257 584.78 843.83 c 1,245,-1
 543.021 843.83 l 1,246,247
 576.67 859.055 576.67 859.055 610.632 855.848 c 2,248,-1
 674.266 849.839 l 1,249,-1
 667.306 903.917 l 1,250,-1
 665.317 930.684 l 2,251,252
 663.329 957.447 663.329 957.447 655.871 976.022 c 0,253,254
 648.768 993.711 648.768 993.711 633.5 1008.25 c 2,255,-1
 618.586 1022.45 l 1,56,57
EndSplineSet
EndChar
StartChar: B
Encoding: 66 66 37
Width: 1264
GlyphClass: 2
Flags: W
Fore
199.565 67.8574 m 5,0,-1
 223.035 132.38 l 6,1,2
 246.506 196.903 246.506 196.903 274.378 293.896 c 132,-1,3
 302.249 390.889 302.249 390.889 324.572 532.142 c 132,-1,4
 346.892 673.395 346.892 673.395 345 800 c 132,-1,5
 343.104 926.604 343.104 926.604 316.536 1069.25 c 132,-1,6
 289.967 1211.9 289.967 1211.9 259.17 1310.57 c 132,-1,7
 228.371 1409.24 228.371 1409.24 202.95 1475.15 c 6,8,-1
 177.529 1541.07 l 5,9,-1
 198.769 1528.92 l 6,10,11
 220.009 1516.77 220.009 1516.77 263.529 1505.61 c 132,-1,12
 307.049 1494.45 307.049 1494.45 351.609 1496.43 c 132,-1,13
 396.171 1498.41 396.171 1498.41 452.912 1514.04 c 132,-1,14
 509.652 1529.66 509.652 1529.66 544.114 1544.3 c 6,15,-1
 578.575 1558.93 l 5,16,-1
 555.42 1520.06 l 6,17,18
 532.264 1481.19 532.264 1481.19 500.313 1393.02 c 132,-1,19
 468.363 1304.85 468.363 1304.85 450.769 1206.25 c 4,20,21
 437.13 1129.81 437.13 1129.81 448.165 1059.22 c 132,-1,22
 459.198 988.628 459.198 988.628 477.895 934.496 c 132,-1,23
 496.592 880.364 496.592 880.364 514.446 847.995 c 6,24,-1
 532.299 815.625 l 5,25,-1
 507.938 764.72 l 6,26,27
 483.578 713.814 483.578 713.814 462.644 621.738 c 132,-1,28
 441.712 529.662 441.712 529.662 448.566 447.32 c 132,-1,29
 455.422 364.979 455.422 364.979 491.78 271.787 c 132,-1,30
 528.138 178.596 528.138 178.596 561.068 126.574 c 6,31,-1
 593.999 74.5527 l 5,32,-1
 367.035 74.5527 l 5,33,-1
 199.565 67.8574 l 5,0,-1
571.965 1558.93 m 5,34,-1
 599.818 1565.24 l 6,35,36
 627.672 1571.55 627.672 1571.55 672.947 1574.9 c 132,-1,37
 718.222 1578.25 718.222 1578.25 773.453 1577.95 c 132,-1,38
 828.683 1577.64 828.683 1577.64 885.768 1560.33 c 132,-1,39
 942.854 1543.02 942.854 1543.02 991.84 1512.35 c 132,-1,40
 1040.83 1481.69 1040.83 1481.69 1076.1 1419.97 c 132,-1,41
 1111.37 1358.25 1111.37 1358.25 1120.65 1273.21 c 4,42,43
 1132.12 1168.54 1132.12 1168.54 1120.46 1084.74 c 132,-1,44
 1108.79 1000.94 1108.79 1000.94 1083.95 956.115 c 132,-1,45
 1059.1 911.289 1059.1 911.289 1032.61 881.415 c 132,-1,46
 1006.13 851.541 1006.13 851.541 986.261 842.511 c 6,47,-1
 966.397 833.48 l 5,48,-1
 985.723 828.275 l 6,49,50
 1005.05 823.07 1005.05 823.07 1034.13 810.532 c 132,-1,51
 1063.21 797.994 1063.21 797.994 1097.38 770.525 c 132,-1,52
 1131.55 743.056 1131.55 743.056 1161.11 705.288 c 132,-1,53
 1190.68 667.518 1190.68 667.518 1211.11 604.645 c 132,-1,54
 1231.55 541.77 1231.55 541.77 1233.03 465.178 c 4,55,56
 1234.07 412.114 1234.07 412.114 1232.6 378.447 c 132,-1,57
 1231.14 344.779 1231.14 344.779 1221.71 298.312 c 132,-1,58
 1212.28 251.846 1212.28 251.846 1193.52 219.202 c 132,-1,59
 1174.76 186.558 1174.76 186.558 1138.6 151.681 c 132,-1,60
 1102.45 116.804 1102.45 116.804 1050.13 90.1777 c 4,61,62
 1000.43 64.8799 1000.43 64.8799 868.219 61.5322 c 132,-1,63
 736.006 58.1836 736.006 58.1836 628.644 67.4844 c 6,64,-1
 521.283 76.7852 l 5,65,-1
 516.876 212.945 l 5,66,-1
 541.647 204.52 l 6,67,68
 566.422 196.096 566.422 196.096 606.618 184.98 c 132,-1,69
 646.814 173.866 646.814 173.866 697.291 166.57 c 132,-1,70
 747.768 159.273 747.768 159.273 799.656 157.764 c 132,-1,71
 851.546 156.256 851.546 156.256 899.188 171.06 c 132,-1,72
 946.834 185.865 946.834 185.865 981.88 214.933 c 132,-1,73
 1016.93 244.002 1016.93 244.002 1033.2 301.879 c 132,-1,74
 1049.48 359.757 1049.48 359.757 1039.12 440.625 c 4,75,76
 1030.77 505.735 1030.77 505.735 1013.17 557.611 c 132,-1,77
 995.565 609.487 995.565 609.487 976.251 642.479 c 132,-1,78
 956.937 675.471 956.937 675.471 927.768 699.223 c 132,-1,79
 898.599 722.975 898.599 722.975 877.451 734.53 c 132,-1,80
 856.303 746.084 856.303 746.084 824.015 752.213 c 132,-1,81
 791.729 758.342 791.729 758.342 777.193 758.959 c 132,-1,82
 762.66 759.575 762.66 759.575 735.703 758.582 c 132,-1,83
 708.745 757.588 708.745 757.588 708.585 757.588 c 4,84,85
 641.092 757.589 641.092 757.589 584.351 741.406 c 132,-1,86
 527.609 725.222 527.609 725.222 504.614 709.039 c 6,87,-1
 481.619 692.855 l 5,88,-1
 503.654 875.892 l 5,89,-1
 524.052 867.363 l 6,90,91
 544.451 858.835 544.451 858.835 586.074 854.866 c 132,-1,92
 627.698 850.897 627.698 850.897 690.956 858.035 c 4,93,94
 775.312 869.716 775.312 869.716 830.15 893.408 c 132,-1,95
 884.99 917.099 884.99 917.099 912.842 954.76 c 132,-1,96
 940.693 992.421 940.693 992.421 949.787 1036.11 c 132,-1,97
 958.88 1079.8 958.88 1079.8 955.381 1141.52 c 4,98,99
 950.453 1228.44 950.453 1228.44 917.922 1312.58 c 132,-1,100
 885.391 1396.72 885.391 1396.72 823.224 1453.13 c 132,-1,101
 761.056 1509.55 761.056 1509.55 686.547 1498.66 c 4,102,103
 637.863 1491.55 637.863 1491.55 597.581 1470.85 c 132,-1,104
 557.3 1450.16 557.3 1450.16 536.846 1429.41 c 132,-1,105
 516.391 1408.65 516.391 1408.65 505.616 1392.27 c 6,106,-1
 494.84 1375.89 l 5,107,-1
 571.965 1558.93 l 5,34,-1
668.921 759.82 m 5,108,-1
 783.505 757.588 l 5,109,-1
 757.797 744.195 l 6,110,111
 732.089 730.803 732.089 730.803 696.833 706.25 c 132,-1,112
 661.575 681.696 661.575 681.696 642.477 659.375 c 132,-1,113
 623.38 637.053 623.38 637.053 615.668 611.384 c 132,-1,114
 607.955 585.714 607.955 585.714 609.792 571.205 c 6,115,-1
 611.628 556.695 l 5,116,-1
 615.668 568.104 l 6,117,118
 619.709 579.513 619.709 579.513 628.521 590.674 c 132,-1,119
 637.337 601.835 637.337 601.835 646.885 601.338 c 4,120,121
 663.311 600.486 663.311 600.486 679.018 585.613 c 132,-1,122
 694.725 570.739 694.725 570.739 697.565 552.232 c 4,123,124
 700.445 533.485 700.445 533.485 689.887 518.24 c 132,-1,125
 679.33 502.995 679.33 502.995 662.31 500.892 c 4,126,127
 654.546 499.933 654.546 499.933 644.292 506.008 c 132,-1,128
 634.037 512.082 634.037 512.082 626.178 519.921 c 132,-1,129
 618.318 527.759 618.318 527.759 612.769 534.415 c 6,130,-1
 607.221 541.07 l 5,131,-1
 609.484 516.27 l 6,132,133
 611.75 491.468 611.75 491.468 624.421 464.682 c 132,-1,134
 637.09 437.896 637.09 437.896 657.901 433.928 c 4,135,136
 690.615 424.316 690.615 424.316 719.523 432.861 c 132,-1,137
 748.433 441.407 748.433 441.407 779.096 478.57 c 4,138,139
 792.807 495.188 792.807 495.188 803.273 543.737 c 132,-1,140
 813.742 592.286 813.742 592.286 817.353 632.527 c 6,141,-1
 820.964 672.767 l 5,142,-1
 834.357 625.125 l 6,143,144
 847.752 577.482 847.752 577.482 869.442 543.303 c 4,145,146
 884.868 518.998 884.868 518.998 914.063 497.792 c 132,-1,147
 943.261 476.587 943.261 476.587 964.746 467.535 c 6,148,-1
 986.23 458.482 l 5,149,-1
 968.173 446.019 l 6,150,151
 950.117 433.556 950.117 433.556 924.225 409.56 c 132,-1,152
 898.334 385.565 898.334 385.565 882.664 362.5 c 4,153,154
 860.629 330.063 860.629 330.063 843 278.201 c 6,155,-1
 825.372 226.338 l 5,156,-1
 821.393 250.148 l 6,157,158
 817.414 273.958 817.414 273.958 804.745 305.208 c 132,-1,159
 792.074 336.458 792.074 336.458 774.689 351.338 c 132,-1,160
 757.307 366.22 757.307 366.22 730.313 369.01 c 132,-1,161
 703.32 371.801 703.32 371.801 685.018 367.15 c 6,162,-1
 666.716 362.5 l 5,163,-1
 679.628 345.34 l 6,164,165
 692.539 328.18 692.539 328.18 688.752 315.625 c 4,166,167
 684.146 300.362 684.146 300.362 670.661 290.426 c 132,-1,168
 657.172 280.488 657.172 280.488 642.477 282.142 c 4,169,170
 627.422 283.838 627.422 283.838 616.994 296.955 c 132,-1,171
 606.563 310.071 606.563 310.071 609.424 324.553 c 4,172,173
 611.835 336.76 611.835 336.76 634.868 348.513 c 6,174,-1
 657.901 360.267 l 5,175,-1
 642.784 369.754 l 6,176,177
 627.665 379.241 627.665 379.241 607.282 401.004 c 132,-1,178
 586.898 422.767 586.898 422.767 576.372 447.32 c 132,-1,179
 565.843 471.875 565.843 471.875 562.538 505.356 c 132,-1,180
 559.232 538.839 559.232 538.839 561.19 560.045 c 6,181,-1
 563.148 581.25 l 5,182,-1
 552.131 563.672 l 6,183,184
 541.114 546.094 541.114 546.094 530.097 543.303 c 4,185,186
 497.572 535.064 497.572 535.064 492.637 563.392 c 4,187,188
 489.977 578.662 489.977 578.662 496.368 594.956 c 132,-1,189
 502.757 611.25 502.757 611.25 516.876 619.195 c 4,190,191
 529.27 626.172 529.27 626.172 550.618 617.104 c 6,192,-1
 571.965 608.035 l 5,193,-1
 586.425 638.588 l 6,194,195
 600.885 669.139 600.885 669.139 616.036 692.855 c 132,-1,196
 631.184 716.573 631.184 716.573 650.052 738.196 c 6,197,-1
 668.921 759.82 l 5,108,-1
624.848 853.57 m 5,198,-1
 603.089 874.672 l 6,199,200
 581.33 895.772 581.33 895.772 567.557 920.535 c 132,-1,201
 553.785 945.299 553.785 945.299 545.247 978.676 c 6,202,-1
 536.708 1012.05 l 5,203,-1
 529.993 995.835 l 6,204,205
 523.28 979.617 523.28 979.617 514.672 978.57 c 4,206,207
 504.138 977.29 504.138 977.29 493.894 985.362 c 132,-1,208
 483.647 993.434 483.647 993.434 481.619 1005.36 c 4,209,210
 479.645 1016.96 479.645 1016.96 487.05 1028.8 c 132,-1,211
 494.459 1040.64 494.459 1040.64 503.654 1043.3 c 4,212,213
 510.884 1045.4 510.884 1045.4 519.39 1032.07 c 6,214,-1
 527.893 1018.75 l 5,215,-1
 538.912 1128.13 l 5,216,-1
 560.947 1183.93 l 5,217,-1
 542.699 1184.03 l 6,218,219
 524.45 1184.14 524.45 1184.14 516.876 1192.86 c 4,220,221
 507.467 1203.69 507.467 1203.69 505.789 1217.97 c 132,-1,222
 504.11 1232.25 504.11 1232.25 512.468 1239.73 c 4,223,224
 525.951 1250.79 525.951 1250.79 554.337 1228.57 c 4,225,226
 561.912 1222.64 561.912 1222.64 561.428 1212.21 c 6,227,-1
 560.947 1201.79 l 5,228,-1
 613.832 1253.13 l 5,229,-1
 664.514 1293.3 l 5,230,-1
 658.728 1321.7 l 6,231,232
 652.943 1350.08 652.943 1350.08 644.681 1353.57 c 132,-1,233
 636.419 1357.06 636.419 1357.06 624.021 1336.34 c 6,234,-1
 611.628 1315.63 l 5,235,-1
 607.95 1336.01 l 6,236,237
 604.271 1356.4 604.271 1356.4 607.577 1382.07 c 132,-1,238
 610.883 1407.74 610.883 1407.74 624.848 1418.3 c 4,239,240
 667.124 1445.92 667.124 1445.92 694.546 1440.46 c 132,-1,241
 721.967 1435 721.967 1435 735.107 1414.38 c 6,242,-1
 748.247 1393.75 l 5,243,-1
 775.447 1398.91 l 6,244,245
 802.647 1404.08 802.647 1404.08 818.762 1391.52 c 4,246,247
 832.189 1381.06 832.189 1381.06 833.188 1353.92 c 6,248,-1
 834.186 1326.79 l 5,249,-1
 855.774 1318.97 l 6,250,251
 877.361 1311.16 877.361 1311.16 880.462 1300 c 132,-1,252
 883.559 1288.84 883.559 1288.84 868.788 1272.1 c 6,253,-1
 854.018 1255.36 l 5,254,-1
 863.198 1242.21 l 6,255,256
 872.38 1229.07 872.38 1229.07 880.093 1208.98 c 132,-1,257
 887.805 1188.89 887.805 1188.89 884.868 1175 c 132,-1,258
 881.928 1161.11 881.928 1161.11 867.605 1149.95 c 132,-1,259
 853.284 1138.79 853.284 1138.79 840.429 1134.57 c 6,260,-1
 827.575 1130.36 l 5,261,-1
 829.657 1093.9 l 6,262,263
 831.738 1057.44 831.738 1057.44 816.312 1012.8 c 132,-1,264
 800.888 968.154 800.888 968.154 765.876 951.785 c 4,265,266
 731.753 935.832 731.753 935.832 695.447 958.816 c 132,-1,267
 659.14 981.801 659.14 981.801 653.496 1018.75 c 4,268,269
 644.831 1075.46 644.831 1075.46 693.16 1116.96 c 4,270,271
 706.626 1125.56 706.626 1125.56 719.846 1119.12 c 132,-1,272
 733.066 1112.67 733.066 1112.67 742.861 1100.31 c 6,273,-1
 752.655 1087.95 l 5,274,-1
 752.165 1114.05 l 6,275,276
 751.676 1140.15 751.676 1140.15 732.945 1165.27 c 132,-1,277
 714.214 1190.38 714.214 1190.38 677.734 1188.39 c 4,278,279
 639.551 1186.32 639.551 1186.32 606.53 1134.86 c 132,-1,280
 573.508 1083.41 573.508 1083.41 585.186 1025.45 c 4,281,282
 592.53 988.987 592.53 988.987 632.195 947.693 c 132,-1,283
 671.857 906.398 671.857 906.398 707.849 883.333 c 6,284,-1
 743.84 860.267 l 5,285,-1
 624.848 853.57 l 5,198,-1
EndSplineSet
EndChar
StartChar: C
Encoding: 67 67 38
Width: 1098
GlyphClass: 2
Flags: W
Fore
1077.86 84.4199 m 1,0,-1
 981.809 107.231 l 2,1,2
 885.755 130.046 885.755 130.046 820.297 132.742 c 0,3,4
 773.748 134.66 773.748 134.66 733.408 126.893 c 128,-1,5
 693.066 119.127 693.066 119.127 675.999 110.402 c 2,6,-1
 658.932 101.678 l 1,7,-1
 651.26 84.4199 l 2,8,9
 643.588 67.1611 643.588 67.1611 630.398 49.9033 c 128,-1,10
 617.211 32.6455 617.211 32.6455 606.176 32.6455 c 128,-1,11
 595.143 32.6455 595.143 32.6455 583.506 49.9033 c 128,-1,12
 571.869 67.1611 571.869 67.1611 565.749 84.4199 c 2,13,-1
 559.628 101.678 l 1,14,-1
 507.239 100.75 l 2,15,16
 454.85 99.8203 454.85 99.8203 378.046 122.256 c 128,-1,17
 301.242 144.691 301.242 144.691 252.413 191.419 c 0,18,19
 163.439 276.563 163.439 276.563 97.0635 431.844 c 128,-1,20
 30.6855 587.125 30.6855 587.125 25.8799 771.29 c 0,21,22
 21.1465 952.716 21.1465 952.716 75.1113 1092.44 c 128,-1,23
 129.078 1232.17 129.078 1232.17 240 1382.23 c 0,24,25
 265.516 1416.74 265.516 1416.74 334.562 1452.12 c 128,-1,26
 403.607 1487.5 403.607 1487.5 459.896 1505.62 c 2,27,-1
 516.185 1523.74 l 1,28,-1
 523.339 1538.12 l 2,29,30
 530.493 1552.51 530.493 1552.51 542.131 1566.31 c 128,-1,31
 553.768 1580.12 553.768 1580.12 562.732 1578.97 c 0,32,33
 575.338 1577.35 575.338 1577.35 586.104 1545.37 c 2,34,-1
 596.868 1513.39 l 1,35,-1
 647.876 1507.46 l 2,36,37
 698.885 1501.52 698.885 1501.52 776.853 1520.29 c 0,38,39
 841.825 1535.93 841.825 1535.93 927.26 1574.71 c 2,40,-1
 1012.7 1613.49 l 1,41,-1
 1018.9 1137.16 l 1,42,-1
 988.646 1179.06 l 2,43,44
 958.389 1220.96 958.389 1220.96 904.859 1277.05 c 128,-1,45
 851.329 1333.14 851.329 1333.14 804.781 1361.52 c 128,-1,46
 758.232 1389.9 758.232 1389.9 707.03 1397.66 c 128,-1,47
 655.828 1405.43 655.828 1405.43 627.899 1399 c 2,48,-1
 599.971 1392.58 l 1,49,-1
 595.143 1380.98 l 2,50,51
 590.316 1369.38 590.316 1369.38 581.007 1358.16 c 128,-1,52
 571.696 1346.94 571.696 1346.94 562.732 1347.71 c 128,-1,53
 553.768 1348.48 553.768 1348.48 542.906 1361.42 c 128,-1,54
 532.045 1374.36 532.045 1374.36 525.666 1386.92 c 2,55,-1
 519.287 1399.48 l 1,56,-1
 496.112 1393.22 l 2,57,58
 472.938 1386.95 472.938 1386.95 438.708 1369.25 c 128,-1,59
 404.48 1351.55 404.48 1351.55 365.992 1308.37 c 128,-1,60
 327.504 1265.19 327.504 1265.19 296.117 1203.23 c 128,-1,61
 264.73 1141.26 264.73 1141.26 248.051 1033.82 c 128,-1,62
 231.373 926.375 231.373 926.375 240 792 c 0,63,64
 249.277 648.346 249.277 648.346 277.264 539.401 c 128,-1,65
 305.249 430.459 305.249 430.459 340.382 373.095 c 128,-1,66
 375.514 315.729 375.514 315.729 414.492 279.931 c 128,-1,67
 453.471 244.13 453.471 244.13 485.547 234.088 c 128,-1,68
 517.623 224.045 517.623 224.045 538.626 223.264 c 2,69,-1
 559.628 222.484 l 1,70,-1
 566.524 240.127 l 2,71,72
 573.421 257.768 573.421 257.768 585.834 275.024 c 128,-1,73
 598.246 292.282 598.246 292.282 609.28 291.516 c 128,-1,74
 620.313 290.749 620.313 290.749 632.727 271.766 c 128,-1,75
 645.139 252.781 645.139 252.781 652.035 234.181 c 2,76,-1
 658.932 215.581 l 1,77,-1
 700.394 221.812 l 2,78,79
 741.855 228.044 741.855 228.044 806.247 251.342 c 128,-1,80
 870.638 274.641 870.638 274.641 916.497 308.774 c 128,-1,81
 962.354 342.906 962.354 342.906 1001.14 396.406 c 128,-1,82
 1039.93 449.907 1039.93 449.907 1055.79 486.341 c 2,83,-1
 1071.66 522.774 l 1,84,-1
 1077.86 84.4199 l 1,0,-1
606.176 1399.48 m 1,85,-1
 660.74 1399.39 l 2,86,87
 715.303 1399.29 715.303 1399.29 755.547 1387.43 c 0,88,89
 784.165 1378.99 784.165 1378.99 811.213 1363.02 c 128,-1,90
 838.263 1347.05 838.263 1347.05 851.002 1335.3 c 2,91,-1
 863.741 1323.55 l 1,92,-1
 885.55 1290.66 l 2,93,94
 907.358 1257.78 907.358 1257.78 923.65 1199.96 c 128,-1,95
 939.942 1142.15 939.942 1142.15 928.909 1092.29 c 128,-1,96
 917.875 1042.43 917.875 1042.43 876.758 988.07 c 128,-1,97
 835.641 933.708 835.641 933.708 800.041 904.272 c 2,98,-1
 764.44 874.838 l 1,99,-1
 806.419 834.186 l 2,100,101
 848.398 793.535 848.398 793.535 898.825 721.052 c 128,-1,102
 949.251 648.567 949.251 648.567 966.146 584.904 c 0,103,104
 981.203 510.758 981.203 510.758 970.17 447.862 c 128,-1,105
 959.137 384.965 959.137 384.965 937.816 343.418 c 2,106,-1
 916.497 301.872 l 1,107,-1
 727.2 219.032 l 1,108,-1
 749.102 248.947 l 2,109,110
 771.002 278.859 771.002 278.859 796.869 322.276 c 128,-1,111
 822.737 365.689 822.737 365.689 843.021 425.086 c 128,-1,112
 863.305 484.482 863.305 484.482 860.639 533.13 c 0,113,114
 855.169 632.893 855.169 632.893 806.193 700.911 c 128,-1,115
 757.217 768.93 757.217 768.93 696.169 785.098 c 0,116,117
 662.514 794.011 662.514 794.011 632.686 763.753 c 128,-1,118
 602.856 733.493 602.856 733.493 606.176 709.16 c 0,119,120
 612.038 666.208 612.038 666.208 629.106 657.578 c 128,-1,121
 646.174 648.95 646.174 648.95 660.311 661.797 c 2,122,-1
 674.447 674.646 l 1,123,-1
 677.018 686.887 l 2,124,125
 679.587 699.129 679.587 699.129 686.859 712.612 c 0,126,127
 688.022 714.767 688.022 714.767 690.204 718.978 c 0,128,129
 696.373 730.877 696.373 730.877 699.871 735.393 c 128,-1,130
 703.368 739.907 703.368 739.907 710.496 739.04 c 128,-1,131
 717.624 738.173 717.624 738.173 727.2 726.419 c 0,132,133
 745.209 704.317 745.209 704.317 749.699 688.021 c 128,-1,134
 754.189 671.724 754.189 671.724 748.924 636.678 c 0,135,136
 745.131 616.734 745.131 616.734 729.615 602.928 c 128,-1,137
 714.099 589.122 714.099 589.122 700.479 585.286 c 2,138,-1
 686.859 581.452 l 1,139,-1
 702.715 567.808 l 2,140,141
 718.57 554.162 718.57 554.162 736.511 533.13 c 0,142,143
 769.874 494.013 769.874 494.013 727.2 453.743 c 0,144,145
 710.5 437.981 710.5 437.981 678.51 451.039 c 2,146,-1
 646.52 464.096 l 1,147,-1
 653.07 442.38 l 2,148,149
 659.621 420.66 659.621 420.66 649.621 405.42 c 0,150,151
 640.312 391.229 640.312 391.229 627.899 384.325 c 128,-1,152
 615.486 377.423 615.486 377.423 607.729 377.614 c 2,153,-1
 599.971 377.807 l 1,154,-1
 600.919 360.932 l 2,155,156
 601.867 344.057 601.867 344.057 596.436 323.347 c 128,-1,157
 591.005 302.638 591.005 302.638 578.248 294.966 c 0,158,159
 556.555 282.36 556.555 282.36 533.64 288.818 c 128,-1,160
 510.726 295.279 510.726 295.279 500.668 315.677 c 0,161,162
 490.777 335.739 490.777 335.739 495.723 358.499 c 2,163,-1
 500.668 381.259 l 1,164,-1
 483.649 383.954 l 2,165,166
 466.631 386.651 466.631 386.651 460.327 398.516 c 0,167,168
 452.763 412.755 452.763 412.755 456.544 434.974 c 2,169,-1
 460.327 457.192 l 1,170,-1
 438.062 452.294 l 2,171,172
 415.796 447.394 415.796 447.394 395.159 453.743 c 0,173,174
 378.954 458.728 378.954 458.728 374.3 481.163 c 128,-1,175
 369.645 503.599 369.645 503.599 373.094 523.541 c 2,176,-1
 376.541 543.483 l 1,177,-1
 356.371 561.414 l 2,178,179
 336.199 579.343 336.199 579.343 319.133 612.995 c 128,-1,180
 302.064 646.648 302.064 646.648 308.271 678.097 c 0,181,182
 313.151 702.832 313.151 702.832 328.668 726.13 c 128,-1,183
 344.184 749.428 344.184 749.428 357.26 760.357 c 2,184,-1
 370.334 771.29 l 1,185,-1
 367.059 746.267 l 2,186,187
 363.783 721.241 363.783 721.241 366.887 691.041 c 128,-1,188
 369.989 660.839 369.989 660.839 382.746 650.484 c 0,189,190
 403.402 631.551 403.402 631.551 434.422 638.381 c 0,191,192
 469.751 646.16 469.751 646.16 485.152 678.097 c 0,193,194
 501.76 712.539 501.76 712.539 526.851 758.023 c 2,195,-1
 547.216 802.356 l 1,196,-1
 541.096 805.328 l 2,197,198
 534.976 808.299 534.976 808.299 526.441 819.517 c 128,-1,199
 517.908 830.735 517.908 830.735 513.082 847.226 c 0,200,201
 509.34 860.011 509.34 860.011 519.425 878.994 c 128,-1,202
 529.51 897.978 529.51 897.978 541.467 910.567 c 2,203,-1
 553.423 923.161 l 1,204,-1
 506.875 961.13 l 1,205,-1
 504.635 933.899 l 2,206,207
 502.393 906.669 502.393 906.669 493.083 877.331 c 128,-1,208
 483.772 847.991 483.772 847.991 469.637 843.774 c 0,209,210
 445.534 836.582 445.534 836.582 417.486 860.966 c 128,-1,211
 389.439 885.349 389.439 885.349 379.644 923.161 c 0,212,213
 373.781 945.789 373.781 945.789 383.092 976.853 c 128,-1,214
 392.401 1007.92 392.401 1007.92 404.642 1027.67 c 2,215,-1
 416.882 1047.42 l 1,216,-1
 402.314 1057.77 l 2,217,218
 387.747 1068.13 387.747 1068.13 374.559 1085.39 c 128,-1,219
 361.37 1102.65 361.37 1102.65 364.129 1116.45 c 128,-1,220
 366.888 1130.26 366.888 1130.26 386.282 1144.07 c 128,-1,221
 405.677 1157.87 405.677 1157.87 423.691 1164.77 c 2,222,-1
 441.707 1171.68 l 1,223,-1
 433.52 1177.05 l 2,224,225
 425.33 1182.42 425.33 1182.42 416.797 1196.22 c 128,-1,226
 408.263 1210.03 408.263 1210.03 407.574 1226.9 c 0,227,228
 406.301 1258.02 406.301 1258.02 419.725 1286.32 c 128,-1,229
 433.148 1314.62 433.148 1314.62 457.224 1320.1 c 0,230,231
 472.395 1323.55 472.395 1323.55 493.341 1310.6 c 128,-1,232
 514.288 1297.66 514.288 1297.66 527.648 1282.99 c 2,233,-1
 541.011 1268.32 l 1,234,-1
 552.734 1286.25 l 2,235,236
 564.456 1304.18 564.456 1304.18 581.523 1320.58 c 128,-1,237
 598.591 1336.97 598.591 1336.97 609.28 1333.9 c 128,-1,238
 619.969 1330.83 619.969 1330.83 626.951 1307.54 c 128,-1,239
 633.934 1284.24 633.934 1284.24 635.57 1262.47 c 2,240,-1
 637.209 1240.71 l 1,241,-1
 664.188 1233.04 l 2,242,243
 691.17 1225.37 691.17 1225.37 721.426 1208.11 c 128,-1,244
 751.682 1190.85 751.682 1190.85 758.232 1171.68 c 0,245,246
 768.703 1141.03 768.703 1141.03 744.661 1104.93 c 128,-1,247
 720.619 1068.83 720.619 1068.83 696.169 1068.13 c 0,248,249
 682.722 1067.75 682.722 1067.75 672.637 1092.77 c 128,-1,250
 662.552 1117.8 662.552 1117.8 659.189 1143.01 c 2,251,-1
 655.828 1168.23 l 1,252,-1
 641.443 1160.65 l 2,253,254
 627.061 1153.07 627.061 1153.07 613.27 1136.48 c 128,-1,255
 599.48 1119.89 599.48 1119.89 591.62 1098.21 c 128,-1,256
 583.761 1076.53 583.761 1076.53 599.035 1043.53 c 128,-1,257
 614.308 1010.53 614.308 1010.53 655.828 974.936 c 0,258,259
 675.603 957.982 675.603 957.982 708.765 957.854 c 128,-1,260
 741.925 957.726 741.925 957.726 774.209 973.364 c 128,-1,261
 806.493 989.004 806.493 989.004 828.723 1030.49 c 128,-1,262
 850.95 1071.98 850.95 1071.98 848.226 1130.26 c 0,263,264
 845.436 1189.93 845.436 1189.93 819.479 1239.61 c 128,-1,265
 793.521 1289.29 793.521 1289.29 758.467 1317.57 c 128,-1,266
 723.414 1345.85 723.414 1345.85 688.761 1365.61 c 128,-1,267
 654.105 1385.37 654.105 1385.37 630.141 1392.43 c 2,268,-1
 606.176 1399.48 l 1,85,-1
EndSplineSet
EndChar
StartChar: D
Encoding: 68 68 39
Width: 1387
GlyphClass: 2
Flags: W
Fore
188.613 46.4551 m 1,0,-1
 217.363 157.892 l 2,1,2
 352.902 683.25 352.902 683.25 280.5 1193.5 c 0,3,4
 253.827 1381.47 253.827 1381.47 226.553 1483.93 c 2,5,-1
 199.284 1586.37 l 1,6,-1
 533.626 1593.57 l 1,7,-1
 512.682 1489.73 l 2,8,9
 413.938 1000.17 413.938 1000.17 483.931 482.606 c 0,10,11
 509.72 291.9 509.72 291.9 534.12 185.378 c 2,12,-1
 558.524 78.8379 l 1,13,-1
 188.613 46.4551 l 1,0,-1
533.626 1589.97 m 1,14,-1
 587.293 1593.83 l 2,15,16
 877.068 1614.68 877.068 1614.68 1042.25 1503.62 c 0,17,18
 1138.2 1439.11 1138.2 1439.11 1210.83 1306.98 c 0,19,20
 1345.86 1061.35 1345.86 1061.35 1344.56 808.306 c 128,-1,21
 1343.27 555.268 1343.27 555.268 1272.03 396.952 c 128,-1,22
 1200.78 238.636 1200.78 238.636 1035.14 111.217 c 0,23,24
 993.447 79.1465 993.447 79.1465 870.736 71.9521 c 128,-1,25
 748.026 64.7559 748.026 64.7559 646.161 73.5967 c 2,26,-1
 544.298 82.4346 l 1,27,-1
 522.955 215.559 l 1,28,29
 634.812 130.607 634.812 130.607 783.967 163.665 c 0,30,31
 912.309 192.123 912.309 192.123 1042.25 355.878 c 1,32,33
 1137.07 556.888 1137.07 556.888 1136.85 647.729 c 128,-1,34
 1136.64 738.571 1136.64 738.571 1138.29 845.196 c 1,35,36
 1083.9 1101.08 1083.9 1101.08 1069.44 1149.53 c 128,-1,37
 1054.99 1197.99 1054.99 1197.99 1030.64 1252.37 c 0,38,39
 979.571 1366.42 979.571 1366.42 875.082 1449.65 c 0,40,41
 712.073 1552.11 712.073 1552.11 525.497 1471.73 c 2,42,-1
 490.944 1456.85 l 1,43,-1
 533.626 1589.97 l 1,14,-1
899.979 402.653 m 1,44,45
 839.979 343.048 839.979 343.048 761.265 363.074 c 1,46,47
 821.218 234.08 821.218 234.08 872.612 297.016 c 0,48,49
 895.346 325.512 895.346 325.512 907.094 359.479 c 1,50,-1
 913.209 322.26 l 2,51,52
 919.32 285.045 919.32 285.045 891.547 247.26 c 128,-1,53
 863.77 209.476 863.77 209.476 826.216 215.555 c 128,-1,54
 788.663 221.632 788.663 221.632 772.639 232.836 c 0,55,56
 743.714 253.712 743.714 253.712 722.137 287.519 c 1,57,58
 639.291 213.657 639.291 213.657 601.405 262.935 c 0,59,60
 585.316 283.909 585.316 283.909 579.867 309.105 c 1,61,62
 623.061 291.316 623.061 291.316 641.368 302.686 c 128,-1,63
 659.673 314.055 659.673 314.055 671.638 319.383 c 128,-1,64
 683.6 324.716 683.6 324.716 687.641 328.844 c 0,65,66
 698.828 340.28 698.828 340.28 659.359 391.243 c 2,67,-1
 592.577 475.078 l 2,68,69
 538.02 540.747 538.02 540.747 523.77 627.808 c 0,70,71
 499.641 775.233 499.641 775.233 554.474 892.47 c 2,72,-1
 572.751 931.549 l 1,73,-1
 515.842 899.164 l 1,74,-1
 473.159 906.363 l 1,75,-1
 501.615 967.526 l 1,76,-1
 503.282 1015.2 l 2,77,78
 506.008 1093.08 506.008 1093.08 536.514 1113.66 c 0,79,80
 568.907 1137.4 568.907 1137.4 594.093 1140.23 c 1,81,82
 561.168 1144.66 561.168 1144.66 539.208 1160.28 c 128,-1,83
 517.245 1175.9 517.245 1175.9 517.987 1198.01 c 128,-1,84
 518.727 1220.12 518.727 1220.12 519.29 1243.33 c 0,85,86
 520.568 1296.47 520.568 1296.47 589.202 1281.22 c 0,87,88
 616.652 1275.13 616.652 1275.13 635.448 1260.87 c 0,89,90
 659.368 1238.76 659.368 1238.76 640.33 1208.59 c 1,91,-1
 704.354 1244.57 l 1,92,93
 690.655 1279.69 690.655 1279.69 703.509 1311.94 c 0,94,95
 719.994 1352.25 719.994 1352.25 711.469 1392.09 c 1,96,97
 796.755 1357.18 796.755 1357.18 814.614 1258.96 c 1,98,99
 900.589 1371.65 900.589 1371.65 956.603 1291.71 c 0,100,101
 991.227 1242.29 991.227 1242.29 975.269 1212.9 c 128,-1,102
 959.308 1183.51 959.308 1183.51 951.816 1179.95 c 1,103,104
 971.049 1189.09 971.049 1189.09 930.575 1177.05 c 0,105,106
 869.316 1158.91 869.316 1158.91 853.743 1201.4 c 1,107,-1
 811.06 1165.41 l 1,108,109
 832.876 1113.88 832.876 1113.88 894.99 1092.21 c 128,-1,110
 957.101 1070.53 957.101 1070.53 998.789 1042.41 c 128,-1,111
 1040.48 1014.3 1040.48 1014.3 1055.7 998.896 c 128,-1,112
 1070.93 983.493 1070.93 983.493 1117.48 923.11 c 0,113,114
 1200.44 815.493 1200.44 815.493 1212.51 640.784 c 2,115,-1
 1216.54 582.548 l 1,116,-1
 1049.37 381.063 l 1,117,-1
 1063.2 466.616 l 2,118,119
 1077.03 552.167 1077.03 552.167 1073.47 672.695 c 128,-1,120
 1069.92 793.228 1069.92 793.228 1035.14 863.185 c 0,121,122
 930.323 1074.04 930.323 1074.04 736.366 1010.7 c 0,123,124
 636.073 977.95 636.073 977.95 610.23 837.538 c 0,125,126
 599.566 779.588 599.566 779.588 586.158 717.381 c 0,127,128
 560.033 590.354 560.033 590.354 626.104 528.578 c 1,129,130
 672.791 463.838 672.791 463.838 720.523 445.939 c 128,-1,131
 768.258 428.037 768.258 428.037 800.39 442.229 c 0,132,133
 867.472 471.858 867.472 471.858 886.694 531.614 c 128,-1,134
 905.914 591.372 905.914 591.372 901.736 666.202 c 128,-1,135
 897.562 741.03 897.562 741.03 885.243 762.982 c 128,-1,136
 872.923 784.934 872.923 784.934 852.598 792.298 c 128,-1,137
 832.272 799.663 832.272 799.663 802.911 813.104 c 128,-1,138
 773.545 826.548 773.545 826.548 742.455 817.875 c 128,-1,139
 711.366 809.203 711.366 809.203 679.085 814.564 c 0,140,141
 646.9 824.327 646.9 824.327 653.133 862.342 c 0,142,143
 661.464 908.104 661.464 908.104 686.569 931.549 c 1,144,145
 758.861 847.719 758.861 847.719 794.166 908.16 c 0,146,147
 809.274 934.295 809.274 934.295 814.614 963.93 c 1,148,-1
 885.754 859.589 l 1,149,-1
 946.22 784.034 l 1,150,-1
 946.555 839.354 l 2,151,152
 946.887 894.668 946.887 894.668 957.484 899.433 c 0,153,154
 980.211 909.649 980.211 909.649 1000.56 844.031 c 0,155,156
 1026.31 769.65 1026.31 769.65 1013.8 715.673 c 1,157,158
 1097.08 671.144 1097.08 671.144 1032.81 646.522 c 2,159,-1
 1006.69 636.516 l 1,160,161
 1066.42 615.507 1066.42 615.507 1063.59 589.743 c 0,162,163
 1062.17 576.787 1062.17 576.787 1035.55 564.821 c 128,-1,164
 1008.94 552.854 1008.94 552.854 991.858 537.243 c 0,165,166
 950.444 499.393 950.444 499.393 949.876 475.269 c 128,-1,167
 949.31 451.144 949.31 451.144 973.604 423.833 c 128,-1,168
 997.898 396.517 997.898 396.517 992.458 388.261 c 0,169,170
 972.342 357.735 972.342 357.735 958.983 356.657 c 128,-1,171
 945.624 355.574 945.624 355.574 927.996 376.333 c 128,-1,172
 910.364 397.093 910.364 397.093 899.979 402.653 c 1,44,45
EndSplineSet
EndChar
StartChar: E
Encoding: 69 69 40
Width: 1185
GlyphClass: 2
Flags: W
Fore
242.158 72.7861 m 1,0,-1
 262.224 121.805 l 2,1,2
 386.642 425.72 386.642 425.72 389.887 743.686 c 2,3,-1
 390.412 794.971 l 1,4,-1
 304.154 655.973 l 1,5,-1
 315.779 714.375 l 2,6,7
 337.971 825.875 337.971 825.875 308.702 934.485 c 2,8,-1
 293.372 991.38 l 1,9,-1
 390.412 849.36 l 1,10,-1
 370.701 985.665 l 2,11,12
 333.067 1245.9 333.067 1245.9 264.562 1439.77 c 2,13,-1
 228.679 1541.33 l 1,14,-1
 1050.83 1544.35 l 1,15,-1
 1061.61 1218 l 1,16,-1
 1020.31 1259.7 l 2,17,18
 979.019 1301.4 979.019 1301.4 914.326 1347.48 c 128,-1,19
 849.632 1393.56 849.632 1393.56 786.869 1405.32 c 128,-1,20
 724.106 1417.08 724.106 1417.08 643.518 1421.79 c 2,21,-1
 562.928 1426.5 l 1,22,23
 509.139 1187.24 509.139 1187.24 496.89 1057.39 c 128,-1,24
 484.64 927.548 484.64 927.548 490 825 c 0,25,26
 500.573 622.728 500.573 622.728 557.448 291.859 c 2,27,-1
 576.406 181.567 l 1,28,-1
 618.412 176.782 l 2,29,30
 660.418 171.999 660.418 171.999 732.523 181.819 c 128,-1,31
 804.629 191.641 804.629 191.641 858.012 217.542 c 128,-1,32
 911.394 243.442 911.394 243.442 960.861 283.173 c 0,33,34
 1035.55 343.161 1035.55 343.161 1096.97 418.415 c 2,35,-1
 1118.21 444.454 l 1,36,-1
 1120.91 72.7861 l 1,37,-1
 242.158 72.7861 l 1,0,-1
476.67 882.599 m 1,38,39
 498.61 869.272 498.61 869.272 525.129 863.935 c 0,40,41
 541.555 861.575 541.555 861.575 561.676 864.532 c 2,42,-1
 581.797 867.491 l 1,43,-1
 581.797 943.033 l 1,44,-1
 586.889 950.923 l 2,45,46
 591.98 958.812 591.98 958.812 601.415 966.367 c 128,-1,47
 610.85 973.922 610.85 973.922 619.535 973.249 c 0,48,49
 631.749 972.304 631.749 972.304 645.859 954.645 c 2,50,-1
 659.969 936.987 l 1,51,-1
 659.969 876.555 l 1,52,-1
 684.004 883.605 l 2,53,54
 708.039 890.656 708.039 890.656 727.582 916.339 c 128,-1,55
 747.125 942.024 747.125 942.024 738.14 979.291 c 0,56,57
 730.045 1012.87 730.045 1012.87 694.623 1036.37 c 128,-1,58
 659.202 1059.87 659.202 1059.87 622.23 1054.83 c 0,59,60
 600.065 1051.81 600.065 1051.81 579.176 1026.13 c 128,-1,61
 558.286 1000.44 558.286 1000.44 548.477 976.27 c 2,62,-1
 538.668 952.097 l 1,63,-1
 539.427 997.707 l 2,64,65
 540.185 1043.31 540.185 1043.31 549.45 1066.92 c 0,66,67
 556.039 1083.71 556.039 1083.71 568.17 1092.77 c 128,-1,68
 580.3 1101.84 580.3 1101.84 589.135 1102.51 c 2,69,-1
 597.971 1103.18 l 1,70,-1
 604.635 1114.85 l 2,71,72
 611.298 1126.51 611.298 1126.51 625.449 1137.84 c 128,-1,73
 639.602 1149.18 639.602 1149.18 654.577 1148.5 c 128,-1,74
 669.552 1147.83 669.552 1147.83 689.094 1134.99 c 128,-1,75
 708.638 1122.15 708.638 1122.15 720.692 1109.65 c 2,76,-1
 732.748 1097.14 l 1,77,-1
 744.504 1098.98 l 2,78,79
 756.26 1100.83 756.26 1100.83 773.106 1094.79 c 128,-1,80
 789.954 1088.74 789.954 1088.74 800.139 1072.96 c 0,81,82
 810.894 1050.13 810.894 1050.13 809.096 1015.88 c 128,-1,83
 807.298 981.636 807.298 981.636 799.675 950.246 c 2,84,-1
 792.051 918.859 l 1,85,-1
 806.801 933.966 l 2,86,87
 821.552 949.075 821.552 949.075 834.357 979.291 c 128,-1,88
 847.16 1009.51 847.16 1009.51 843.268 1039.73 c 0,89,90
 830.465 1139.08 830.465 1139.08 757.01 1190.81 c 0,91,92
 729.055 1207.15 729.055 1207.15 701.501 1206.48 c 128,-1,93
 673.945 1205.81 673.945 1205.81 653.479 1196.8 c 2,94,-1
 633.013 1187.79 l 1,95,-1
 636.238 1212.29 l 2,96,97
 639.465 1236.79 639.465 1236.79 628.852 1269.09 c 0,98,99
 620.007 1296 620.007 1296 598.206 1328.01 c 2,100,-1
 576.406 1360.02 l 1,101,-1
 614.774 1354.5 l 2,102,103
 653.143 1348.97 653.143 1348.97 684.311 1353.22 c 128,-1,104
 715.478 1357.47 715.478 1357.47 745.678 1372.34 c 2,105,-1
 775.877 1387.22 l 1,106,-1
 777.982 1345.95 l 2,107,108
 780.089 1304.69 780.089 1304.69 789.355 1275.42 c 0,109,110
 795.945 1254.6 795.945 1254.6 807.399 1235.72 c 128,-1,111
 818.857 1216.83 818.857 1216.83 827.018 1208.35 c 2,112,-1
 835.182 1199.87 l 1,113,-1
 836.229 1215.91 l 2,114,115
 837.276 1231.94 837.276 1231.94 845.361 1250.83 c 128,-1,116
 853.45 1269.71 853.45 1269.71 867.526 1275.42 c 0,117,118
 890.332 1286.74 890.332 1286.74 919.247 1281.18 c 128,-1,119
 948.165 1275.62 948.165 1275.62 961.873 1251.25 c 0,120,121
 970.914 1235.17 970.914 1235.17 970.358 1220.58 c 128,-1,122
 969.802 1205.99 969.802 1205.99 962.82 1194.28 c 128,-1,123
 955.838 1182.57 955.838 1182.57 948.394 1166.64 c 0,124,125
 939.127 1147.75 939.127 1147.75 920.847 1139.06 c 2,126,-1
 902.569 1130.38 l 1,127,-1
 909.055 1085.52 l 2,128,129
 915.54 1040.67 915.54 1040.67 899.875 991.38 c 0,130,131
 890.588 962.168 890.588 962.168 870.373 931.198 c 128,-1,132
 850.154 900.224 850.154 900.224 834.581 883.859 c 2,133,-1
 819.007 867.491 l 1,134,-1
 843.268 855.404 l 1,135,-1
 856.922 863.908 l 2,136,137
 870.574 872.414 870.574 872.414 893.361 893.678 c 128,-1,138
 916.149 914.939 916.149 914.939 934.421 940.456 c 0,139,140
 960.11 976.338 960.11 976.338 983.903 1030.7 c 2,141,-1
 1007.7 1085.05 l 1,142,-1
 998.589 989.363 l 2,143,144
 989.484 893.671 989.484 893.671 987.442 810.071 c 128,-1,145
 985.4 726.568 985.4 726.568 995.201 638.392 c 2,146,-1
 1005 550.213 l 1,147,-1
 976.815 604.074 l 2,148,149
 948.629 657.932 948.629 657.932 921.674 692.87 c 0,150,151
 902.506 717.715 902.506 717.715 880.209 737.952 c 128,-1,152
 857.91 758.188 857.91 758.188 845.196 766.004 c 2,153,-1
 832.486 773.818 l 1,154,-1
 668.055 785.905 l 1,155,-1
 685.281 776.556 l 2,156,157
 702.508 767.209 702.508 767.209 727.358 758.709 c 0,158,159
 748.904 751.505 748.904 751.505 759.354 755.353 c 128,-1,160
 769.806 759.198 769.806 759.198 787.009 755.016 c 128,-1,161
 804.213 750.835 804.213 750.835 827.093 731.514 c 0,162,163
 863.67 700.629 863.67 700.629 884.363 671.173 c 128,-1,164
 905.056 641.718 905.056 641.718 934.915 583.452 c 0,165,166
 965.705 523.372 965.705 523.372 973.399 499.087 c 128,-1,167
 981.092 474.804 981.092 474.804 972.654 447.477 c 0,168,169
 967.264 430.018 967.264 430.018 945.698 424.729 c 128,-1,170
 924.135 419.441 924.135 419.441 905.265 422.884 c 2,171,-1
 886.396 426.324 l 1,172,-1
 893.683 398.326 l 2,173,174
 900.97 370.328 900.97 370.328 897.18 353.804 c 0,175,176
 888.817 317.358 888.817 317.358 862.136 320.565 c 0,177,178
 852.934 321.67 852.934 321.67 842.484 341.883 c 128,-1,179
 832.037 362.096 832.037 362.096 821.702 362.869 c 128,-1,180
 811.321 363.646 811.321 363.646 800.543 344.577 c 128,-1,181
 789.764 325.511 789.764 325.511 781.269 326.609 c 0,182,183
 772.449 327.75 772.449 327.75 766.215 349.466 c 128,-1,184
 759.982 371.184 759.982 371.184 751.617 371.933 c 0,185,186
 741.088 372.879 741.088 372.879 727.483 352.767 c 2,187,-1
 713.881 332.651 l 1,188,-1
 728.106 326.021 l 2,189,190
 742.332 319.391 742.332 319.391 755.81 306.548 c 128,-1,191
 769.288 293.706 769.288 293.706 767.792 281.284 c 0,192,193
 765.059 258.623 765.059 258.623 744.199 241.763 c 128,-1,194
 723.339 224.9 723.339 224.9 700.401 232.937 c 0,195,196
 683.115 238.991 683.115 238.991 674.731 243.127 c 128,-1,197
 666.35 247.264 666.35 247.264 654.061 257.455 c 128,-1,198
 641.773 267.648 641.773 267.648 638.182 284.817 c 128,-1,199
 634.588 301.988 634.588 301.988 638.404 326.609 c 0,200,201
 642.765 354.743 642.765 354.743 670.743 378.05 c 128,-1,202
 698.721 401.355 698.721 401.355 736.881 429.458 c 128,-1,203
 775.039 457.562 775.039 457.562 794.746 489.779 c 0,204,205
 818.005 527.8 818.005 527.8 825.397 550.772 c 128,-1,206
 832.788 573.746 832.788 573.746 829.69 592.461 c 128,-1,207
 826.59 611.176 826.59 611.176 821.702 640.864 c 0,208,209
 817.511 667.724 817.511 667.724 801.335 690.387 c 128,-1,210
 785.162 713.048 785.162 713.048 771.086 722.28 c 2,211,-1
 757.01 731.514 l 1,212,-1
 773.393 698.512 l 2,213,214
 789.775 665.511 789.775 665.511 789.355 649.93 c 0,215,216
 789.056 638.85 789.056 638.85 780.294 634.317 c 128,-1,217
 771.534 629.784 771.534 629.784 762.924 630.792 c 2,218,-1
 754.312 631.799 l 1,219,-1
 766.367 615.683 l 2,220,221
 778.423 599.567 778.423 599.567 787.183 575.394 c 128,-1,222
 795.945 551.222 795.945 551.222 789.355 535.104 c 128,-1,223
 782.766 518.99 782.766 518.99 759.18 506.901 c 128,-1,224
 735.593 494.815 735.593 494.815 715.302 490.787 c 2,225,-1
 695.011 486.759 l 1,226,-1
 686.998 477.524 l 2,227,228
 678.986 468.292 678.986 468.292 663.486 459.227 c 128,-1,229
 647.987 450.161 647.987 450.161 633.013 450.498 c 0,230,231
 602.632 451.179 602.632 451.179 586.943 457.866 c 128,-1,232
 571.255 464.554 571.255 464.554 560.232 489.779 c 0,233,234
 548.103 517.542 548.103 517.542 558.211 550.496 c 2,235,-1
 568.319 583.452 l 1,236,-1
 588.984 570.188 l 2,237,238
 609.651 556.929 609.651 556.929 633.013 552.899 c 128,-1,239
 656.375 548.869 656.375 548.869 673.447 565.321 c 1,240,241
 686.625 582.443 686.625 582.443 689.993 625.504 c 128,-1,242
 693.363 668.562 693.363 668.562 690.144 703.061 c 2,243,-1
 686.925 737.559 l 1,244,-1
 654.577 758.709 l 1,245,-1
 649.187 689.211 l 1,246,-1
 638.994 674.34 l 2,247,248
 628.801 659.467 628.801 659.467 619.535 658.993 c 128,-1,249
 610.269 658.522 610.269 658.522 600.075 672.355 c 2,250,-1
 589.884 686.188 l 1,251,-1
 587.189 782.882 l 1,252,-1
 566.129 786.093 l 2,253,254
 545.069 789.304 545.069 789.304 527.886 785.905 c 0,255,256
 513.565 783.073 513.565 783.073 504.552 773.913 c 2,257,-1
 495.539 764.753 l 1,258,-1
 476.67 882.599 l 1,38,39
EndSplineSet
EndChar
StartChar: F
Encoding: 70 70 41
Width: 1094
GlyphClass: 2
Flags: W
Fore
168.565 17.6133 m 1,0,-1
 186.169 65.3545 l 2,1,2
 295.316 361.379 295.316 361.379 291.678 668.914 c 2,3,-1
 291.096 718.522 l 1,4,-1
 269.586 697.905 l 2,5,6
 228.529 658.548 228.529 658.548 192.947 588.233 c 2,7,-1
 174.308 551.402 l 1,8,-1
 181.608 626.896 l 2,9,10
 195.54 771.016 195.54 771.016 176.584 893.713 c 2,11,-1
 166.65 957.979 l 1,12,-1
 188.67 927.618 l 2,13,14
 230.695 869.662 230.695 869.662 269.077 847.41 c 2,15,-1
 289.18 835.759 l 1,16,-1
 290.988 876.085 l 2,17,18
 300.819 1095.25 300.819 1095.25 222.861 1437.32 c 2,19,-1
 187.711 1591.54 l 1,20,-1
 209.78 1578.59 l 2,21,22
 356.699 1492.33 356.699 1492.33 486.32 1591.4 c 2,23,-1
 509.347 1609 l 1,24,-1
 503.519 1560.29 l 1,25,-1
 637.62 1566.6 l 1,26,27
 634.501 1598.38 634.501 1598.38 643.831 1620.23 c 128,-1,28
 653.161 1642.09 653.161 1642.09 669.761 1641.45 c 128,-1,29
 686.361 1640.81 686.361 1640.81 695.454 1621.47 c 0,30,31
 707.251 1596.06 707.251 1596.06 706.542 1564.11 c 1,32,-1
 1041.58 1569.1 l 1,33,-1
 1043.49 1379.52 l 1,34,-1
 1047.32 1137.57 l 1,35,-1
 1022.49 1176.86 l 2,36,37
 905.423 1362.05 905.423 1362.05 794.98 1421.3 c 0,38,39
 754.297 1443.13 754.297 1443.13 732.332 1447.49 c 2,40,-1
 710.369 1451.86 l 1,41,42
 705.746 1430.43 705.746 1430.43 694.671 1415.11 c 128,-1,43
 683.596 1399.79 683.596 1399.79 671.681 1399.47 c 0,44,45
 647.448 1398.82 647.448 1398.82 640.077 1438.6 c 2,46,-1
 637.62 1451.86 l 1,47,-1
 614.107 1457.16 l 2,48,49
 565.959 1468.01 565.959 1468.01 515.061 1437.05 c 2,50,-1
 490.204 1421.93 l 1,51,-1
 475.035 1340.59 l 2,52,53
 446.081 1185.3 446.081 1185.3 433.577 965.735 c 2,54,-1
 427.024 850.724 l 1,55,-1
 456.7 842.271 l 2,56,57
 588.887 804.616 588.887 804.616 737.653 887.445 c 0,58,59
 793.65 918.625 793.65 918.625 825.718 943.289 c 2,60,-1
 857.787 967.959 l 1,61,-1
 848.064 902.911 l 2,62,63
 829.505 778.745 829.505 778.745 849.32 642.643 c 2,64,-1
 859.7 571.357 l 1,65,-1
 822.209 599.35 l 2,66,67
 709.744 683.32 709.744 683.32 620.315 718.07 c 128,-1,68
 530.886 752.819 530.886 752.819 477.041 746.896 c 2,69,-1
 423.195 740.973 l 1,70,-1
 430.434 608.382 l 2,71,72
 444.256 355.254 444.256 355.254 498.28 140.228 c 2,73,-1
 526.578 27.5908 l 1,74,-1
 467.438 33.3594 l 2,75,76
 354.549 44.3726 354.549 44.3726 232.494 26.8115 c 2,77,-1
 168.565 17.6133 l 1,0,-1
710.369 1459.34 m 1,78,-1
 834.812 1404.47 l 1,79,-1
 844.865 1389.99 l 2,80,81
 854.915 1375.51 854.915 1375.51 865.925 1342.46 c 128,-1,82
 876.933 1309.4 876.933 1309.4 878.846 1272.27 c 0,83,84
 882.669 1198.12 882.669 1198.12 878.029 1151.04 c 128,-1,85
 873.39 1103.96 873.39 1103.96 852.045 1070.23 c 0,86,87
 801.18 989.846 801.18 989.846 664.422 995.396 c 0,88,89
 646.324 996.812 646.324 996.812 626.646 996.191 c 128,-1,90
 606.97 995.573 606.97 995.573 582.994 1003.35 c 128,-1,91
 559.02 1011.12 559.02 1011.12 543.809 1027.82 c 0,92,93
 528.918 1044.17 528.918 1044.17 525.567 1072.86 c 128,-1,94
 522.217 1101.54 522.217 1101.54 526.312 1122.05 c 2,95,-1
 530.408 1142.56 l 1,96,-1
 523.229 1150.6 l 2,97,98
 516.048 1158.63 516.048 1158.63 509.825 1173.6 c 128,-1,99
 503.604 1188.57 503.604 1188.57 505.517 1202.42 c 0,100,101
 512.631 1253.91 512.631 1253.91 547.638 1267.28 c 0,102,103
 559.977 1271.99 559.977 1271.99 577.207 1266.38 c 128,-1,104
 594.437 1260.77 594.437 1260.77 605.497 1252.8 c 2,105,-1
 616.56 1244.83 l 1,106,-1
 610.549 1257.09 l 2,107,108
 604.539 1269.36 604.539 1269.36 600.231 1288.69 c 128,-1,109
 595.927 1308.02 595.927 1308.02 599.329 1322.15 c 0,110,111
 612.273 1375.91 612.273 1375.91 647.191 1372.04 c 0,112,113
 657.189 1370.93 657.189 1370.93 667.719 1355.97 c 128,-1,114
 678.25 1341 678.25 1341 683.779 1326.59 c 2,115,-1
 689.312 1312.18 l 1,116,-1
 710.311 1320.83 l 2,117,118
 731.311 1329.48 731.311 1329.48 752.489 1319.66 c 0,119,120
 777.055 1308.27 777.055 1308.27 790.547 1269.53 c 128,-1,121
 804.041 1230.78 804.041 1230.78 802.268 1189.95 c 0,122,123
 801.628 1175.27 801.628 1175.27 791.578 1157.18 c 128,-1,124
 781.525 1139.1 781.525 1139.1 771.795 1128.36 c 2,125,-1
 762.062 1117.62 l 1,126,-1
 762.805 1128.78 l 2,127,128
 763.551 1139.93 763.551 1139.93 759.722 1155.52 c 128,-1,129
 755.893 1171.11 755.893 1171.11 746.745 1179.98 c 0,130,131
 728.588 1197.58 728.588 1197.58 709.842 1204.32 c 128,-1,132
 691.096 1211.07 691.096 1211.07 679.738 1197.44 c 1,133,134
 657.754 1156.01 657.754 1156.01 683.396 1110.27 c 128,-1,135
 709.043 1064.53 709.043 1064.53 737.172 1075.21 c 0,136,137
 768.2 1087 768.2 1087 795.175 1135.68 c 128,-1,138
 822.15 1184.35 822.15 1184.35 817.583 1249.82 c 0,139,140
 814.604 1292.5 814.604 1292.5 787.801 1344.88 c 128,-1,141
 760.997 1397.26 760.997 1397.26 735.685 1428.3 c 2,142,-1
 710.369 1459.34 l 1,78,-1
551.466 758.433 m 1,143,-1
 603.158 740.973 l 1,144,-1
 604.684 670.78 l 2,145,146
 606.209 600.587 606.209 600.587 618.474 558.887 c 0,147,148
 627.195 529.231 627.195 529.231 642.99 508.029 c 128,-1,149
 658.786 486.829 658.786 486.829 670.22 480.453 c 2,150,-1
 681.654 474.08 l 1,151,-1
 676.866 490.604 l 2,152,153
 672.079 507.128 672.079 507.128 677.824 523.966 c 0,154,155
 681.37 534.363 681.37 534.363 693.792 541.21 c 128,-1,156
 706.215 548.057 706.215 548.057 712.283 563.873 c 0,157,158
 719.464 582.584 719.464 582.584 721.617 613.138 c 2,159,-1
 723.772 643.693 l 1,160,-1
 745.969 602.966 l 2,161,162
 768.165 562.236 768.165 562.236 773.55 531.448 c 0,163,164
 777.379 509.555 777.379 509.555 773.55 488.352 c 128,-1,165
 769.72 467.149 769.72 467.149 763.977 456.895 c 2,166,-1
 758.234 446.641 l 1,167,-1
 771.338 450.22 l 2,168,169
 784.444 453.798 784.444 453.798 802.152 445.692 c 128,-1,170
 819.862 437.584 819.862 437.584 829.07 414.215 c 0,171,172
 835.635 393.437 835.635 393.437 832.23 377.359 c 128,-1,173
 828.827 361.286 828.827 361.286 821.291 351.582 c 2,174,-1
 813.753 341.878 l 1,175,-1
 822.533 334.146 l 2,176,177
 831.31 326.414 831.31 326.414 843.755 307.084 c 128,-1,178
 856.198 287.752 856.198 287.752 863.529 264.554 c 0,179,180
 876.2 224.469 876.2 224.469 890.554 203.496 c 128,-1,181
 904.907 182.519 904.907 182.519 914.875 180.307 c 128,-1,182
 924.844 178.096 924.844 178.096 931.521 181.415 c 2,183,-1
 938.195 184.734 l 1,184,-1
 930.467 203.627 l 2,185,186
 922.737 222.52 922.737 222.52 922.312 243.582 c 128,-1,187
 921.889 264.646 921.889 264.646 936.282 279.52 c 0,188,189
 947.38 288.239 947.38 288.239 966.261 274.59 c 128,-1,190
 985.141 260.944 985.141 260.944 984.145 237.114 c 0,191,192
 982.97 209.049 982.97 209.049 967.638 179.471 c 128,-1,193
 952.304 149.896 952.304 149.896 930.537 142.333 c 0,194,195
 889.958 128.229 889.958 128.229 825.241 177.253 c 0,196,197
 802.764 194.277 802.764 194.277 789.747 226.777 c 128,-1,198
 776.732 259.278 776.732 259.278 765.892 267.046 c 0,199,200
 761.606 270.116 761.606 270.116 746.243 252.871 c 128,-1,201
 730.879 235.626 730.879 235.626 718.029 234.621 c 0,202,203
 705.579 233.646 705.579 233.646 691.859 247.793 c 128,-1,204
 678.139 261.941 678.139 261.941 670.165 259.565 c 0,205,206
 658.052 255.958 658.052 255.958 651.577 243.544 c 128,-1,207
 645.104 231.128 645.104 231.128 641.528 218.255 c 128,-1,208
 637.952 205.383 637.952 205.383 619.331 192.537 c 128,-1,209
 600.709 179.691 600.709 179.691 566.783 174.758 c 0,210,211
 551.27 172.501 551.27 172.501 534.997 191.208 c 128,-1,212
 518.724 209.916 518.724 209.916 510.205 229.751 c 2,213,-1
 501.688 249.586 l 1,214,-1
 532.083 242.027 l 2,215,216
 562.474 234.467 562.474 234.467 578.27 254.576 c 0,217,218
 589.472 268.84 589.472 268.84 587.304 305.398 c 128,-1,219
 585.136 341.957 585.136 341.957 591.671 361.833 c 0,220,221
 598.266 377.075 598.266 377.075 609.753 384.561 c 128,-1,222
 621.239 392.042 621.239 392.042 629.43 391.903 c 2,223,-1
 637.62 391.764 l 1,224,-1
 622.304 407.562 l 2,225,226
 606.989 423.358 606.989 423.358 586.884 459.528 c 128,-1,227
 566.783 495.694 566.783 495.694 557.211 536.438 c 0,228,229
 541.057 605.188 541.057 605.188 546.261 681.809 c 2,230,-1
 551.466 758.433 l 1,143,-1
819.496 940.52 m 1,231,-1
 752.489 873.174 l 1,232,-1
 747.597 882.112 l 2,233,234
 742.704 891.049 742.704 891.049 732.174 901.649 c 128,-1,235
 721.644 912.251 721.644 912.251 710.369 915.576 c 0,236,237
 674.595 926.131 674.595 926.131 641.448 885.645 c 0,238,239
 627.088 868.105 627.088 868.105 618.952 841.954 c 2,240,-1
 610.817 815.803 l 1,241,-1
 559.125 823.286 l 1,242,-1
 563.881 847.525 l 2,243,244
 568.639 871.77 568.639 871.77 582.1 900.61 c 0,245,246
 610.884 962.282 610.884 962.282 683.566 977.936 c 0,247,248
 717.149 985.167 717.149 985.167 751.134 975.812 c 128,-1,249
 785.115 966.459 785.115 966.459 802.306 953.489 c 2,250,-1
 819.496 940.52 l 1,231,-1
EndSplineSet
EndChar
StartChar: G
Encoding: 71 71 42
Width: 1350
GlyphClass: 2
Flags: W
Fore
1016.48 1431.81 m 1,0,-1
 1043.59 1452.76 l 2,1,2
 1070.69 1473.72 1070.69 1473.72 1093.52 1495.28 c 2,3,-1
 1183.84 1578.07 l 1,4,-1
 1171.52 1546.95 l 2,5,6
 1097.44 1359.85 1097.44 1359.85 1164.95 1103.47 c 2,7,-1
 1175.87 1062 l 1,8,-1
 1111.78 1158.59 l 2,9,10
 966.856 1377.03 966.856 1377.03 860.638 1408.66 c 2,11,-1
 838.5 1415.25 l 1,12,-1
 836.347 1385.9 l 2,13,14
 834.192 1356.55 834.192 1356.55 821.574 1327.57 c 128,-1,15
 808.956 1298.59 808.956 1298.59 790.946 1299.23 c 0,16,17
 757.846 1300.41 757.846 1300.41 756.574 1386.54 c 2,18,-1
 756.15 1415.25 l 1,19,-1
 731.521 1417.18 l 2,20,21
 603.746 1427.23 603.746 1427.23 497.072 1274.93 c 0,22,23
 455.099 1215 455.099 1215 420.788 1096 c 128,-1,24
 386.477 977 386.477 977 373.619 816.377 c 0,25,26
 365.778 666.181 365.778 666.181 389.881 548.957 c 128,-1,27
 413.982 431.731 413.982 431.731 455.923 366.775 c 128,-1,28
 497.864 301.82 497.864 301.82 548.493 258.58 c 0,29,30
 625.215 193.056 625.215 193.056 718.175 180.246 c 2,31,-1
 748.181 176.109 l 1,32,-1
 750.939 200.433 l 2,33,34
 753.699 224.755 753.699 224.755 764.989 248.212 c 128,-1,35
 776.279 271.67 776.279 271.67 794.566 269.818 c 128,-1,36
 812.854 267.967 812.854 267.967 822.151 243.129 c 128,-1,37
 831.448 218.292 831.448 218.292 830.989 194.442 c 2,38,-1
 830.53 170.592 l 1,39,40
 940.379 154.663 940.379 154.663 1012.96 232.473 c 0,41,42
 1075.21 299.217 1075.21 299.217 1069.61 457.607 c 0,43,44
 1067.23 524.949 1067.23 524.949 1040 616.713 c 128,-1,45
 1012.77 708.476 1012.77 708.476 986.735 766.567 c 2,46,-1
 960.697 824.658 l 1,47,-1
 981.433 814.002 l 2,48,49
 1081.57 762.541 1081.57 762.541 1217.15 815.984 c 2,50,-1
 1274.16 838.456 l 1,51,-1
 1252.98 781.651 l 2,52,53
 1231.8 724.846 1231.8 724.846 1212.55 627.563 c 128,-1,54
 1193.29 530.281 1193.29 530.281 1197.12 449.329 c 128,-1,55
 1200.96 368.375 1200.96 368.375 1228.85 275.923 c 128,-1,56
 1256.75 183.472 1256.75 183.472 1282.72 131.496 c 2,57,-1
 1308.7 79.5195 l 1,58,-1
 1239.09 92.6719 l 2,59,60
 1110.66 116.937 1110.66 116.937 1061.95 100.067 c 128,-1,61
 1013.24 83.1982 1013.24 83.1982 994.937 70.3193 c 2,62,-1
 976.636 57.4404 l 1,63,-1
 989.92 98.8379 l 1,64,-1
 833.187 90.5576 l 1,65,-1
 832.569 68.5635 l 2,66,67
 831.952 46.5684 831.952 46.5684 821.991 24.4893 c 128,-1,68
 812.029 2.41211 812.029 2.41211 794.125 2.24805 c 128,-1,69
 776.22 2.08398 776.22 2.08398 766.258 22.0918 c 0,70,71
 753.292 48.6109 753.292 48.6109 753.494 82.2793 c 1,72,-1
 697.357 94.1211 l 2,73,74
 535.123 128.344 535.123 128.344 412.988 217.888 c 0,75,76
 332.104 277.188 332.104 277.188 291.269 355.496 c 0,77,78
 290.949 356.108 290.949 356.108 255.089 416.77 c 128,-1,79
 219.229 477.431 219.229 477.431 200.025 519.375 c 128,-1,80
 180.821 561.319 180.821 561.319 160.665 647.059 c 128,-1,81
 140.508 732.799 140.508 732.799 142.503 821.775 c 128,-1,82
 144.499 910.751 144.499 910.751 165.399 990.996 c 128,-1,83
 186.301 1071.24 186.301 1071.24 225.687 1140.42 c 0,84,85
 355.375 1368.23 355.375 1368.23 491.387 1454.29 c 0,86,87
 602.18 1524.4 602.18 1524.4 722.488 1545.82 c 2,88,-1
 764.119 1553.23 l 1,89,-1
 766.176 1575.26 l 2,90,91
 768.232 1597.28 768.232 1597.28 777.529 1617.98 c 128,-1,92
 786.827 1638.68 786.827 1638.68 801.882 1635.93 c 128,-1,93
 816.937 1633.17 816.937 1633.17 823.578 1609.71 c 128,-1,94
 830.22 1586.26 830.22 1586.26 829.047 1564.23 c 2,95,-1
 827.875 1542.2 l 1,96,-1
 928.979 1490.06 l 1,97,-1
 1016.48 1431.81 l 1,0,-1
819.905 1337.97 m 1,98,-1
 835.844 1395.93 l 1,99,-1
 857.303 1385.92 l 2,100,101
 878.763 1375.91 878.763 1375.91 909.312 1344.87 c 128,-1,102
 939.861 1313.82 939.861 1313.82 966.602 1251.93 c 2,103,-1
 1009.73 1154.64 l 2,104,105
 1044.55 1079.43 1044.55 1079.43 1057.32 1079.05 c 0,106,107
 1064.11 1078.85 1064.11 1078.85 1085.67 1065.82 c 128,-1,108
 1107.22 1052.79 1107.22 1052.79 1123.83 1052.1 c 0,109,110
 1144.86 1050.84 1144.86 1050.84 1146.65 1064.76 c 1,111,112
 1137.78 1034.07 1137.78 1034.07 1120.82 1011.39 c 128,-1,113
 1103.85 988.71 1103.85 988.71 1088.21 987.483 c 0,114,115
 1056.92 985.032 1056.92 985.032 1018.62 1036.55 c 2,116,-1
 1005.86 1053.72 l 1,117,-1
 1011.42 1016.38 l 2,118,119
 1021.82 946.514 1021.82 946.514 985.062 887.055 c 2,120,-1
 968.668 860.535 l 1,121,-1
 947.582 884.64 l 2,122,123
 911.048 926.403 911.048 926.403 908.73 996.495 c 2,124,-1
 907.568 1031.64 l 1,125,126
 897.115 966.726 897.115 966.726 862.409 940.567 c 0,127,128
 806.009 898.06 806.009 898.06 753.494 935.049 c 0,129,130
 718.664 959.578 718.664 959.578 720.879 1030.18 c 2,131,-1
 721.616 1053.72 l 1,132,-1
 735.686 1033.63 l 2,133,134
 772.267 981.412 772.267 981.412 830.53 1004.04 c 0,135,136
 900.466 1039.61 900.466 1039.61 896.943 1150.31 c 0,137,138
 894.582 1224.51 894.582 1224.51 838.574 1309.61 c 2,139,-1
 819.905 1337.97 l 1,98,-1
976.636 808.098 m 1,140,-1
 1045.7 614.915 l 1,141,-1
 1030.8 644.735 l 2,142,143
 1015.89 674.557 1015.89 674.557 981.359 711.124 c 128,-1,144
 946.825 747.69 946.825 747.69 907.568 761.183 c 0,145,146
 779.206 794.948 779.206 794.948 692.395 736.343 c 1,147,148
 607.153 657.069 607.153 657.069 589.033 571.078 c 0,149,150
 562.788 446.512 562.788 446.512 603.234 362.019 c 0,151,152
 637.676 290.067 637.676 290.067 719.749 264.844 c 0,153,154
 848.758 225.191 848.758 225.191 922.869 352.065 c 2,155,-1
 950.072 396.893 l 2,156,157
 969.932 435.442 969.932 435.442 954.981 510.542 c 128,-1,158
 940.032 585.643 940.032 585.643 918.195 601.115 c 0,159,160
 881.257 627.29 881.257 627.29 862.864 630.071 c 128,-1,161
 844.473 632.853 844.473 632.853 819.547 616.844 c 128,-1,162
 794.621 600.835 794.621 600.835 801.429 568.878 c 128,-1,163
 808.235 536.923 808.235 536.923 823.073 533.295 c 1,164,165
 859.681 533.28 859.681 533.28 899.6 584.557 c 1,166,-1
 902.424 557.16 l 2,167,168
 910.894 474.971 910.894 474.971 882.583 416.656 c 128,-1,169
 854.273 358.341 854.273 358.341 821.15 312.764 c 2,170,-1
 788.027 267.184 l 1,171,172
 731.384 296.383 731.384 296.383 686.822 348.039 c 0,173,174
 616.031 430.1 616.031 430.1 595.603 535.593 c 2,175,-1
 588.793 570.758 l 1,176,-1
 641.922 534.881 l 1,177,-1
 663.506 535.312 l 2,178,179
 705.456 536.15 705.456 536.15 701.111 578.52 c 0,180,181
 696.689 621.623 696.689 621.623 732.312 653.522 c 2,182,-1
 750.837 670.11 l 1,183,184
 746.01 695.999 746.01 695.999 755.11 716.598 c 128,-1,185
 764.21 737.198 764.21 737.198 783.658 742.102 c 128,-1,186
 803.105 747.006 803.105 747.006 819.708 738.036 c 0,187,188
 841.321 726.208 841.321 726.208 849.126 705.987 c 1,189,-1
 875.101 692.878 l 2,190,191
 901.075 679.769 901.075 679.769 935.609 650.101 c 128,-1,192
 970.144 620.433 970.144 620.433 987.263 587.316 c 0,193,194
 1021.5 521.082 1021.5 521.082 1007.78 436.22 c 2,195,-1
 1003.2 407.932 l 1,196,197
 1066.07 349.669 1066.07 349.669 973.979 308.579 c 1,198,199
 958.27 280.878 958.27 280.878 925.623 252.628 c 128,-1,200
 892.976 224.379 892.976 224.379 871.484 217.685 c 128,-1,201
 849.992 210.991 849.992 210.991 766.9 204.655 c 128,-1,202
 683.809 198.318 683.809 198.318 636.608 231.308 c 0,203,204
 600.163 255.485 600.163 255.485 607.388 297.541 c 1,205,206
 484.585 307.144 484.585 307.144 498.473 443.808 c 1,207,208
 438.434 483.087 438.434 483.087 475.271 550.967 c 2,209,-1
 490.504 579.038 l 1,210,211
 426.126 660.677 426.126 660.677 500.257 683.089 c 2,212,-1
 530.35 692.189 l 1,213,214
 532.197 757.227 532.197 757.227 560.495 774.987 c 128,-1,215
 588.793 792.747 588.793 792.747 623.327 782.484 c 2,216,-1
 657.86 772.221 l 1,217,218
 662.903 783.831 662.903 783.831 656.84 792.899 c 128,-1,219
 650.776 801.967 650.776 801.967 636.608 802.58 c 0,220,221
 536.97 806.892 536.97 806.892 504.154 750.066 c 0,222,223
 491.858 729.822 491.858 729.822 490.504 708.746 c 1,224,-1
 477.346 735.354 l 2,225,226
 452.227 786.144 452.227 786.144 409.356 813.23 c 2,227,-1
 386.9 827.418 l 1,228,-1
 409.356 838.327 l 2,229,230
 452.226 859.154 452.226 859.154 477.346 908.959 c 2,231,-1
 490.504 935.049 l 1,232,-1
 502.499 913.401 l 2,233,234
 525.404 872.072 525.404 872.072 591.407 851.824 c 2,235,-1
 625.983 841.216 l 1,236,-1
 583.479 882.612 l 1,237,-1
 535.663 935.049 l 1,238,-1
 499.22 946.087 l 2,239,240
 418.398 970.571 418.398 970.571 495.004 1015.16 c 2,241,-1
 509.098 1023.36 l 1,242,-1
 504.781 1074.67 l 2,243,244
 494.473 1197.22 494.473 1197.22 606.576 1347.79 c 2,245,-1
 625.983 1373.85 l 1,246,-1
 612.701 1426.29 l 1,247,-1
 801.31 1453.88 l 1,248,-1
 786.491 1426.93 l 2,249,250
 758.801 1376.57 758.801 1376.57 746.082 1369.85 c 128,-1,251
 733.362 1363.12 733.362 1363.12 718.96 1357.29 c 1,252,-1
 671.143 1326.93 l 1,253,254
 671.143 1331.06 671.143 1331.06 699.793 1313.41 c 128,-1,255
 728.444 1295.76 728.444 1295.76 740.422 1285.95 c 0,256,257
 771.481 1258.96 771.481 1258.96 774.746 1199.98 c 1,258,-1
 753.716 1216.93 l 2,259,260
 732.685 1233.87 732.685 1233.87 700.143 1246.98 c 128,-1,261
 667.602 1260.09 667.602 1260.09 644.578 1252.42 c 128,-1,262
 621.556 1244.75 621.556 1244.75 602.297 1214.4 c 128,-1,263
 583.037 1184.04 583.037 1184.04 575.289 1157.52 c 2,264,-1
 567.54 1130.99 l 1,265,-1
 587.245 1136.64 l 2,266,267
 606.949 1142.29 606.949 1142.29 626.209 1127.8 c 128,-1,268
 645.469 1113.31 645.469 1113.31 644.675 1078 c 128,-1,269
 643.881 1042.69 643.881 1042.69 623.293 1035.79 c 128,-1,270
 602.705 1028.89 602.705 1028.89 582.466 1037.16 c 2,271,-1
 562.227 1045.44 l 1,272,273
 568.795 942.118 568.795 942.118 680.025 869.2 c 2,274,-1
 726.929 838.456 l 1,275,276
 702.586 850.558 702.586 850.558 683.913 873.178 c 128,-1,277
 665.239 895.797 665.239 895.797 660.518 918.489 c 0,278,279
 651.072 963.872 651.072 963.872 676.088 1022.98 c 2,280,-1
 684.426 1042.68 l 1,281,-1
 686.935 1016.69 l 2,282,283
 689.443 990.703 689.443 990.703 708.039 951.377 c 128,-1,284
 726.634 912.049 726.634 912.049 758.806 885.371 c 128,-1,285
 790.979 858.694 790.979 858.694 845.436 839.375 c 128,-1,286
 899.894 820.057 899.894 820.057 938.265 814.077 c 2,287,-1
 976.636 808.098 l 1,140,-1
EndSplineSet
EndChar
StartChar: H
Encoding: 72 72 43
Width: 1388
GlyphClass: 2
Flags: W
Fore
189.548 12.3633 m 1,0,-1
 220.809 147.297 l 2,1,2
 279.665 401.356 279.665 401.356 286.31 633.469 c 2,3,-1
 289.958 760.918 l 1,4,-1
 267.93 757.192 l 2,5,6
 245.9 753.467 245.9 753.467 222.679 767.191 c 128,-1,7
 199.46 780.913 199.46 780.913 197.266 813.063 c 128,-1,8
 195.072 845.214 195.072 845.214 218.291 860.186 c 128,-1,9
 241.512 875.156 241.512 875.156 265.734 875.426 c 2,10,-1
 289.958 875.695 l 1,11,-1
 281.014 992.188 l 2,12,13
 263.906 1215.06 263.906 1215.06 206.021 1481.56 c 2,14,-1
 174.487 1626.75 l 1,15,-1
 195.197 1618.5 l 2,16,17
 307.322 1573.84 307.322 1573.84 438.924 1613.22 c 2,18,-1
 500.817 1631.74 l 1,19,-1
 469.164 1483 l 2,20,21
 411 1209.68 411 1209.68 405.704 990.746 c 2,22,-1
 402.919 875.695 l 1,23,-1
 427.559 875.285 l 2,24,25
 452.2 874.878 452.2 874.878 477.301 860.531 c 128,-1,26
 502.404 846.185 502.404 846.185 503.341 817.89 c 128,-1,27
 504.278 789.596 504.278 789.596 477.921 774.001 c 128,-1,28
 451.562 758.405 451.562 758.405 424.731 757.165 c 2,29,-1
 397.898 755.927 l 1,30,-1
 405.977 629.335 l 2,31,32
 420.161 407.141 420.161 407.141 475.165 147.686 c 2,33,-1
 503.328 14.8574 l 1,34,-1
 451.083 28.5811 l 2,35,36
 398.838 42.3047 398.838 42.3047 350.203 42.3047 c 128,-1,37
 301.567 42.3047 301.567 42.3047 245.559 27.334 c 2,38,-1
 189.548 12.3633 l 1,0,-1
1021.68 18.6016 m 1,39,-1
 1052.94 153.537 l 2,40,41
 1111.79 407.588 1111.79 407.588 1118.44 639.706 c 2,42,-1
 1122.09 767.155 l 1,43,-1
 1100.06 763.43 l 2,44,45
 1078.03 759.705 1078.03 759.705 1054.81 773.43 c 128,-1,46
 1031.59 787.152 1031.59 787.152 1029.39 819.302 c 128,-1,47
 1027.2 851.452 1027.2 851.452 1050.42 866.423 c 128,-1,48
 1073.64 881.395 1073.64 881.395 1097.86 881.664 c 2,49,-1
 1122.09 881.934 l 1,50,-1
 1113.14 998.427 l 2,51,52
 1096.03 1221.29 1096.03 1221.29 1038.15 1487.79 c 2,53,-1
 1006.62 1632.98 l 1,54,-1
 1027.33 1624.73 l 2,55,56
 1139.44 1580.08 1139.44 1580.08 1271.05 1619.46 c 2,57,-1
 1332.95 1637.97 l 1,58,-1
 1301.29 1489.24 l 2,59,60
 1243.13 1215.9 1243.13 1215.9 1237.83 996.983 c 2,61,-1
 1235.05 881.934 l 1,62,-1
 1259.69 881.525 l 2,63,64
 1284.33 881.116 1284.33 881.116 1309.43 866.768 c 128,-1,65
 1334.53 852.421 1334.53 852.421 1335.47 824.126 c 128,-1,66
 1336.41 795.831 1336.41 795.831 1310.05 780.236 c 128,-1,67
 1283.69 764.641 1283.69 764.641 1256.86 763.402 c 2,68,-1
 1230.03 762.164 l 1,69,-1
 1238.1 635.573 l 2,70,71
 1252.29 413.357 1252.29 413.357 1307.29 153.926 c 2,72,-1
 1335.46 21.0967 l 1,73,-1
 1283.21 34.8213 l 2,74,75
 1230.97 48.543 1230.97 48.543 1189.36 48.543 c 0,76,77
 1113.16 48.543 1113.16 48.543 1044.55 26.0869 c 2,78,-1
 1021.68 18.6016 l 1,39,-1
899.944 965.522 m 1,79,80
 878.987 922.425 878.987 922.425 822.128 915.619 c 1,81,-1
 844.642 895.266 l 2,82,83
 887.624 856.413 887.624 856.413 940.186 846.143 c 2,84,-1
 967.721 840.763 l 1,85,86
 973.757 857.436 973.757 857.436 983.43 868.784 c 128,-1,87
 993.104 880.132 993.104 880.132 1000.36 878.19 c 0,88,89
 1030.32 870.172 1030.32 870.172 1032.92 824.419 c 128,-1,90
 1035.53 778.667 1035.53 778.667 1007.88 765.906 c 1,91,92
 986.535 761.637 986.535 761.637 970.231 795.85 c 1,93,-1
 948.614 790.305 l 2,94,95
 927.001 784.76 927.001 784.76 898.132 766.047 c 128,-1,96
 869.265 747.332 869.265 747.332 854.761 720.994 c 0,97,98
 793.48 609.712 793.48 609.712 821.347 555.339 c 128,-1,99
 849.213 500.967 849.213 500.967 891.198 495.015 c 128,-1,100
 933.184 489.061 933.184 489.061 956.928 542.218 c 128,-1,101
 980.673 595.375 980.673 595.375 978.787 622.69 c 128,-1,102
 976.903 650.005 976.903 650.005 964.704 659.697 c 128,-1,103
 952.505 669.387 952.505 669.387 937.694 666.844 c 0,104,105
 901.825 660.685 901.825 660.685 916.805 616.852 c 0,106,107
 936.208 560.091 936.208 560.091 905.063 548.275 c 128,-1,108
 873.918 536.458 873.918 536.458 864.398 568.129 c 128,-1,109
 854.878 599.8 854.878 599.8 860.905 640.371 c 128,-1,110
 866.935 680.941 866.935 680.941 882.528 700.858 c 128,-1,111
 898.121 720.774 898.121 720.774 943.674 716.413 c 128,-1,112
 989.229 712.051 989.229 712.051 1012.91 676.082 c 0,113,114
 1061.08 577.749 1061.08 577.749 985.725 466.76 c 2,115,-1
 965.212 436.543 l 1,116,117
 980.415 418.768 980.415 418.768 1005.38 411.592 c 0,118,119
 1016 409.197 1016 409.197 995.629 386.478 c 128,-1,120
 975.256 363.758 975.256 363.758 956.589 360.364 c 128,-1,121
 937.922 356.97 937.922 356.97 907.637 363.071 c 2,122,-1
 877.354 369.174 l 1,123,-1
 905.633 326.56 l 2,124,125
 933.91 283.946 933.91 283.946 935.088 259.385 c 2,126,-1
 935.088 199.502 l 1,127,128
 903.495 197.683 903.495 197.683 886.07 205.843 c 0,129,130
 862.971 216.522 862.971 216.522 837.189 219.463 c 1,131,-1
 855.664 195.057 l 2,132,133
 890.929 148.46 890.929 148.46 890.258 106.633 c 2,134,-1
 889.904 84.7227 l 1,135,-1
 852.25 92.208 l 1,136,-1
 819.617 107.179 l 1,137,138
 816.659 52.8149 816.659 52.8149 775.805 23.4746 c 2,139,-1
 756.861 9.86816 l 1,140,-1
 738.113 26.5547 l 2,141,142
 697.653 60.357 697.653 60.357 691.595 99.6953 c 1,143,-1
 671.909 90.5391 l 2,144,145
 652.226 81.3799 652.226 81.3799 618.798 92.208 c 1,146,147
 620.051 111.856 620.051 111.856 618.016 134.821 c 128,-1,148
 615.981 157.789 615.981 157.789 625.19 181.674 c 128,-1,149
 634.399 205.561 634.399 205.561 656.451 214.473 c 1,150,151
 644.205 217.797 644.205 217.797 619.615 217.639 c 128,-1,152
 595.022 217.479 595.022 217.479 582.009 221.866 c 128,-1,153
 568.995 226.256 568.995 226.256 568.278 254.227 c 128,-1,154
 567.562 282.198 567.562 282.198 590.002 317.889 c 128,-1,155
 612.443 353.579 612.443 353.579 629.429 367.614 c 2,156,-1
 646.412 381.648 l 1,157,-1
 618.328 377.439 l 2,158,159
 569.6 370.135 569.6 370.135 546.349 397.868 c 0,160,161
 534.591 411.522 534.591 411.522 530.939 426.563 c 1,162,163
 548.809 428.459 548.809 428.459 559.571 435.798 c 128,-1,164
 570.332 443.137 570.332 443.137 568.043 447.648 c 128,-1,165
 565.755 452.16 565.755 452.16 553.697 472.257 c 128,-1,166
 541.639 492.354 541.639 492.354 532.433 510.116 c 0,167,168
 480.11 611.039 480.11 611.039 533.754 682.627 c 0,169,170
 586.509 753.028 586.509 753.028 657.744 699.286 c 0,171,172
 694.789 671.335 694.789 671.335 690.147 630.522 c 0,173,174
 681.661 555.918 681.661 555.918 638.88 551.322 c 0,175,176
 620.176 549.312 620.176 549.312 614.719 576.04 c 128,-1,177
 609.264 602.768 609.264 602.768 623.094 631.108 c 128,-1,178
 636.924 659.448 636.924 659.448 626.605 666.517 c 2,179,-1
 616.287 673.586 l 1,180,181
 549.292 658.391 549.292 658.391 566.083 558.807 c 0,182,183
 572.039 523.5 572.039 523.5 609.4 501.568 c 128,-1,184
 646.76 479.639 646.76 479.639 679.044 491.438 c 0,185,186
 741.848 514.39 741.848 514.39 736.78 621.188 c 0,187,188
 734.601 667.091 734.601 667.091 719.766 692.67 c 128,-1,189
 704.932 718.248 704.932 718.248 675.672 746.929 c 0,190,191
 624.235 800.414 624.235 800.414 556.043 798.344 c 1,192,193
 550.301 784.005 550.301 784.005 539.866 773.115 c 0,194,195
 532.335 765.63 532.335 765.63 525.92 768.402 c 0,196,197
 498.307 780.339 498.307 780.339 498.307 825.9 c 128,-1,198
 498.307 871.462 498.307 871.462 528.429 883.182 c 0,199,200
 541.265 888.175 541.265 888.175 552.346 856.358 c 2,201,-1
 556.043 845.753 l 1,202,-1
 592.48 853.355 l 2,203,204
 676.867 868.96 676.867 868.96 684.065 908.132 c 1,205,206
 633.854 919.041 633.854 919.041 623.819 970.513 c 1,207,-1
 608.409 954.918 l 2,208,209
 524.642 870.147 524.642 870.147 527.254 970.277 c 2,210,-1
 528.429 1015.43 l 1,211,212
 515.829 1004.15 515.829 1004.15 498.098 1005.72 c 1,213,214
 487.429 1008.22 487.429 1008.22 482.929 1029.01 c 128,-1,215
 478.429 1049.81 478.429 1049.81 481.912 1095.66 c 128,-1,216
 485.396 1141.52 485.396 1141.52 509.005 1165.67 c 0,217,218
 551.859 1209.5 551.859 1209.5 639.717 1198.68 c 2,219,-1
 669.002 1195.08 l 1,220,221
 637.592 1213.45 637.592 1213.45 628.84 1284.91 c 2,222,-1
 626.329 1369.74 l 1,223,-1
 603.706 1369 l 2,224,225
 581.082 1368.26 581.082 1368.26 559.117 1386.98 c 128,-1,226
 537.153 1405.69 537.153 1405.69 538.334 1440.56 c 128,-1,227
 539.516 1475.43 539.516 1475.43 560.626 1515.7 c 128,-1,228
 581.738 1555.98 581.738 1555.98 607.112 1576.6 c 128,-1,229
 632.486 1597.21 632.486 1597.21 659.485 1601.53 c 0,230,231
 710.18 1607.4 710.18 1607.4 749.331 1576.84 c 1,232,-1
 772.389 1589.41 l 2,233,234
 832.334 1622.09 832.334 1622.09 882.373 1594.31 c 0,235,236
 968.675 1533.63 968.675 1533.63 955.17 1432.12 c 0,237,238
 952.059 1408.73 952.059 1408.73 929.466 1396.26 c 128,-1,239
 906.876 1383.78 906.876 1383.78 885.838 1383 c 2,240,-1
 864.802 1382.22 l 1,241,-1
 869.821 1284.91 l 2,242,243
 869.679 1211.19 869.679 1211.19 837.189 1200.07 c 1,244,-1
 865.986 1206.86 l 2,245,246
 894.784 1213.65 894.784 1213.65 931.811 1204.92 c 0,247,248
 1014.41 1185.44 1014.41 1185.44 1000.36 1042.87 c 0,249,250
 997.036 1012.44 997.036 1012.44 972.742 1037.88 c 1,251,252
 974.298 959.256 974.298 959.256 937.598 935.581 c 1,253,254
 912.796 925.251 912.796 925.251 899.944 965.522 c 1,79,80
EndSplineSet
EndChar
StartChar: I
Encoding: 73 73 44
Width: 807
GlyphClass: 2
Flags: W
Fore
285.038 30.5117 m 1,0,-1
 306.915 96.1016 l 2,1,2
 469.503 583.57 469.503 583.57 390.2 1062.14 c 0,3,4
 351.722 1294.36 351.722 1294.36 282.726 1510.99 c 2,5,-1
 258.853 1585.94 l 1,6,-1
 286.096 1575.01 l 2,7,8
 461.051 1504.82 461.051 1504.82 614.271 1584.49 c 2,9,-1
 642.109 1598.97 l 1,10,-1
 617.379 1483.31 l 2,11,12
 592.647 1367.66 592.647 1367.66 570.034 1168.35 c 128,-1,13
 547.419 969.037 547.419 969.037 551.652 801.71 c 128,-1,14
 555.884 634.387 555.884 634.387 588.021 440.935 c 128,-1,15
 620.155 247.484 620.155 247.484 650.177 137.696 c 2,16,-1
 680.197 27.9062 l 1,17,-1
 649.186 36.6631 l 2,18,19
 495.737 79.9951 495.737 79.9951 349.869 45.7383 c 2,20,-1
 285.038 30.5117 l 1,0,-1
549.271 1038.8 m 1,21,-1
 570.695 1169.07 l 1,22,23
 604.191 1166.42 604.191 1166.42 611.163 1182.1 c 1,24,25
 613.316 1198.59 613.316 1198.59 599.605 1215.76 c 128,-1,26
 585.893 1232.93 585.893 1232.93 544.684 1230.71 c 128,-1,27
 503.475 1228.5 503.475 1228.5 433.539 1202.39 c 128,-1,28
 363.603 1176.28 363.603 1176.28 361.213 1145.62 c 0,29,30
 355.846 1076.77 355.846 1076.77 475.476 1007.54 c 0,31,32
 560.697 958.217 560.697 958.217 572.636 948.632 c 0,33,34
 614.389 915.113 614.389 915.113 655.053 825.691 c 2,35,-1
 675.436 780.87 l 1,36,37
 701.325 793.792 701.325 793.792 730.744 783.625 c 0,38,39
 749.787 775.156 749.787 775.156 751.577 747.532 c 128,-1,40
 753.367 719.909 753.367 719.909 734.919 711.441 c 0,41,42
 705.92 701.072 705.92 701.072 677.818 713.129 c 1,43,-1
 681.522 692.936 l 2,44,45
 692.64 632.359 692.64 632.359 661.477 584.016 c 128,-1,46
 630.313 535.672 630.313 535.672 601.68 520.29 c 128,-1,47
 573.045 504.909 573.045 504.909 551.817 506.936 c 128,-1,48
 530.591 508.961 530.591 508.961 504.415 513.239 c 128,-1,49
 478.236 517.516 478.236 517.516 465.954 515.117 c 1,50,51
 460.007 507.393 460.007 507.393 426.102 509.601 c 128,-1,52
 392.196 511.809 392.196 511.809 370.288 504.647 c 128,-1,53
 348.381 497.485 348.381 497.485 330.966 482.472 c 0,54,55
 290.386 447.481 290.386 447.481 294.559 340.555 c 0,56,57
 296.713 286.023 296.713 286.023 353.741 251.698 c 128,-1,58
 410.77 217.373 410.77 217.373 480.436 210.721 c 128,-1,59
 550.101 204.069 550.101 204.069 601.479 235.461 c 128,-1,60
 652.855 266.853 652.855 266.853 648.905 310.502 c 128,-1,61
 644.955 354.152 644.955 354.152 618.75 380.098 c 0,62,63
 571.836 424.91 571.836 424.91 487.378 408.297 c 2,64,-1
 460.995 406.053 l 2,65,66
 434.611 403.81 434.611 403.81 393.549 414.882 c 128,-1,67
 352.484 425.955 352.484 425.955 319.701 455.694 c 128,-1,68
 286.918 485.434 286.918 485.434 265.449 553.114 c 128,-1,69
 243.979 620.796 243.979 620.796 222.585 648.724 c 128,-1,70
 201.192 676.651 201.192 676.651 176.792 692.284 c 0,71,72
 151.313 710.735 151.313 710.735 125.545 710.522 c 1,73,74
 244.943 752.871 244.943 752.871 269.432 917.508 c 2,75,-1
 273.135 942.404 l 1,76,-1
 284.182 883.375 l 2,77,78
 308.893 739.342 308.893 739.342 389.78 694.891 c 1,79,80
 343.171 678.631 343.171 678.631 325.71 643.056 c 0,81,82
 293.573 577.58 293.573 577.58 363.593 499.484 c 0,83,84
 385.101 475.495 385.101 475.495 439.259 474.193 c 128,-1,85
 493.414 472.89 493.414 472.89 536.816 483.582 c 2,86,-1
 580.217 494.273 l 1,87,88
 624.717 485.562 624.717 485.562 659.46 453.907 c 128,-1,89
 694.2 422.251 694.2 422.251 709.747 393.296 c 128,-1,90
 725.292 364.342 725.292 364.342 723.894 298.897 c 128,-1,91
 722.495 233.453 722.495 233.453 644.021 177.049 c 128,-1,92
 565.546 120.644 565.546 120.644 466.603 132.621 c 128,-1,93
 367.659 144.599 367.659 144.599 291.859 209.003 c 128,-1,94
 216.059 273.406 216.059 273.406 216.004 366.61 c 0,95,96
 215.925 498.45 215.925 498.45 342.169 577.647 c 0,97,98
 385.547 604.858 385.547 604.858 526.193 590.313 c 2,99,-1
 573.077 585.464 l 1,100,-1
 589.16 603.242 l 2,101,102
 630.981 649.464 630.981 649.464 606.989 732.236 c 128,-1,103
 582.995 815.009 582.995 815.009 561.691 847.309 c 128,-1,104
 540.391 879.609 540.391 879.609 516.396 893.842 c 128,-1,105
 492.405 908.075 492.405 908.075 467.5 918.5 c 0,106,107
 398.948 947.194 398.948 947.194 350.639 1008.88 c 128,-1,108
 302.33 1070.57 302.33 1070.57 291.089 1097.17 c 128,-1,109
 279.849 1123.77 279.849 1123.77 277.333 1135.98 c 128,-1,110
 274.819 1148.19 274.819 1148.19 257.844 1164.85 c 128,-1,111
 240.867 1181.52 240.867 1181.52 218.252 1184.13 c 0,112,113
 186.154 1186.65 186.154 1186.65 168.394 1174.28 c 1,114,115
 183.015 1196.25 183.015 1196.25 204.667 1211.76 c 128,-1,116
 226.318 1227.26 226.318 1227.26 242.188 1226.39 c 0,117,118
 284.611 1219.36 284.611 1219.36 318.364 1176.89 c 1,119,-1
 318.513 1197.33 l 2,120,121
 319.121 1244.27 319.121 1244.27 346.931 1265.47 c 1,122,-1
 592.119 1325.4 l 1,123,124
 694.503 1261.05 694.503 1261.05 675.436 1156.05 c 0,125,126
 667.387 1111.7 667.387 1111.7 635.845 1082.39 c 128,-1,127
 604.303 1053.08 604.303 1053.08 576.787 1045.94 c 2,128,-1
 549.271 1038.8 l 1,21,-1
EndSplineSet
EndChar
StartChar: J
Encoding: 74 74 45
Width: 806
GlyphClass: 2
Flags: W
Fore
529.267 -138.324 m 4,0,1
 564.42 6.42676 564.42 6.42676 574.386 217.095 c 132,-1,2
 584.353 427.761 584.353 427.761 580.199 759.547 c 4,3,4
 578.001 935.228 578.001 935.228 552.488 1146.14 c 132,-1,5
 526.98 1357.05 526.98 1357.05 502.571 1480.11 c 6,6,-1
 478.164 1603.18 l 5,7,-1
 520.758 1580.26 l 6,8,9
 563.352 1557.34 563.352 1557.34 599.996 1556.92 c 4,10,11
 626.056 1556.62 626.056 1556.62 656.894 1571.58 c 132,-1,12
 687.731 1586.55 687.731 1586.55 705.54 1601.67 c 6,13,-1
 723.351 1616.79 l 5,14,-1
 704.556 1489.74 l 6,15,16
 685.762 1362.68 685.762 1362.68 668.227 1148.23 c 132,-1,17
 650.692 933.786 650.692 933.786 653.214 759.004 c 4,18,19
 655.616 592.525 655.616 592.525 668.5 325.5 c 132,-1,20
 681.387 58.4727 681.387 58.4727 676.564 -78.4629 c 4,21,22
 668.005 -318.238 668.005 -318.238 545.173 -482.862 c 132,-1,23
 422.342 -647.485 422.342 -647.485 231.523 -650.66 c 4,24,25
 152.654 -651.985 152.654 -651.985 87.2734 -623.273 c 132,-1,26
 21.8906 -594.558 21.8906 -594.558 -20.3213 -553.702 c 132,-1,27
 -62.5361 -512.847 -62.5361 -512.847 -100.401 -444.036 c 132,-1,28
 -138.268 -375.227 -138.268 -375.227 -158.344 -322.318 c 132,-1,29
 -178.424 -269.41 -178.424 -269.41 -203.294 -190.633 c 4,30,31
 -219.548 -139.15 -219.548 -139.15 -236.356 -104.533 c 132,-1,32
 -253.167 -69.916 -253.167 -69.916 -269.855 -40.04 c 5,33,34
 -227.799 -72.4355 -227.799 -72.4355 -212.562 -82.9893 c 132,-1,35
 -197.325 -93.5449 -197.325 -93.5449 -175.797 -101.548 c 132,-1,36
 -154.271 -109.55 -154.271 -109.55 -129.457 -108.449 c 4,37,38
 -98.6367 -107.091 -98.6367 -107.091 -78.2129 -87.624 c 132,-1,39
 -57.7891 -68.1562 -57.7891 -68.1562 -14.0186 -1.14648 c 5,40,41
 -13.8916 -11.7812 -13.8916 -11.7812 -32.0732 -73.0869 c 132,-1,42
 -50.2578 -134.395 -50.2578 -134.395 -53.3203 -182.692 c 4,43,44
 -55.5508 -217.887 -55.5508 -217.887 -35.0928 -263.513 c 132,-1,45
 -14.6377 -309.143 -14.6377 -309.143 22.5742 -351.81 c 132,-1,46
 59.7871 -394.479 59.7871 -394.479 121.638 -421.318 c 132,-1,47
 183.49 -448.161 183.49 -448.161 254.131 -442.999 c 4,48,49
 342.429 -436.69 342.429 -436.69 419.098 -356.48 c 132,-1,50
 495.768 -276.268 495.768 -276.268 529.267 -138.324 c 4,0,1
654.147 959.819 m 5,51,-1
 667.856 1089.32 l 5,52,-1
 680.326 1090.13 l 6,53,54
 692.795 1090.94 692.795 1090.94 693.747 1102.27 c 4,55,56
 695.125 1118.67 695.125 1118.67 686.351 1135.73 c 132,-1,57
 677.579 1152.8 677.579 1152.8 661.765 1151.48 c 4,58,59
 624.849 1148.39 624.849 1148.39 580.102 1122.44 c 132,-1,60
 535.355 1096.48 535.355 1096.48 533.827 1066.01 c 4,61,62
 530.395 997.567 530.395 997.567 606.933 928.74 c 4,63,64
 661.459 879.707 661.459 879.707 669.097 870.181 c 132,-1,65
 676.734 860.656 676.734 860.656 698.317 814.782 c 4,66,67
 708.787 792.521 708.787 792.521 721.828 747.967 c 6,68,-1
 734.868 703.408 l 5,69,-1
 746.469 708.988 l 6,70,71
 758.07 714.567 758.07 714.567 770.255 706.148 c 132,-1,72
 782.438 697.731 782.438 697.731 783.606 669.739 c 4,73,74
 784.729 642.812 784.729 642.812 772.926 634.394 c 132,-1,75
 761.125 625.976 761.125 625.976 748.759 631.022 c 6,76,-1
 736.395 636.07 l 5,77,-1
 738.764 615.996 l 6,78,79
 745.559 558.463 745.559 558.463 736.127 546.784 c 4,80,81
 724.967 524.303 724.967 524.303 721.163 496.209 c 4,82,83
 701.612 449.09 701.612 449.09 679.512 437.404 c 132,-1,84
 657.412 425.721 657.412 425.721 632.677 433.551 c 132,-1,85
 607.941 441.382 607.941 441.382 600.841 439.229 c 5,86,87
 596.712 429.478 596.712 429.478 584.495 434.134 c 132,-1,88
 572.277 438.788 572.277 438.788 555.653 433.624 c 132,-1,89
 539.03 428.463 539.03 428.463 524.019 418.313 c 132,-1,90
 509.009 408.164 509.009 408.164 499.296 368.802 c 132,-1,91
 489.579 329.44 489.579 329.44 491.182 265.699 c 4,92,93
 492.562 211.491 492.562 211.491 529.047 177.368 c 132,-1,94
 565.536 143.245 565.536 143.245 613.026 136.2 c 5,95,96
 649.564 171.807 649.564 171.807 663.841 156.565 c 132,-1,97
 678.116 141.325 678.116 141.325 667.763 106.065 c 132,-1,98
 657.407 70.8066 657.407 70.8066 642.03 51.209 c 132,-1,99
 626.653 31.6084 626.653 31.6084 603.889 58.499 c 5,100,101
 537.952 70.8994 537.952 70.8994 489.456 134.923 c 132,-1,102
 440.959 198.949 440.959 198.949 440.924 291.599 c 4,103,104
 446.769 390.911 446.769 390.911 482.027 447.916 c 132,-1,105
 517.282 504.917 517.282 504.917 565.675 512.931 c 132,-1,106
 614.069 520.942 614.069 520.942 669.379 509.158 c 5,107,-1
 679.67 526.833 l 6,108,109
 689.96 544.507 689.96 544.507 694.022 582.493 c 132,-1,110
 698.084 620.48 698.084 620.48 687.655 680.102 c 4,111,112
 673.105 749.918 673.105 749.918 654.429 784.999 c 132,-1,113
 635.753 820.079 635.753 820.079 618.565 828.23 c 132,-1,114
 601.377 836.381 601.377 836.381 573.255 865.301 c 132,-1,115
 545.135 894.223 545.135 894.223 518.597 946.87 c 4,116,117
 489.331 1004.93 489.331 1004.93 483.979 1036.69 c 132,-1,118
 478.628 1068.44 478.628 1068.44 468.339 1084.14 c 4,119,120
 448.92 1113.76 448.92 1113.76 429.689 1104.13 c 6,121,-1
 410.462 1094.5 l 5,122,-1
 417.189 1107.88 l 6,123,124
 423.916 1121.26 423.916 1121.26 435.721 1134.21 c 132,-1,125
 447.522 1147.16 447.522 1147.16 457.677 1146.3 c 4,126,127
 471.956 1145.09 471.956 1145.09 489.185 1121.09 c 6,128,-1
 506.413 1097.09 l 5,129,-1
 509.461 1151.48 l 5,130,131
 512.316 1165.24 512.316 1165.24 518.502 1175.2 c 6,132,-1
 524.689 1185.15 l 5,133,-1
 681.562 1244.72 l 5,134,-1
 697.813 1227.66 l 6,135,136
 714.065 1210.59 714.065 1210.59 727.39 1168.5 c 132,-1,137
 740.716 1126.42 740.716 1126.42 734.868 1076.37 c 4,138,139
 729.718 1032.29 729.718 1032.29 709.538 1003.15 c 132,-1,140
 689.356 974.012 689.356 974.012 671.752 966.914 c 6,141,-1
 654.147 959.819 l 5,51,-1
667.947 60.0039 m 5,142,-1
 667.947 168.487 l 5,143,-1
 686.439 153.788 l 6,144,145
 704.934 139.093 704.934 139.093 728.444 110.854 c 132,-1,146
 751.952 82.6133 751.952 82.6133 775.614 26.3359 c 132,-1,147
 799.276 -29.9434 799.276 -29.9434 807.803 -98.5508 c 4,148,149
 820.73 -202.577 820.73 -202.577 816.961 -313.496 c 132,-1,150
 813.193 -424.414 813.193 -424.414 826.142 -477.243 c 5,151,152
 839.314 -566.812 839.314 -566.812 834.497 -600.415 c 132,-1,153
 829.684 -634.019 829.684 -634.019 805.26 -678.065 c 4,154,155
 802.443 -683.147 802.443 -683.147 802.174 -671.334 c 132,-1,156
 801.903 -659.521 801.903 -659.521 803.069 -638.275 c 132,-1,157
 804.238 -617.029 804.238 -617.029 805.299 -594.798 c 132,-1,158
 806.36 -572.567 806.36 -572.567 805.575 -554.908 c 132,-1,159
 804.79 -537.249 804.79 -537.249 801.244 -534.515 c 4,160,161
 795.876 -530.373 795.876 -530.373 792.438 -544.396 c 132,-1,162
 789.004 -558.42 789.004 -558.42 783.714 -585.294 c 132,-1,163
 778.424 -612.164 778.424 -612.164 770.998 -628.453 c 4,164,165
 736.651 -703.785 736.651 -703.785 677.392 -732.414 c 132,-1,166
 618.129 -761.042 618.129 -761.042 567.741 -750.975 c 132,-1,167
 517.353 -740.903 517.353 -740.903 483.93 -711.899 c 4,168,169
 432.975 -667.688 432.975 -667.688 407.063 -630.188 c 132,-1,170
 381.151 -592.687 381.151 -592.687 351.434 -515.795 c 4,171,172
 308.246 -404.048 308.246 -404.048 284.805 -375.102 c 132,-1,173
 261.365 -346.155 261.365 -346.155 214.034 -348.897 c 4,174,175
 194.819 -350.011 194.819 -350.011 178.688 -366.726 c 132,-1,176
 162.559 -383.438 162.559 -383.438 155.802 -395.881 c 132,-1,177
 149.046 -408.328 149.046 -408.328 131.522 -453.462 c 132,-1,178
 113.999 -498.597 113.999 -498.597 108.529 -511.622 c 4,179,180
 85.2178 -567.41 85.2178 -567.41 70.8486 -603.307 c 132,-1,181
 56.4775 -639.2 56.4775 -639.2 35.0977 -662.935 c 132,-1,182
 13.7158 -686.667 13.7158 -686.667 -23.9668 -703.558 c 4,183,184
 -83.002 -730.018 -83.002 -730.018 -138.973 -678.101 c 132,-1,185
 -194.944 -626.182 -194.944 -626.182 -225.159 -528.314 c 4,186,187
 -240.606 -460.628 -240.606 -460.628 -230.249 -388.307 c 132,-1,188
 -219.888 -315.982 -219.888 -315.982 -199.216 -259.422 c 6,189,-1
 -178.54 -202.862 l 5,190,-1
 -154.005 -303.001 l 5,191,-1
 -167.273 -337.076 l 6,192,193
 -180.542 -371.151 -180.542 -371.151 -186.537 -415.656 c 132,-1,194
 -192.537 -460.162 -192.537 -460.162 -180.993 -503.276 c 4,195,196
 -132.753 -640.6 -132.753 -640.6 -41.1387 -624.279 c 4,197,198
 -17.4355 -620.057 -17.4355 -620.057 -4.27734 -609.298 c 132,-1,199
 8.88184 -598.54 8.88184 -598.54 14.3535 -587.43 c 132,-1,200
 19.8242 -576.321 19.8242 -576.321 33.1377 -538.366 c 132,-1,201
 46.4521 -500.413 46.4521 -500.413 59.457 -469.897 c 4,202,203
 84.5996 -412.398 84.5996 -412.398 102.268 -368.308 c 132,-1,204
 119.937 -324.219 119.937 -324.219 146.837 -297.407 c 132,-1,205
 173.737 -270.595 173.737 -270.595 211.581 -269.621 c 4,206,207
 216.884 -269.483 216.884 -269.483 238.166 -275.078 c 132,-1,208
 259.445 -280.673 259.445 -280.673 272.006 -278.305 c 132,-1,209
 284.565 -275.933 284.565 -275.933 283.995 -259.319 c 4,210,211
 282.783 -223.967 282.783 -223.967 272.232 -197.144 c 132,-1,212
 261.681 -170.316 261.681 -170.316 248.421 -150.886 c 132,-1,213
 235.163 -131.454 235.163 -131.454 232.405 -122.713 c 4,214,215
 230.274 -115.96 230.274 -115.96 233.306 -115.526 c 132,-1,216
 236.34 -115.094 236.34 -115.094 243.058 -121.024 c 132,-1,217
 249.78 -126.959 249.78 -126.959 258.701 -137.098 c 132,-1,218
 267.617 -147.238 267.617 -147.238 277.755 -162.994 c 132,-1,219
 287.891 -178.749 287.891 -178.749 297.229 -196.509 c 132,-1,220
 306.565 -214.269 306.565 -214.269 314.649 -236.896 c 132,-1,221
 322.732 -259.521 322.732 -259.521 327.056 -282.038 c 4,222,223
 332.247 -309.1 332.247 -309.1 344.028 -341.91 c 132,-1,224
 355.809 -374.725 355.809 -374.725 369.783 -407.046 c 132,-1,225
 383.76 -439.368 383.76 -439.368 385.785 -444.863 c 4,226,227
 421.1 -540.753 421.1 -540.753 435.847 -564.074 c 132,-1,228
 450.592 -587.397 450.592 -587.397 515.825 -645.142 c 4,229,230
 577.214 -699.485 577.214 -699.485 611.284 -694.786 c 4,231,232
 615.276 -694.233 615.276 -694.233 611.614 -654.538 c 132,-1,233
 607.953 -614.845 607.953 -614.845 621.798 -601.371 c 4,234,235
 632.588 -593.165 632.588 -593.165 640.629 -609.215 c 132,-1,236
 648.67 -625.265 648.67 -625.265 653.863 -643.054 c 132,-1,237
 659.053 -660.842 659.053 -660.842 663.058 -657.224 c 4,238,239
 712.846 -612.234 712.846 -612.234 731.741 -578.384 c 4,240,241
 756.306 -534.369 756.306 -534.369 768.87 -484.973 c 132,-1,242
 781.433 -435.576 781.433 -435.576 781.733 -371.229 c 132,-1,243
 782.034 -306.879 782.034 -306.879 779.335 -266.146 c 132,-1,244
 776.635 -225.417 776.635 -225.417 768.546 -144.446 c 4,245,246
 761.456 -73.5137 761.456 -73.5137 736.306 -22.4023 c 132,-1,247
 711.157 28.708 711.157 28.708 689.554 44.3555 c 6,248,-1
 667.947 60.0039 l 5,142,-1
-63.2236 -127.758 m 5,249,-1
 -38.8018 -116.998 l 6,250,251
 -14.3809 -106.242 -14.3809 -106.242 0.571289 -86.0322 c 4,252,253
 12.123 -70.418 12.123 -70.418 17.292 -59.374 c 132,-1,254
 22.4619 -48.3311 22.4619 -48.3311 25.1533 -34.8047 c 132,-1,255
 27.8438 -21.2764 27.8438 -21.2764 32.4678 1.58887 c 4,256,257
 38.6016 30.9268 38.6016 30.9268 39.2148 66.3262 c 6,258,-1
 39.8291 101.727 l 5,259,-1
 62.5635 80.082 l 6,260,261
 85.2949 58.4385 85.2949 58.4385 110.982 55.8311 c 132,-1,262
 136.668 53.2236 136.668 53.2236 181.485 73.3018 c 6,263,-1
 226.3 93.3809 l 5,264,-1
 195.555 45.5293 l 6,265,266
 164.808 -2.32324 164.808 -2.32324 150.239 -40.1367 c 4,267,268
 139.88 -67.0254 139.88 -67.0254 135.585 -103.533 c 132,-1,269
 131.294 -140.042 131.294 -140.042 132.179 -163.107 c 6,270,-1
 133.064 -186.173 l 5,271,-1
 109.895 -172.883 l 6,272,273
 86.7197 -159.592 86.7197 -159.592 58.9121 -152.174 c 132,-1,274
 31.1045 -144.755 31.1045 -144.755 7.93164 -152.793 c 4,275,276
 -10.6055 -162.062 -10.6055 -162.062 -26.5557 -183.97 c 132,-1,277
 -42.5039 -205.875 -42.5039 -205.875 -49.1836 -223.143 c 6,278,-1
 -55.8633 -240.413 l 5,279,-1
 -63.2236 -127.758 l 5,249,-1
EndSplineSet
EndChar
StartChar: K
Encoding: 75 75 46
Width: 1319
GlyphClass: 2
Flags: W
Fore
132.966 1572.08 m 1,0,-1
 156.008 1558.02 l 2,1,2
 264.629 1491.76 264.629 1491.76 364.241 1537.54 c 0,3,4
 400.938 1554.41 400.938 1554.41 420.566 1570.47 c 2,5,-1
 440.195 1586.53 l 1,6,-1
 420.756 1482.12 l 2,7,8
 401.317 1377.72 401.317 1377.72 383.397 1187.37 c 128,-1,9
 365.476 997.027 365.476 997.027 368.51 825.154 c 128,-1,10
 371.542 653.281 371.542 653.281 396.292 456.914 c 128,-1,11
 421.042 260.544 421.042 260.544 444.272 150.114 c 2,12,-1
 467.506 39.6816 l 1,13,-1
 444.938 54.2715 l 2,14,15
 338.542 123.052 338.542 123.052 241.254 70.7354 c 0,16,17
 205.411 51.46 205.411 51.46 186.256 33.5234 c 2,18,-1
 167.103 15.5869 l 1,19,-1
 190.334 126.688 l 2,20,21
 213.565 237.789 213.565 237.789 234.9 435.363 c 128,-1,22
 256.236 632.936 256.236 632.936 252.445 805.879 c 128,-1,23
 248.65 978.823 248.65 978.823 218.781 1170.37 c 128,-1,24
 188.911 1361.92 188.911 1361.92 160.938 1467 c 2,25,-1
 132.966 1572.08 l 1,0,-1
457.264 1032.37 m 1,26,27
 492.352 1028.83 492.352 1028.83 494.814 990.109 c 0,28,29
 494.814 972.313 494.814 972.313 485.427 963.602 c 0,30,31
 474.491 952.58 474.491 952.58 457.264 955.263 c 1,32,-1
 231.962 926.351 l 1,33,34
 214.207 927.675 214.207 927.675 202.997 938.81 c 128,-1,35
 191.788 949.945 191.788 949.945 191.788 966.299 c 128,-1,36
 191.788 982.653 191.788 982.653 201.83 993.31 c 0,37,38
 214.088 1006.8 214.088 1006.8 231.962 1008.27 c 2,39,-1
 457.264 1032.37 l 1,26,27
184.193 636.547 m 128,-1,41
 183.493 658.211 183.493 658.211 196.622 669.424 c 0,42,43
 212.541 683.684 212.541 683.684 236.688 682.064 c 1,44,-1
 445.712 700.602 l 2,45,46
 467.672 700.835 467.672 700.835 481.836 688.878 c 128,-1,47
 496.001 676.922 496.001 676.922 496.984 656.947 c 128,-1,48
 497.968 636.972 497.968 636.972 487.203 625.668 c 0,49,50
 474.653 611.428 474.653 611.428 453.852 613.124 c 1,51,-1
 235.376 593.849 l 2,52,53
 212.76 590.331 212.76 590.331 198.826 602.607 c 128,-1,40
 184.893 614.883 184.893 614.883 184.193 636.547 c 128,-1,41
593.447 94.46 m 1,54,55
 538.539 81.0632 538.539 81.0632 537.531 140.067 c 2,56,-1
 536.71 165.653 l 1,57,-1
 516.451 172.049 l 2,58,59
 477.777 184.259 477.777 184.259 501.281 230.447 c 2,60,-1
 513.594 254.642 l 1,61,62
 457.287 346.803 457.287 346.803 528.599 392.996 c 2,63,-1
 557.723 411.857 l 1,64,65
 569.787 430.473 569.787 430.473 587.804 441.271 c 128,-1,66
 605.82 452.069 605.82 452.069 618.663 447.454 c 0,67,68
 651.81 430.153 651.81 430.153 673.298 370.331 c 1,69,-1
 639.215 374.131 l 2,70,71
 605.135 377.932 605.135 377.932 592.167 359.625 c 128,-1,72
 579.199 341.319 579.199 341.319 576.06 302.39 c 128,-1,73
 572.923 263.463 572.923 263.463 592.836 230.905 c 128,-1,74
 612.75 198.35 612.75 198.35 663.72 208.17 c 128,-1,75
 714.69 217.99 714.69 217.99 745.275 273.11 c 0,76,77
 796.423 365.285 796.423 365.285 761.556 548.311 c 0,78,79
 736.548 657.517 736.548 657.517 667.357 731.514 c 128,-1,80
 598.164 805.512 598.164 805.512 536.71 791.552 c 1,81,82
 438.468 740.03 438.468 740.03 471.649 711.052 c 0,83,84
 532.641 657.781 532.641 657.781 544.272 603.561 c 128,-1,85
 555.903 549.341 555.903 549.341 521.827 511.45 c 128,-1,86
 487.749 473.559 487.749 473.559 456.737 486.066 c 128,-1,87
 425.726 498.573 425.726 498.573 409.333 524.837 c 128,-1,88
 392.938 551.102 392.938 551.102 383.705 609.624 c 128,-1,89
 374.473 668.146 374.473 668.146 379.042 704.138 c 128,-1,90
 383.609 740.13 383.609 740.13 399.803 782.65 c 0,91,92
 429.174 863.689 429.174 863.689 488.378 883.511 c 1,93,94
 434.469 898.434 434.469 898.434 400.121 987.332 c 0,95,96
 370.645 1063.61 370.645 1063.61 391.716 1111.92 c 0,97,98
 425.425 1188.67 425.425 1188.67 468.627 1172.99 c 128,-1,99
 511.829 1157.31 511.829 1157.31 524.103 1073.36 c 0,100,101
 529.046 1022.25 529.046 1022.25 492.581 987.332 c 1,102,-1
 518.785 977.3 l 2,103,104
 544.991 967.269 544.991 967.269 579.165 970.438 c 128,-1,105
 613.34 973.608 613.34 973.608 650.249 1023.22 c 128,-1,106
 687.158 1072.83 687.158 1072.83 701.916 1155.07 c 128,-1,107
 716.673 1237.31 716.673 1237.31 699.815 1293.96 c 0,108,109
 674.361 1379.51 674.361 1379.51 604.88 1427.53 c 2,110,-1
 580.838 1444.15 l 1,111,-1
 592.56 1421.87 l 2,112,113
 626.435 1357.48 626.435 1357.48 600.763 1323.32 c 128,-1,114
 575.091 1289.16 575.091 1289.16 522 1281 c 0,115,116
 498.2 1277.35 498.2 1277.35 474.014 1323.12 c 128,-1,117
 449.827 1368.89 449.827 1368.89 450.554 1408.55 c 128,-1,118
 451.253 1448.1 451.253 1448.1 468.59 1466.65 c 0,119,120
 488.661 1490.15 488.661 1490.15 519.899 1482.71 c 1,121,-1
 522.859 1506.04 l 2,122,123
 525.82 1529.36 525.82 1529.36 537.903 1551.61 c 128,-1,124
 549.985 1573.86 549.985 1573.86 572.401 1571.21 c 128,-1,125
 594.816 1568.56 594.816 1568.56 611.101 1543.35 c 128,-1,126
 627.387 1518.14 627.387 1518.14 630.379 1494.49 c 2,127,-1
 633.372 1470.85 l 1,128,-1
 649.689 1487.67 l 2,129,130
 680.844 1519.79 680.844 1519.79 697.955 1458.47 c 2,131,-1
 706.92 1426.35 l 1,132,-1
 712.665 1464.59 l 2,133,134
 723.632 1537.58 723.632 1537.58 752.656 1579.44 c 2,135,-1
 767.86 1601.37 l 1,136,-1
 799.38 1550.94 l 1,137,-1
 822.494 1494.58 l 1,138,139
 852.179 1594.11 852.179 1594.11 904.086 1559.33 c 2,140,-1
 925.461 1545.01 l 1,141,142
 934.938 1568.77 934.938 1568.77 953.883 1582.82 c 128,-1,143
 972.828 1596.87 972.828 1596.87 990.15 1592.58 c 128,-1,144
 1007.47 1588.29 1007.47 1588.29 1016.4 1569.01 c 0,145,146
 1027.8 1544.85 1027.8 1544.85 1026.33 1515.34 c 1,147,-1
 1047.21 1511.77 l 2,148,149
 1068.08 1508.2 1068.08 1508.2 1091.2 1477.79 c 128,-1,150
 1114.31 1447.39 1114.31 1447.39 1119.92 1380.11 c 128,-1,151
 1125.53 1312.84 1125.53 1312.84 1086.76 1263.51 c 128,-1,152
 1047.99 1214.19 1047.99 1214.19 1014.68 1235.63 c 128,-1,153
 981.369 1257.07 981.369 1257.07 966.177 1279.15 c 128,-1,154
 950.985 1301.23 950.985 1301.23 955.233 1315.43 c 128,-1,155
 959.48 1329.64 959.48 1329.64 965.117 1343.75 c 128,-1,156
 970.756 1357.85 970.756 1357.85 975.859 1365.44 c 128,-1,157
 980.965 1373.02 980.965 1373.02 959.551 1387.52 c 0,158,159
 908.656 1421.98 908.656 1421.98 854.016 1328.46 c 0,160,161
 834.47 1295.01 834.47 1295.01 830.276 1217.18 c 128,-1,162
 826.085 1139.35 826.085 1139.35 799.54 1086.74 c 128,-1,163
 772.995 1034.13 772.995 1034.13 732.545 987.414 c 128,-1,164
 692.093 940.693 692.093 940.693 663.783 918.034 c 2,165,-1
 635.475 895.373 l 1,166,-1
 669.096 889.194 l 2,167,168
 702.717 883.015 702.717 883.015 757.353 837.777 c 128,-1,169
 811.988 792.542 811.988 792.542 852.717 716.839 c 128,-1,170
 893.445 641.137 893.445 641.137 916.784 534.184 c 2,171,-1
 960.091 334.47 l 2,172,173
 980.062 241.712 980.062 241.712 1013.72 192.349 c 0,174,175
 1045.62 151.095 1045.62 151.095 1091.91 162.326 c 128,-1,176
 1138.21 173.558 1138.21 173.558 1158.71 216.079 c 0,177,178
 1190.51 298.347 1190.51 298.347 1143.26 365.33 c 2,179,-1
 1125.09 391.095 l 1,180,181
 1150.19 401.779 1150.19 401.779 1179.2 385.725 c 128,-1,182
 1208.21 369.672 1208.21 369.672 1240.77 322.366 c 128,-1,183
 1273.34 275.06 1273.34 275.06 1268.18 248.603 c 128,-1,184
 1263.01 222.146 1263.01 222.146 1246.59 216.147 c 2,185,-1
 1230.16 210.147 l 1,186,187
 1244.73 190.798 1244.73 190.798 1244.5 160.008 c 128,-1,188
 1244.27 129.218 1244.27 129.218 1228.48 106.925 c 128,-1,189
 1212.69 84.6318 1212.69 84.6318 1180.45 91.0283 c 2,190,-1
 1148.21 97.4248 l 1,191,192
 1139.81 76.1856 1139.81 76.1856 1125.21 60.6026 c 0,193,194
 1094.7 28.0309 1094.7 28.0309 1056.17 65.583 c 2,195,-1
 1032.63 88.5273 l 1,196,197
 1021.91 62.8447 1021.91 62.8447 1001.58 44.4424 c 0,198,199
 986.869 31.834 986.869 31.834 971.138 39.3696 c 128,-1,200
 955.407 46.9053 955.407 46.9053 935.18 95.8965 c 2,201,-1
 914.954 144.887 l 1,202,-1
 906.432 120.909 l 2,203,204
 866.253 7.86949 866.253 7.86949 830.608 68.2568 c 0,205,206
 817.476 90.5039 817.476 90.5039 810.527 113.248 c 2,207,-1
 803.583 135.989 l 1,208,209
 778.469 26.2715 778.469 26.2715 721.824 68.2715 c 2,210,-1
 698.514 85.5596 l 1,211,-1
 677.304 59.6514 l 2,212,213
 642.648 17.3201 642.648 17.3201 616.444 50.9531 c 0,214,215
 601.055 71.056 601.055 71.056 593.447 94.46 c 1,54,55
EndSplineSet
EndChar
StartChar: L
Encoding: 76 76 47
Width: 1039
GlyphClass: 2
Flags: W
Fore
150.151 1482.91 m 1,0,-1
 171.062 1472.11 l 2,1,2
 269.656 1421.2 269.656 1421.2 367.537 1460.77 c 0,3,4
 403.6 1475.35 403.6 1475.35 423.385 1488.85 c 2,5,-1
 443.17 1502.35 l 1,6,-1
 417.311 1391.5 l 2,7,8
 391.453 1280.66 391.453 1280.66 364.97 1096.69 c 128,-1,9
 338.485 912.714 338.485 912.714 337.373 782.781 c 128,-1,10
 336.261 652.849 336.261 652.849 349.976 547.591 c 128,-1,11
 363.693 442.336 363.693 442.336 383.139 376.874 c 0,12,13
 420.398 251.453 420.398 251.453 436.408 230.519 c 0,14,15
 479.633 175.564 479.633 175.564 573.699 181.597 c 128,-1,16
 667.767 187.628 667.767 187.628 767.746 249.957 c 0,17,18
 889.352 325.767 889.352 325.767 959.812 477.361 c 2,19,-1
 972.859 505.435 l 1,20,-1
 961.652 469.334 l 2,21,22
 910.617 304.94 910.617 304.94 942.307 172.203 c 0,23,24
 953.577 124.996 953.577 124.996 964.346 101.393 c 2,25,-1
 975.114 77.79 l 1,26,-1
 831.14 92.1074 l 2,27,28
 511.809 123.863 511.809 123.863 217.771 80.2568 c 2,29,-1
 163.675 72.2354 l 1,30,-1
 186.966 168.116 l 2,31,32
 210.258 263.996 210.258 263.996 232.799 438.248 c 128,-1,33
 255.338 612.498 255.338 612.498 253.834 769.241 c 128,-1,34
 252.332 925.981 252.332 925.981 226.412 1104.4 c 128,-1,35
 200.49 1282.81 200.49 1282.81 175.32 1382.86 c 2,36,-1
 150.151 1482.91 l 1,0,-1
193.066 1099.62 m 2,37,38
 139.24 1099.41 139.24 1099.41 136.409 1138.83 c 0,39,40
 134.885 1160.05 134.885 1160.05 152.353 1171.86 c 0,41,42
 174.45 1187 174.45 1187 206.5 1183 c 2,43,-1
 411.614 1180.22 l 1,44,45
 437.563 1186.35 437.563 1186.35 455.62 1176.02 c 128,-1,46
 473.677 1165.68 473.677 1165.68 472.403 1142.86 c 128,-1,47
 471.129 1120.05 471.129 1120.05 455.351 1110.33 c 0,48,49
 434.063 1097.76 434.063 1097.76 409.36 1105.25 c 1,50,-1
 211.009 1099.69 l 1,51,-1
 193.066 1099.62 l 2,37,38
700.127 41.6885 m 2,52,53
 697.484 3.67211 697.484 3.67211 669.075 0.059082 c 0,54,55
 657.284 -0.514648 657.284 -0.514648 648.832 9.89844 c 0,56,57
 637.791 23.6939 637.791 23.6939 634.76 41.6885 c 1,58,-1
 634.76 316.604 l 2,59,60
 634.993 337.881 634.993 337.881 642.758 352.392 c 128,-1,61
 650.523 366.903 650.523 366.903 660.915 366.612 c 128,-1,62
 671.307 366.321 671.307 366.321 677.898 357.588 c 0,63,64
 689.56 341.118 689.56 341.118 691.109 311.051 c 2,65,-1
 700.127 41.6885 l 2,52,53
585.173 1366.28 m 1,66,67
 602.267 1322.2 602.267 1322.2 646.761 1345.64 c 0,68,69
 663.103 1354.99 663.103 1354.99 671.956 1350.22 c 128,-1,70
 680.81 1345.45 680.81 1345.45 682.401 1339.38 c 0,71,72
 696.818 1284.48 696.818 1284.48 702.38 1271.86 c 2,73,-1
 731.684 1205.22 l 1,74,-1
 708.614 1215.85 l 2,75,76
 652.812 1241.56 652.812 1241.56 639.201 1235.35 c 0,77,78
 609.184 1221.65 609.184 1221.65 588.372 1241.1 c 128,-1,79
 567.561 1260.55 567.561 1260.55 550.446 1284.26 c 2,80,-1
 533.332 1307.96 l 1,81,-1
 476.98 1238.54 l 1,82,-1
 503.403 1233.68 l 2,83,84
 529.824 1228.82 529.824 1228.82 560.253 1201.75 c 128,-1,85
 590.683 1174.67 590.683 1174.67 599.078 1128.12 c 128,-1,86
 607.473 1081.58 607.473 1081.58 586.326 1037.69 c 128,-1,87
 565.18 993.806 565.18 993.806 535.583 976.08 c 128,-1,88
 505.985 958.354 505.985 958.354 486.989 975.073 c 128,-1,89
 467.991 991.792 467.991 991.792 460.081 1018.16 c 128,-1,90
 452.171 1044.53 452.171 1044.53 463.286 1063.73 c 128,-1,91
 474.401 1082.93 474.401 1082.93 488.589 1087.3 c 1,92,93
 521.475 1091.28 521.475 1091.28 549.11 1049.71 c 1,94,-1
 555.787 1070.18 l 2,95,96
 573.151 1123.39 573.151 1123.39 553.617 1152.45 c 0,97,98
 518.086 1192.25 518.086 1192.25 489.345 1188.86 c 128,-1,99
 460.604 1185.47 460.604 1185.47 449.019 1158.67 c 128,-1,100
 437.434 1131.87 437.434 1131.87 432.468 1097.97 c 0,101,102
 420.366 1015.39 420.366 1015.39 461.203 938.633 c 0,103,104
 480.736 901.916 480.736 901.916 521.872 874.841 c 128,-1,105
 563.008 847.765 563.008 847.765 594.375 839.048 c 2,106,-1
 625.743 830.331 l 1,107,-1
 613.933 856.147 l 2,108,109
 583.219 923.265 583.219 923.265 600.95 977.509 c 0,110,111
 649.07 1087.8 649.07 1087.8 709.143 1052.49 c 0,112,113
 730.149 1040.14 730.149 1040.14 738.878 1015.3 c 128,-1,114
 747.605 990.466 747.605 990.466 743.054 968.32 c 128,-1,115
 738.501 946.175 738.501 946.175 725.691 939.061 c 128,-1,116
 712.881 931.946 712.881 931.946 701.61 946.525 c 0,117,118
 686.018 967.97 686.018 967.97 679.842 996.947 c 1,119,120
 672.915 978.883 672.915 978.883 677.379 956.289 c 0,121,122
 689.584 894.525 689.584 894.525 751.663 913.922 c 0,123,124
 786.844 924.916 786.844 924.916 803.811 866.432 c 0,125,126
 819.59 812.036 819.59 812.036 785.103 790.752 c 0,127,128
 768.684 780.528 768.684 780.528 747.46 780.349 c 1,129,-1
 762.488 761.913 l 2,130,131
 861.36 644.622 861.36 644.622 842.129 524.872 c 1,132,-1
 858.4 540.767 l 2,133,134
 874.673 556.658 874.673 556.658 891.013 552.495 c 128,-1,135
 907.355 548.328 907.355 548.328 907.495 508.211 c 128,-1,136
 907.638 468.092 907.638 468.092 890.732 459.761 c 128,-1,137
 873.828 451.43 873.828 451.43 856.851 463.159 c 2,138,-1
 839.874 474.888 l 1,139,-1
 830.93 431.889 l 2,140,141
 813.855 349.811 813.855 349.811 745.137 233.252 c 2,142,-1
 709.143 172.203 l 1,143,-1
 677.587 255.512 l 1,144,-1
 685.851 283.28 l 2,145,146
 710.644 366.591 710.644 366.591 697.892 440.66 c 128,-1,147
 685.14 514.729 685.14 514.729 630.253 530.427 c 0,148,149
 607.126 537.04 607.126 537.04 589.924 515.686 c 128,-1,150
 572.722 494.327 572.722 494.327 573.938 462.854 c 128,-1,151
 575.155 431.381 575.155 431.381 594.877 414.721 c 0,152,153
 617.976 393.705 617.976 393.705 652.793 397.134 c 1,154,-1
 544.6 344.374 l 2,155,156
 522.771 335.197 522.771 335.197 513.755 303.263 c 128,-1,157
 504.74 271.328 504.74 271.328 506.638 243.981 c 2,158,-1
 508.536 216.635 l 1,159,-1
 492.925 238.75 l 2,160,161
 446.087 305.092 446.087 305.092 430.395 379.961 c 0,162,163
 403.974 506.025 403.974 506.025 427.559 572.234 c 2,164,-1
 436.408 597.073 l 1,165,-1
 445.318 573.556 l 2,166,167
 462.33 528.656 462.33 528.656 503.008 526.175 c 2,168,-1
 524.314 524.872 l 1,169,170
 539.16 551.575 539.16 551.575 563.919 569.386 c 128,-1,171
 588.679 587.198 588.679 587.198 618.422 585.474 c 128,-1,172
 648.166 583.749 648.166 583.749 679.142 554.114 c 128,-1,173
 710.118 524.478 710.118 524.478 722.45 461.749 c 128,-1,174
 734.781 399.021 734.781 399.021 726.469 353.646 c 2,175,-1
 718.158 308.272 l 1,176,177
 787.434 386.172 787.434 386.172 787.855 519.317 c 2,178,-1
 788.031 574.857 l 1,179,180
 783.504 547.877 783.504 547.877 763.237 544.31 c 0,181,182
 734.849 535.071 734.849 535.071 724.92 560.973 c 0,183,184
 708.734 603.204 708.734 603.204 733.938 616.509 c 0,185,186
 746.264 623.018 746.264 623.018 767.147 612.82 c 2,187,-1
 788.031 602.625 l 1,188,189
 771.445 673.978 771.445 673.978 731.76 712.076 c 128,-1,190
 692.075 750.174 692.075 750.174 669.477 761.679 c 128,-1,191
 646.879 773.184 646.879 773.184 618.547 769.736 c 128,-1,192
 590.215 766.289 590.215 766.289 562.82 723.618 c 128,-1,193
 535.424 680.949 535.424 680.949 515.3 672.049 c 0,194,195
 466.07 656.964 466.07 656.964 438.663 691.487 c 1,196,197
 432.97 664.308 432.97 664.308 416.29 649.829 c 0,198,199
 404.771 641.807 404.771 641.807 386.82 655.387 c 1,200,201
 363.818 692.395 363.818 692.395 391.329 738.694 c 1,202,-1
 381.651 756.976 l 2,203,204
 356.497 804.511 356.497 804.511 384.566 833.109 c 1,205,206
 423.81 858.625 423.81 858.625 431.28 812.12 c 2,207,-1
 434.154 794.232 l 1,208,209
 451.851 806.992 451.851 806.992 472.168 803.743 c 128,-1,210
 492.484 800.493 492.484 800.493 497.356 779.971 c 128,-1,211
 502.229 759.448 502.229 759.448 491.521 742.092 c 0,212,213
 477.275 719.386 477.275 719.386 454.44 710.925 c 1,214,-1
 480.15 707.021 l 2,215,216
 524.755 700.243 524.755 700.243 548.42 748.26 c 0,217,218
 560.553 772.639 560.553 772.639 564.887 797.011 c 1,219,-1
 542.944 803.002 l 2,220,221
 479.53 820.313 479.53 820.313 443.358 877.421 c 128,-1,222
 407.187 934.529 407.187 934.529 396.367 996.677 c 128,-1,223
 385.548 1058.82 385.548 1058.82 393.065 1110.04 c 0,224,225
 406.6 1202.21 406.6 1202.21 439.523 1258.53 c 2,226,-1
 452.187 1280.19 l 1,227,-1
 535.585 1366.28 l 1,228,229
 501.707 1373.79 501.707 1373.79 504.382 1416.96 c 0,230,231
 505.224 1481.86 505.224 1481.86 447.678 1532.89 c 1,232,-1
 528.821 1527.34 l 2,233,234
 557.185 1526.93 557.185 1526.93 567.805 1513.18 c 128,-1,235
 578.425 1499.43 578.425 1499.43 580.025 1477.7 c 128,-1,236
 581.625 1455.96 581.625 1455.96 574.492 1446.07 c 128,-1,237
 567.358 1436.18 567.358 1436.18 569.393 1428.28 c 128,-1,238
 571.424 1420.39 571.424 1420.39 591.935 1402.38 c 1,239,240
 600.929 1421.77 600.929 1421.77 599.731 1461.88 c 128,-1,241
 598.533 1502 598.533 1502 609.619 1517.77 c 128,-1,242
 620.704 1533.54 620.704 1533.54 639.043 1538.82 c 128,-1,243
 657.382 1544.1 657.382 1544.1 666.005 1554.72 c 128,-1,244
 674.628 1565.35 674.628 1565.35 674.98 1593.55 c 2,245,-1
 675.332 1621.75 l 1,246,247
 724.662 1608.11 724.662 1608.11 738.444 1557.88 c 0,248,249
 758.789 1491.76 758.789 1491.76 729.428 1424.59 c 0,250,251
 714.557 1390.57 714.557 1390.57 703.719 1383.85 c 0,252,253
 701.829 1382.68 701.829 1382.68 674.572 1374.5 c 128,-1,254
 647.315 1366.32 647.315 1366.32 643.358 1368.69 c 128,-1,255
 639.402 1371.07 639.402 1371.07 634.051 1378.67 c 0,256,257
 620.496 1397.91 620.496 1397.91 599.753 1379.34 c 2,258,-1
 585.173 1366.28 l 1,66,67
EndSplineSet
EndChar
StartChar: M
Encoding: 77 77 48
Width: 1651
GlyphClass: 2
Flags: W
Fore
161.361 66.1738 m 1,0,-1
 192.977 167.983 l 2,1,2
 224.594 269.794 224.594 269.794 256.556 454.798 c 128,-1,3
 288.52 639.801 288.52 639.801 289.211 806.187 c 128,-1,4
 289.904 972.576 289.904 972.576 259.501 1161.94 c 128,-1,5
 229.097 1351.31 229.097 1351.31 198.348 1457.48 c 2,6,-1
 167.598 1563.66 l 1,7,-1
 190.726 1550.18 l 2,8,9
 213.854 1536.7 213.854 1536.7 255.17 1525.36 c 128,-1,10
 296.487 1514.01 296.487 1514.01 332.867 1518.28 c 128,-1,11
 369.246 1522.54 369.246 1522.54 409.785 1543.49 c 128,-1,12
 450.321 1564.43 450.321 1564.43 472.669 1583.24 c 2,13,-1
 495.017 1602.06 l 1,14,-1
 866.091 732.883 l 1,15,-1
 1227.81 1629.98 l 1,16,-1
 1252.5 1612.43 l 2,17,18
 1277.19 1594.88 1277.19 1594.88 1321.62 1576.56 c 128,-1,19
 1366.05 1558.23 1366.05 1558.23 1405.55 1556.68 c 128,-1,20
 1445.05 1555.12 1445.05 1555.12 1489.49 1569.96 c 128,-1,21
 1533.92 1584.79 1533.92 1584.79 1558.61 1600.41 c 2,22,-1
 1583.29 1616.02 l 1,23,-1
 1559.04 1503.93 l 2,24,25
 1534.79 1391.84 1534.79 1391.84 1511.4 1194.62 c 128,-1,26
 1488.02 997.398 1488.02 997.398 1489.75 827.134 c 128,-1,27
 1491.48 656.867 1491.48 656.867 1518.76 470.991 c 128,-1,28
 1546.05 285.113 1546.05 285.113 1572.47 184.369 c 2,29,-1
 1598.89 83.626 l 1,30,-1
 1531.31 100.97 l 2,31,32
 1381.42 139.436 1381.42 139.436 1267.48 74.6094 c 2,33,-1
 1246.52 62.6826 l 1,34,-1
 1267.57 179.813 l 2,35,36
 1288.62 296.942 1288.62 296.942 1311.23 488.928 c 128,-1,37
 1333.83 680.914 1333.83 680.914 1336.95 830.621 c 128,-1,38
 1340.07 980.332 1340.07 980.332 1324.48 1125.19 c 128,-1,39
 1308.89 1270.06 1308.89 1270.06 1291.74 1340.06 c 2,40,-1
 1274.59 1410.07 l 1,41,-1
 866.091 478.069 l 1,42,-1
 466.951 1410.07 l 1,43,-1
 452.92 1335.31 l 2,44,45
 438.888 1260.55 438.888 1260.55 427.974 1111.33 c 128,-1,46
 417.061 962.104 417.061 962.104 423.296 813.17 c 0,47,48
 435.771 515.298 435.771 515.298 501.254 181.073 c 2,49,-1
 523.08 69.6641 l 1,50,-1
 454.676 87.3896 l 2,51,52
 324.082 121.229 324.082 121.229 217.295 85.0996 c 2,53,-1
 161.361 66.1738 l 1,0,-1
519.964 83.626 m 1,54,-1
 454.479 331.462 l 1,55,-1
 464.675 313.271 l 2,56,57
 491.181 265.978 491.181 265.978 535.537 251.051 c 128,-1,58
 579.893 236.123 579.893 236.123 622.864 251.177 c 0,59,60
 705.412 280.092 705.412 280.092 700.825 422.219 c 0,61,62
 698.777 485.461 698.777 485.461 654.487 517.023 c 0,63,64
 593.982 560.123 593.982 560.123 570.302 543.294 c 128,-1,65
 546.622 526.464 546.622 526.464 542.949 508.253 c 128,-1,66
 539.276 490.042 539.276 490.042 547.491 465.165 c 128,-1,67
 555.708 440.289 555.708 440.289 566.008 422.297 c 128,-1,68
 576.311 404.306 576.311 404.306 581.097 410.827 c 128,-1,69
 585.883 417.349 585.883 417.349 579.406 445.671 c 128,-1,70
 572.93 473.995 572.93 473.995 588.408 489.634 c 128,-1,71
 603.886 505.273 603.886 505.273 620.636 494.085 c 128,-1,72
 637.386 482.895 637.386 482.895 638.608 453.479 c 128,-1,73
 639.831 424.064 639.831 424.064 624.182 392.822 c 128,-1,74
 608.532 361.579 608.532 361.579 580.032 366.788 c 128,-1,75
 551.531 371.996 551.531 371.996 522.351 407.432 c 128,-1,76
 493.171 442.866 493.171 442.866 491.668 493.435 c 128,-1,77
 490.165 544.004 490.165 544.004 511.994 573.674 c 128,-1,78
 533.822 603.343 533.822 603.343 556.516 603.537 c 2,79,-1
 579.21 603.731 l 1,80,81
 525.837 629.224 525.837 629.224 504.323 698.556 c 128,-1,82
 482.809 767.889 482.809 767.889 480.011 814.262 c 128,-1,83
 477.21 860.632 477.21 860.632 484.219 914.246 c 128,-1,84
 491.228 967.859 491.228 967.859 516.925 996.844 c 128,-1,85
 542.622 1025.83 542.622 1025.83 544.978 1047.68 c 0,86,87
 549.087 1100.11 549.087 1100.11 510.608 1123.83 c 1,88,-1
 510.559 1091.39 l 2,89,90
 510.473 1033.12 510.473 1033.12 470.335 1060.75 c 0,91,92
 451.36 1073.8 451.36 1073.8 451.36 1094.91 c 128,-1,93
 451.36 1116.01 451.36 1116.01 464.882 1138.27 c 128,-1,94
 478.404 1160.53 478.404 1160.53 501.254 1158.74 c 0,95,96
 555.358 1154.52 555.358 1154.52 572.974 1078.46 c 0,97,98
 581.239 1023.5 581.239 1023.5 544.91 970.25 c 1,99,-1
 570.928 977.121 l 2,100,101
 596.945 983.994 596.945 983.994 619.747 970.25 c 0,102,103
 663.385 943.946 663.385 943.946 654.05 886.474 c 0,104,105
 649.699 859.696 649.699 859.696 631.179 844.148 c 128,-1,106
 612.661 828.601 612.661 828.601 593.737 827.276 c 128,-1,107
 574.812 825.951 574.812 825.951 568.962 847.009 c 128,-1,108
 563.113 868.065 563.113 868.065 565.792 884.25 c 0,109,110
 572.048 915.32 572.048 915.32 607.273 921.38 c 1,111,-1
 544.91 928.359 l 1,112,-1
 533.562 906.835 l 2,113,114
 522.215 885.31 522.215 885.31 530.791 841.677 c 128,-1,115
 539.366 798.043 539.366 798.043 579.21 753.83 c 2,116,-1
 691.468 628.167 l 1,117,-1
 674.561 655.71 l 2,118,119
 642.283 708.291 642.283 708.291 672.516 790.863 c 2,120,-1
 688.35 834.113 l 1,121,-1
 709.301 792.661 l 2,122,123
 749.298 713.524 749.298 713.524 729.764 627.73 c 2,124,-1
 719.533 582.788 l 1,125,-1
 733.651 565.432 l 2,126,127
 747.771 548.076 747.771 548.076 759.465 510.551 c 128,-1,128
 771.158 473.026 771.158 473.026 766.307 432.691 c 0,129,130
 756.605 352.016 756.605 352.016 696.06 252.826 c 2,131,-1
 675.877 219.763 l 1,132,-1
 715.732 243.869 l 2,133,134
 755.587 267.977 755.587 267.977 781.897 293.065 c 0,135,136
 811.792 323.61 811.792 323.61 847.382 327.972 c 1,137,-1
 831.059 351.696 l 2,138,139
 814.737 375.423 814.737 375.423 816.199 397.783 c 0,140,141
 819.678 450.971 819.678 450.971 866.091 453.634 c 0,142,143
 904.885 455.859 904.885 455.859 912.864 397.783 c 0,144,145
 914.322 359.442 914.322 359.442 875.446 334.953 c 1,146,-1
 962.759 307.027 l 2,147,148
 996.328 297.632 996.328 297.632 1027.88 276.149 c 2,149,-1
 1059.42 254.667 l 1,150,-1
 1039.76 287.828 l 2,151,152
 1020.1 320.988 1020.1 320.988 1000.61 380.332 c 128,-1,153
 981.12 439.671 981.12 439.671 981.518 499.595 c 128,-1,154
 981.915 559.519 981.915 559.519 1018.93 628.657 c 128,-1,155
 1055.95 697.795 1055.95 697.795 1063.46 732.987 c 0,156,157
 1081.12 809.426 1081.12 809.426 1046.95 830.621 c 1,158,-1
 1075.21 817.752 l 2,159,160
 1103.47 804.88 1103.47 804.88 1109.32 785.246 c 2,161,-1
 1124.91 725.904 l 1,162,163
 1149.33 720.639 1149.33 720.639 1170.85 731.561 c 128,-1,164
 1192.37 742.483 1192.37 742.483 1209.81 778.74 c 128,-1,165
 1227.25 814.997 1227.25 814.997 1228.53 849.749 c 0,166,167
 1230.45 902.223 1230.45 902.223 1191.42 913.863 c 2,168,-1
 1177.92 917.89 l 1,169,170
 1187.86 895.736 1187.86 895.736 1184.16 865.53 c 0,171,172
 1176.63 819.798 1176.63 819.798 1134.26 823.642 c 0,173,174
 1121.23 824.825 1121.23 824.825 1118.56 829.495 c 128,-1,175
 1115.89 834.167 1115.89 834.167 1116.18 848.623 c 128,-1,176
 1116.47 863.082 1116.47 863.082 1111.69 883.779 c 128,-1,177
 1106.91 904.477 1106.91 904.477 1112.14 915.16 c 128,-1,178
 1117.38 925.847 1117.38 925.847 1137.47 943.193 c 128,-1,179
 1157.55 960.54 1157.55 960.54 1181.77 965.395 c 2,180,-1
 1205.99 970.25 l 1,181,-1
 1195.61 1038.32 l 2,182,183
 1179.22 1145.8 1179.22 1145.8 1211.3 1179.67 c 0,184,185
 1222.89 1191.91 1222.89 1191.91 1231.33 1193.08 c 128,-1,186
 1239.77 1194.25 1239.77 1194.25 1259.13 1193.65 c 128,-1,187
 1278.5 1193.04 1278.5 1193.04 1290.81 1176.16 c 128,-1,188
 1303.12 1159.28 1303.12 1159.28 1305.59 1139.24 c 128,-1,189
 1308.06 1119.21 1308.06 1119.21 1297.25 1105.48 c 0,190,191
 1272 1073.44 1272 1073.44 1243.55 1117.13 c 2,192,-1
 1227.81 1141.29 l 1,193,-1
 1218.8 1117.46 l 2,194,195
 1200.74 1069.7 1200.74 1069.7 1218.05 1044.09 c 128,-1,196
 1235.35 1018.49 1235.35 1018.49 1241.49 987.041 c 128,-1,197
 1247.62 955.594 1247.62 955.594 1257.65 924.447 c 128,-1,198
 1267.68 893.301 1267.68 893.301 1272.64 875.674 c 0,199,200
 1302.12 770.732 1302.12 770.732 1227.29 688.962 c 0,201,202
 1194.55 653.184 1194.55 653.184 1167.52 637.184 c 2,203,-1
 1140.5 621.186 l 1,204,205
 1172.65 617.479 1172.65 617.479 1197.81 599.745 c 128,-1,206
 1222.96 582.012 1222.96 582.012 1230.93 558.354 c 0,207,208
 1261.93 466.321 1261.93 466.321 1206.93 402.075 c 128,-1,209
 1151.93 337.829 1151.93 337.829 1099.96 383.822 c 0,210,211
 1061.18 418.146 1061.18 418.146 1084.37 492.03 c 0,212,213
 1092 516.348 1092 516.348 1112.43 524.102 c 128,-1,214
 1132.87 531.854 1132.87 531.854 1139.43 515.56 c 128,-1,215
 1145.99 499.265 1145.99 499.265 1129.43 463.059 c 128,-1,216
 1112.88 426.854 1112.88 426.854 1121.48 425.155 c 128,-1,217
 1130.08 423.457 1130.08 423.457 1146.11 425.84 c 128,-1,218
 1162.14 428.224 1162.14 428.224 1179.32 447.377 c 128,-1,219
 1196.49 466.53 1196.49 466.53 1193.47 502.999 c 128,-1,220
 1190.45 539.467 1190.45 539.467 1146.56 556.268 c 128,-1,221
 1102.66 573.066 1102.66 573.066 1078.13 547.881 c 0,222,223
 1019.65 488.646 1019.65 488.646 1067.33 356.607 c 128,-1,224
 1115.01 224.568 1115.01 224.568 1196.63 219.763 c 0,225,226
 1222.96 218.21 1222.96 218.21 1247.91 246.136 c 128,-1,227
 1272.85 274.062 1272.85 274.062 1284.63 302.762 c 2,228,-1
 1296.41 331.462 l 1,229,-1
 1262.11 80.1348 l 1,230,-1
 981.467 104.57 l 1,231,-1
 997.595 74.1904 l 2,232,233
 1028.65 15.6863 1028.65 15.6863 967.435 13.377 c 0,234,235
 938.237 12.2754 938.237 12.2754 919.104 34.7578 c 0,236,237
 877.527 90.3086 877.527 90.3086 925.338 153.438 c 0,238,239
 938.85 171.279 938.85 171.279 971.592 179.134 c 128,-1,240
 1004.33 186.986 1004.33 186.986 1030.32 185.922 c 2,241,-1
 1056.3 184.854 l 1,242,243
 953.117 272.382 953.117 272.382 878.411 269.683 c 128,-1,244
 803.705 266.984 803.705 266.984 732.004 177.873 c 1,245,-1
 755.565 171.668 l 2,246,247
 779.126 165.462 779.126 165.462 805.631 149.755 c 128,-1,248
 832.136 134.047 832.136 134.047 840.323 107.633 c 128,-1,249
 848.511 81.2188 848.511 81.2188 833.181 46.4736 c 128,-1,250
 817.852 11.7305 817.852 11.7305 790.519 7.65283 c 128,-1,251
 763.187 3.5752 763.187 3.5752 748.375 22.7734 c 128,-1,252
 733.563 41.9717 733.563 41.9717 729.666 62.7988 c 2,253,-1
 725.769 83.626 l 1,254,-1
 519.964 83.626 l 1,54,-1
495.017 1570.64 m 1,255,-1
 560.841 1569.22 l 2,256,257
 626.665 1567.8 626.665 1567.8 660.286 1560.17 c 1,258,259
 728.006 1518.04 728.006 1518.04 744.721 1437.06 c 0,260,261
 750.535 1408.9 750.535 1408.9 781.29 1379.52 c 128,-1,262
 812.047 1350.14 812.047 1350.14 872.329 1333.28 c 1,263,264
 930.001 1339.64 930.001 1339.64 960.134 1368.34 c 128,-1,265
 990.269 1397.04 990.269 1397.04 996.682 1430.64 c 0,266,267
 1015.92 1531.43 1015.92 1531.43 1071.9 1574.13 c 1,268,269
 1099.18 1587.76 1099.18 1587.76 1161.94 1587.93 c 2,270,-1
 1224.69 1588.09 l 1,271,-1
 1193.51 1514.79 l 1,272,273
 1188.25 1539.6 1188.25 1539.6 1178.06 1556.67 c 128,-1,274
 1167.87 1573.74 1167.87 1573.74 1159.21 1570.64 c 1,275,-1
 1112.97 1540.49 l 2,276,277
 1082.78 1520.71 1082.78 1520.71 1053.4 1459.92 c 128,-1,278
 1024.03 1399.13 1024.03 1399.13 1009.68 1373.13 c 0,279,280
 969.852 1300.97 969.852 1300.97 887.919 1246.01 c 1,281,-1
 899.439 1228.55 l 2,282,283
 962.578 1132.91 962.578 1132.91 893.766 953.015 c 2,284,-1
 862.973 872.512 l 1,285,-1
 832.667 946.961 l 2,286,287
 779.227 1078.23 779.227 1078.23 807.276 1166.89 c 0,288,289
 820.53 1208.78 820.53 1208.78 835.516 1229.14 c 2,290,-1
 850.5 1249.5 l 1,291,-1
 792.443 1309.75 l 2,292,293
 734.385 1370 734.385 1370 716.81 1396.56 c 128,-1,294
 699.235 1423.11 699.235 1423.11 681.459 1459.05 c 128,-1,295
 663.685 1494.99 663.685 1494.99 651.979 1513.54 c 128,-1,296
 640.273 1532.09 640.273 1532.09 614.619 1544.9 c 128,-1,297
 588.964 1557.72 588.964 1557.72 554.264 1549.7 c 1,298,299
 542.084 1544.24 542.084 1544.24 541.938 1512.06 c 2,300,-1
 541.79 1479.88 l 1,301,-1
 495.017 1570.64 l 1,255,-1
EndSplineSet
EndChar
StartChar: N
Encoding: 78 78 49
Width: 1384
GlyphClass: 2
Flags: W
Fore
183.24 39.2383 m 1,0,-1
 212.104 143.471 l 2,1,2
 240.968 247.704 240.968 247.704 269.997 434.713 c 128,-1,3
 299.026 621.722 299.026 621.722 299.357 787.273 c 128,-1,4
 299.688 952.825 299.688 952.825 271.402 1138.31 c 128,-1,5
 243.117 1323.79 243.117 1323.79 214.667 1426.5 c 2,6,-1
 186.217 1529.2 l 1,7,-1
 208.713 1516.65 l 2,8,9
 231.208 1504.1 231.208 1504.1 272.892 1493.41 c 128,-1,10
 314.574 1482.73 314.574 1482.73 352.949 1486.46 c 128,-1,11
 391.322 1490.19 391.322 1490.19 435.983 1509.27 c 128,-1,12
 480.644 1528.35 480.644 1528.35 506.117 1545.57 c 2,13,-1
 531.589 1562.79 l 1,14,-1
 1013.92 280.442 l 1,15,-1
 1030.71 345.323 l 2,16,17
 1047.5 410.204 1047.5 410.204 1061.64 545.308 c 128,-1,18
 1075.78 680.412 1075.78 680.412 1070.49 820.858 c 128,-1,19
 1065.19 961.307 1065.19 961.307 1039.14 1142.21 c 128,-1,20
 1013.09 1323.11 1013.09 1323.11 989.684 1433.79 c 2,21,-1
 966.279 1544.47 l 1,22,-1
 990.263 1533.27 l 2,23,24
 1014.25 1522.08 1014.25 1522.08 1057.42 1511.39 c 128,-1,25
 1100.59 1500.7 1100.59 1500.7 1138.97 1501.72 c 128,-1,26
 1177.34 1502.74 1177.34 1502.74 1220.51 1515.72 c 128,-1,27
 1263.68 1528.69 1263.68 1528.69 1287.67 1541.16 c 2,28,-1
 1311.65 1553.63 l 1,29,-1
 1287.25 1452.7 l 2,30,31
 1262.85 1351.78 1262.85 1351.78 1238.29 1167.06 c 128,-1,32
 1213.73 982.339 1213.73 982.339 1213.4 814.752 c 128,-1,33
 1213.07 647.165 1213.07 647.165 1236.89 454.813 c 128,-1,34
 1260.7 262.462 1260.7 262.462 1284.69 153.903 c 2,35,-1
 1308.67 45.3447 l 1,36,-1
 1282.7 56.625 l 2,37,38
 1256.73 67.9043 1256.73 67.9043 1213.56 79.3545 c 128,-1,39
 1170.39 90.8037 1170.39 90.8037 1135.99 91.1436 c 128,-1,40
 1101.58 91.4824 1101.58 91.4824 1067.34 80.7959 c 128,-1,41
 1033.1 70.1104 1033.1 70.1104 1016.07 59.2549 c 2,42,-1
 999.031 48.3994 l 1,43,-1
 486.929 1355.17 l 1,44,-1
 469.974 1288 l 2,45,46
 453.021 1220.83 453.021 1220.83 438.878 1080.38 c 128,-1,47
 424.736 939.935 424.736 939.935 430.359 793.381 c 128,-1,48
 435.983 646.826 435.983 646.826 462.779 457.527 c 128,-1,49
 489.575 268.228 489.575 268.228 513.56 152.207 c 2,50,-1
 537.545 36.1855 l 1,51,-1
 511.079 49.7549 l 2,52,53
 484.613 63.3252 484.613 63.3252 438.465 77.0645 c 128,-1,54
 392.315 90.8047 392.315 90.8047 352.949 91.1436 c 128,-1,55
 313.582 91.4824 313.582 91.4824 271.155 78.5068 c 128,-1,56
 228.729 65.5293 228.729 65.5293 205.984 52.3848 c 2,57,-1
 183.24 39.2383 l 1,0,-1
680.456 1159.77 m 1,58,-1
 705.717 1205.75 l 2,59,60
 730.977 1251.74 730.977 1251.74 737.024 1288 c 0,61,62
 741.325 1313.78 741.325 1313.78 736.858 1339.73 c 128,-1,63
 732.394 1365.69 732.394 1365.69 725.777 1378.75 c 2,64,-1
 719.161 1391.81 l 1,65,-1
 709.153 1376.71 l 2,66,67
 699.146 1361.62 699.146 1361.62 682.026 1349.4 c 128,-1,68
 664.907 1337.19 664.907 1337.19 650.682 1342.96 c 0,69,70
 594.839 1365.6 594.839 1365.6 609 1431.5 c 0,71,72
 611.964 1448.37 611.964 1448.37 615.327 1462.21 c 128,-1,73
 618.69 1476.05 618.69 1476.05 623.328 1485.98 c 128,-1,74
 627.965 1495.91 627.965 1495.91 638.308 1501.59 c 128,-1,75
 648.649 1507.28 648.649 1507.28 665.568 1507.83 c 0,76,77
 742.871 1510.34 742.871 1510.34 778.707 1449.82 c 0,78,79
 797.688 1417.76 797.688 1417.76 794.152 1384.94 c 2,80,-1
 790.616 1352.12 l 1,81,-1
 801.224 1392.38 l 2,82,83
 811.83 1432.64 811.83 1432.64 799.549 1468.14 c 0,84,85
 792.271 1489.17 792.271 1489.17 773.662 1507.49 c 128,-1,86
 755.055 1525.81 755.055 1525.81 740.085 1533.61 c 2,87,-1
 725.116 1541.41 l 1,88,-1
 741.988 1543.96 l 2,89,90
 758.859 1546.5 758.859 1546.5 779.7 1558.71 c 128,-1,91
 800.541 1570.93 800.541 1570.93 808.479 1590.26 c 0,92,93
 821.88 1622.9 821.88 1622.9 809.226 1669.17 c 2,94,-1
 796.572 1715.45 l 1,95,-1
 820.722 1694.33 l 2,96,97
 844.871 1673.21 844.871 1673.21 871.667 1634.28 c 128,-1,98
 898.462 1595.36 898.462 1595.36 903.755 1559.73 c 0,99,100
 908.827 1525.6 908.827 1525.6 923.715 1499.64 c 128,-1,101
 938.602 1473.69 938.602 1473.69 950.952 1464.81 c 2,102,-1
 963.303 1455.92 l 1,103,-1
 936.32 1444.43 l 2,104,105
 909.338 1432.93 909.338 1432.93 888.869 1416.23 c 128,-1,106
 868.399 1399.54 868.399 1399.54 850.349 1374.3 c 2,107,-1
 832.299 1349.06 l 1,108,-1
 852.708 1352.94 l 2,109,110
 873.116 1356.81 873.116 1356.81 899.82 1354.14 c 128,-1,111
 926.524 1351.47 926.524 1351.47 955.615 1326.63 c 128,-1,112
 984.706 1301.79 984.706 1301.79 999.031 1254.41 c 0,113,114
 1020.68 1182.82 1020.68 1182.82 995.972 1147.23 c 128,-1,115
 971.267 1111.64 971.267 1111.64 930.552 1104.81 c 0,116,117
 903.917 1100.34 903.917 1100.34 885.4 1119.03 c 128,-1,118
 866.886 1137.72 866.886 1137.72 865.051 1162.82 c 0,119,120
 864.059 1176.39 864.059 1176.39 878.2 1192.42 c 128,-1,121
 892.343 1208.45 892.343 1208.45 906.981 1217.69 c 2,122,-1
 921.62 1226.93 l 1,123,-1
 916.161 1243.98 l 2,124,125
 910.703 1261.03 910.703 1261.03 897.304 1275.53 c 128,-1,126
 883.906 1290.04 883.906 1290.04 868.027 1284.95 c 0,127,128
 855.256 1280.85 855.256 1280.85 843.29 1270.87 c 128,-1,129
 831.324 1260.89 831.324 1260.89 821.413 1247.35 c 128,-1,130
 811.503 1233.81 811.503 1233.81 800.514 1216.68 c 128,-1,131
 789.524 1199.54 789.524 1199.54 778.707 1181.14 c 0,132,133
 759.634 1150.13 759.634 1150.13 752.795 1118.31 c 2,134,-1
 745.957 1086.49 l 1,135,-1
 761.009 1079.7 l 2,136,137
 776.06 1072.92 776.06 1072.92 799.88 1053.07 c 128,-1,138
 823.697 1033.23 823.697 1033.23 841.23 1007.1 c 0,139,140
 861.008 977.64 861.008 977.64 873.659 924.793 c 128,-1,141
 886.31 871.945 886.31 871.945 903.755 851.391 c 0,142,143
 919.303 833.072 919.303 833.072 936.424 830.019 c 128,-1,144
 953.543 826.966 953.543 826.966 962.888 833.072 c 2,145,-1
 972.233 839.179 l 1,146,-1
 962.145 848.677 l 2,147,148
 952.054 858.176 952.054 858.176 941.634 874.969 c 128,-1,149
 931.213 891.762 931.213 891.762 930.552 906.35 c 0,150,151
 929.462 930.381 929.462 930.381 945.562 945.145 c 128,-1,152
 961.659 959.906 961.659 959.906 981.166 955.199 c 0,153,154
 998.979 950.902 998.979 950.902 1004.92 938.228 c 128,-1,155
 1010.85 925.553 1010.85 925.553 1013.92 894.136 c 0,156,157
 1016.24 870.282 1016.24 870.282 1003.17 845.57 c 2,158,-1
 990.099 820.858 l 1,159,-1
 1009.92 795.622 l 2,160,161
 1029.73 770.386 1029.73 770.386 1028.8 753.688 c 0,162,163
 1028.14 741.816 1028.14 741.816 1016.98 731.893 c 128,-1,164
 1005.81 721.97 1005.81 721.97 994.978 717.983 c 2,165,-1
 984.144 713.997 l 1,166,-1
 1000.19 690.42 l 2,167,168
 1016.23 666.842 1016.23 666.842 1031.12 631.73 c 128,-1,169
 1046 596.618 1046 596.618 1043.69 573.549 c 0,170,171
 1039.97 536.453 1039.97 536.453 1014.42 520.2 c 128,-1,172
 988.882 503.948 988.882 503.948 963.303 515.538 c 0,173,174
 942.01 525.187 942.01 525.187 937.157 557.615 c 128,-1,175
 932.306 590.044 932.306 590.044 939.483 607.134 c 1,176,177
 943.95 625.454 943.95 625.454 965.535 614.768 c 2,178,-1
 987.12 604.081 l 1,179,-1
 989.724 612.053 l 2,180,181
 992.325 620.023 992.325 620.023 964.041 657.426 c 128,-1,182
 935.757 694.828 935.757 694.828 873.983 753.688 c 0,183,184
 856.981 769.888 856.981 769.888 842.095 824.082 c 128,-1,185
 827.208 878.276 827.208 878.276 820.821 924.372 c 2,186,-1
 814.436 970.466 l 1,187,-1
 806.91 945.701 l 2,188,189
 799.383 920.936 799.383 920.936 780.774 890.404 c 128,-1,190
 762.167 859.873 762.167 859.873 740.001 848.339 c 0,191,192
 713.206 837.481 713.206 837.481 685.417 841.553 c 128,-1,193
 657.629 845.623 657.629 845.623 636.291 856.141 c 2,194,-1
 614.953 866.657 l 1,195,-1
 606.905 820.859 l 2,196,197
 598.858 775.062 598.858 775.062 603.044 744.53 c 0,198,199
 606.022 722.817 606.022 722.817 615.698 704.498 c 128,-1,200
 625.375 686.179 625.375 686.179 633.562 678.715 c 2,201,-1
 641.751 671.251 l 1,202,-1
 638.215 697.203 l 2,203,204
 634.679 723.156 634.679 723.156 644.727 750.634 c 0,205,206
 653.102 773.534 653.102 773.534 674.222 795.67 c 2,207,-1
 695.343 817.806 l 1,208,-1
 706.136 778.114 l 2,209,210
 716.929 738.422 716.929 738.422 692.364 701.783 c 0,211,212
 673.347 673.416 673.347 673.416 678.39 654.016 c 2,213,-1
 683.433 634.614 l 1,214,-1
 805.503 543.017 l 1,215,-1
 885.892 347.612 l 1,216,-1
 853.306 388.236 l 2,217,218
 820.721 428.861 820.721 428.861 770.106 470.843 c 128,-1,219
 719.491 512.824 719.491 512.824 683.433 515.538 c 0,220,221
 627.19 519.771 627.19 519.771 596.501 476.87 c 128,-1,222
 565.812 433.967 565.812 433.967 561.362 372.038 c 0,223,224
 557.736 321.579 557.736 321.579 591.284 278.694 c 128,-1,225
 624.83 235.81 624.83 235.81 662.592 225.484 c 0,226,227
 693.774 216.957 693.774 216.957 720.321 255.994 c 128,-1,228
 746.867 295.03 746.867 295.03 740.001 323.188 c 0,229,230
 735.808 340.392 735.808 340.392 685.9 342.683 c 128,-1,231
 635.995 344.975 635.995 344.975 629.84 359.826 c 0,232,233
 620.971 381.229 620.971 381.229 641.27 407.249 c 128,-1,234
 661.569 433.27 661.569 433.27 689.388 445.314 c 0,235,236
 701.529 450.572 701.529 450.572 711.197 451.089 c 128,-1,237
 720.866 451.605 720.866 451.605 730.449 446.053 c 128,-1,238
 740.033 440.499 740.033 440.499 746.042 435.202 c 128,-1,239
 752.051 429.906 752.051 429.906 763.821 417.837 c 0,240,241
 779.174 402.094 779.174 402.094 783.406 373.326 c 2,242,-1
 787.64 344.56 l 1,243,-1
 817.412 423.943 l 1,244,-1
 836.765 385.777 l 2,245,246
 856.117 347.611 856.117 347.611 856.117 317.08 c 0,247,248
 856.117 295.368 856.117 295.368 846.441 273.232 c 128,-1,249
 836.765 251.097 836.765 251.097 827.088 239.816 c 2,250,-1
 817.412 228.537 l 1,251,-1
 906.732 194.952 l 1,252,-1
 865.051 152.208 l 2,253,254
 849.172 137.28 849.172 137.28 829.818 132.7 c 128,-1,255
 810.467 128.12 810.467 128.12 799.054 131.005 c 2,256,-1
 787.64 133.888 l 1,257,-1
 803.519 126.085 l 2,258,259
 819.397 118.283 819.397 118.283 841.728 96.9102 c 128,-1,260
 864.058 75.5381 864.058 75.5381 876.96 48.3994 c 0,261,262
 895.205 10.0186 895.205 10.0186 922.495 -3.34473 c 128,-1,263
 949.785 -16.709 949.785 -16.709 966.279 -6.55859 c 0,264,265
 980.723 2.32812 980.723 2.32812 986.354 20.6943 c 128,-1,266
 991.983 39.0615 991.983 39.0615 999.031 45.3447 c 0,267,268
 1013.64 58.3711 1013.64 58.3711 1038.72 32.2275 c 128,-1,269
 1063.81 6.08301 1063.81 6.08301 1061.56 -18.7725 c 0,270,271
 1059.15 -45.2939 1059.15 -45.2939 1038.73 -65.6182 c 128,-1,272
 1018.32 -85.9424 1018.32 -85.9424 987.12 -85.9424 c 0,273,274
 967.604 -85.9424 967.604 -85.9424 946.761 -70.6768 c 128,-1,275
 925.92 -55.4102 925.92 -55.4102 914.838 -40.1455 c 2,276,-1
 903.755 -24.8789 l 1,277,-1
 900.778 -92.0479 l 2,278,279
 897.521 -111.132 897.521 -111.132 890.218 -122.962 c 2,280,-1
 882.914 -134.794 l 1,281,-1
 866.725 -123.535 l 2,282,283
 850.534 -112.276 850.534 -112.276 841.23 -95.1006 c 128,-1,284
 831.928 -77.9277 831.928 -77.9277 827.647 -57.5098 c 2,285,-1
 823.367 -37.0918 l 1,286,-1
 804.345 -51.8486 l 2,287,288
 785.324 -66.6055 785.324 -66.6055 754.062 -80.3457 c 128,-1,289
 722.8 -94.085 722.8 -94.085 698.319 -92.0479 c 0,290,291
 678.195 -90.375 678.195 -90.375 665.939 -85.3203 c 128,-1,292
 653.684 -80.2646 653.684 -80.2646 646.054 -66.1816 c 128,-1,293
 638.424 -52.0996 638.424 -52.0996 635.654 -42.6475 c 128,-1,294
 632.886 -33.1943 632.886 -33.1943 626.863 -6.55859 c 0,295,296
 618.522 30.3252 618.522 30.3252 644.138 63.8926 c 128,-1,297
 669.754 97.459 669.754 97.459 686.41 85.0361 c 0,298,299
 711.108 66.6172 711.108 66.6172 709.657 48.3096 c 128,-1,300
 708.205 30.002 708.205 30.002 698.003 19.7236 c 128,-1,301
 687.8 9.44629 687.8 9.44629 701.296 -6.55859 c 0,302,303
 732.457 -37.9844 732.457 -37.9844 755.543 -31.1543 c 128,-1,304
 778.629 -24.3232 778.629 -24.3232 787.64 20.9189 c 0,305,306
 797.477 70.3115 797.477 70.3115 773.014 90.1211 c 128,-1,307
 748.551 109.931 748.551 109.931 702.641 115.265 c 128,-1,308
 656.731 120.6 656.731 120.6 644.727 127.78 c 0,309,310
 569.623 172.712 569.623 172.712 533.956 215.772 c 128,-1,311
 498.288 258.832 498.288 258.832 495.86 335.398 c 0,312,313
 493.813 400.995 493.813 400.995 511.057 452.12 c 128,-1,314
 528.301 503.245 528.301 503.245 550.166 527.027 c 128,-1,315
 572.03 550.809 572.03 550.809 590.516 562.18 c 2,316,-1
 609 573.549 l 1,317,-1
 589.089 602.936 l 2,318,319
 569.178 632.323 569.178 632.323 567.315 643.772 c 2,320,-1
 543.498 726.209 l 1,321,-1
 525.634 733.927 l 2,322,323
 507.77 741.645 507.77 741.645 486.929 762.254 c 128,-1,324
 466.087 782.863 466.087 782.863 460.133 808.646 c 0,325,326
 450.084 852.154 450.084 852.154 458.086 899.098 c 2,327,-1
 466.086 946.041 l 1,328,-1
 476.177 939.595 l 2,329,330
 486.267 933.149 486.267 933.149 499.665 917.883 c 128,-1,331
 513.062 902.617 513.062 902.617 519.68 884.976 c 2,332,-1
 549.452 799.485 l 1,333,-1
 547.685 868.183 l 2,334,335
 545.917 936.88 545.917 936.88 555.408 991.838 c 0,336,337
 561.03 1024.4 561.03 1024.4 572.196 1049.59 c 128,-1,338
 583.361 1074.78 583.361 1074.78 591.715 1083.69 c 2,339,-1
 600.067 1092.59 l 1,340,-1
 680.456 1159.77 l 1,58,-1
EndSplineSet
EndChar
StartChar: O
Encoding: 79 79 50
Width: 1535
GlyphClass: 2
Flags: HW
Fore
154.235 827.106 m 4,0,1
 154.227 965.605 154.227 965.605 189.913 1085.98 c 132,-1,2
 225.598 1206.35 225.598 1206.35 282.672 1285.03 c 132,-1,3
 339.742 1363.72 339.742 1363.72 408.768 1425.8 c 132,-1,4
 477.792 1487.88 477.792 1487.88 546.817 1521.51 c 4,5,6
 690.232 1591.39 690.232 1591.39 765.688 1605.27 c 6,7,-1
 801.382 1611.83 l 5,8,-1
 811.11 1541.72 l 5,9,-1
 775.947 1535.79 l 6,10,11
 674.325 1518.66 674.325 1518.66 595.587 1446.47 c 132,-1,12
 516.85 1374.27 516.85 1374.27 478.659 1302.82 c 132,-1,13
 440.468 1231.36 440.468 1231.36 437.898 1148.89 c 4,14,15
 434.02 1024.36 434.02 1024.36 480.683 887.204 c 6,16,-1
 496.832 839.748 l 5,17,-1
 478.651 798.528 l 6,18,19
 426.122 679.401 426.122 679.401 426.446 580.59 c 132,-1,20
 426.771 481.779 426.771 481.779 465.948 402.062 c 132,-1,21
 505.126 322.344 505.126 322.344 571.478 251.425 c 4,22,23
 671.675 144.334 671.675 144.334 779.474 110.224 c 6,24,-1
 816.775 98.415 l 5,25,-1
 816.775 36.0938 l 5,26,-1
 788.308 39.583 l 6,27,28
 643.288 57.3585 643.288 57.3585 485.521 148.104 c 4,29,30
 354.495 223.473 354.495 223.473 257.776 383.574 c 4,31,32
 154.251 554.939 154.251 554.939 154.235 827.106 c 4,0,1
800.85 1613.88 m 5,33,-1
 829.737 1612.04 l 6,34,35
 976.916 1602.61 976.916 1602.61 1139.34 1518.11 c 4,36,37
 1274.25 1447.91 1274.25 1447.91 1377.25 1287.43 c 4,38,39
 1487.5 1115.65 1487.5 1115.65 1496.3 836.47 c 4,40,41
 1504.95 562.21 1504.95 562.21 1399.42 387.959 c 4,42,43
 1300.82 225.162 1300.82 225.162 1162.69 149.238 c 4,44,45
 1029.26 75.8989 1029.26 75.8989 950.525 60.0412 c 132,-1,46
 871.792 44.1836 871.792 44.1836 841.367 40.8535 c 6,47,-1
 810.938 37.5254 l 5,48,-1
 810.938 101.081 l 5,49,-1
 844.05 103.629 l 6,50,51
 939.739 110.989 939.739 110.989 1043.41 223.447 c 4,52,53
 1112.05 297.922 1112.05 297.922 1156.27 387.417 c 132,-1,54
 1200.5 476.913 1200.5 476.913 1204.16 551.211 c 4,55,56
 1209.7 663.402 1209.7 663.402 1168.1 772.482 c 6,57,-1
 1153.71 810.228 l 5,58,-1
 1173.17 852.175 l 6,59,60
 1223.76 961.253 1223.76 961.253 1232.02 1069.87 c 132,-1,61
 1240.29 1178.5 1240.29 1178.5 1208.29 1262.59 c 132,-1,62
 1176.3 1346.68 1176.3 1346.68 1120.33 1412.6 c 132,-1,63
 1064.35 1478.53 1064.35 1478.53 1010.8 1503.4 c 4,64,65
 900.278 1554.74 900.278 1554.74 831.024 1547.06 c 6,66,-1
 801.382 1543.77 l 5,67,-1
 800.85 1613.88 l 5,33,-1
1079.79 892.007 m 5,68,69
 1094.15 831.307 1094.15 831.307 1144.18 804.081 c 5,70,71
 1089.76 777.864 1089.76 777.864 1060.12 790.891 c 132,-1,72
 1030.48 803.914 1030.48 803.914 1020.63 833.307 c 6,73,-1
 1010.8 862.698 l 5,74,-1
 983.126 851.708 l 6,75,76
 955.456 840.715 955.456 840.715 930.304 844.049 c 4,77,78
 850.014 854.679 850.014 854.679 822.214 979.932 c 4,79,80
 811.864 1026.56 811.864 1026.56 831.217 1085.06 c 132,-1,81
 850.571 1143.55 850.571 1143.55 868.278 1166.02 c 132,-1,82
 885.985 1188.48 885.985 1188.48 901.647 1192.46 c 132,-1,83
 917.31 1196.44 917.31 1196.44 934.974 1187.85 c 4,84,85
 964.355 1173.55 964.355 1173.55 992.106 1146.41 c 132,-1,86
 1019.86 1119.27 1019.86 1119.27 1015.19 1096.79 c 132,-1,87
 1010.52 1074.31 1010.52 1074.31 1002.84 1053.34 c 132,-1,88
 995.168 1032.37 995.168 1032.37 1017.69 993.252 c 5,89,90
 1019.58 965.909 1019.58 965.909 983.767 959.575 c 132,-1,91
 947.953 953.239 947.953 953.239 930.972 976.16 c 132,-1,92
 913.99 999.08 913.99 999.08 909.498 1052.12 c 6,93,-1
 905.005 1105.15 l 5,94,95
 872.617 1080.39 872.617 1080.39 868.622 1032.79 c 132,-1,96
 864.627 985.195 864.627 985.195 893.938 944.24 c 132,-1,97
 923.247 903.28 923.247 903.28 967.623 912.476 c 132,-1,98
 1012 921.672 1012 921.672 1044.78 961.083 c 132,-1,99
 1077.57 1000.49 1077.57 1000.49 1092.18 1077.82 c 132,-1,100
 1106.8 1155.15 1106.8 1155.15 1068.29 1267.68 c 4,101,102
 1050.52 1321.85 1050.52 1321.85 1011.42 1362.48 c 132,-1,103
 972.324 1403.11 972.324 1403.11 942.114 1416.66 c 6,104,-1
 911.903 1430.21 l 5,105,-1
 896.883 1421.22 l 6,106,107
 866.125 1402.8 866.125 1402.8 963.326 1285.17 c 6,108,-1
 1010.8 1227.72 l 5,109,-1
 891.206 1270.35 l 5,110,-1
 808.414 1113.15 l 5,111,-1
 748.62 1267.68 l 5,112,-1
 642.83 1217.06 l 5,113,-1
 679.735 1272.88 l 6,114,115
 740.027 1364.1 740.027 1364.1 725.685 1391.28 c 4,116,117
 718.056 1406.56 718.056 1406.56 700.325 1406.23 c 5,118,-1
 674.26 1388.77 l 6,119,120
 648.196 1371.3 648.196 1371.3 616 1330 c 132,-1,121
 583.804 1288.7 583.804 1288.7 571.794 1242.03 c 132,-1,122
 559.784 1195.37 559.784 1195.37 558.142 1143.26 c 132,-1,123
 556.503 1091.15 556.503 1091.15 566.234 1041.37 c 132,-1,124
 575.968 991.595 575.968 991.595 608.175 960.953 c 132,-1,125
 640.383 930.311 640.383 930.311 687.724 934.346 c 132,-1,126
 735.064 938.382 735.064 938.382 747.979 967.068 c 4,127,128
 767.474 1010.38 767.474 1010.38 727.841 1086.73 c 6,129,-1
 714.122 1113.15 l 5,130,131
 700.855 1112.11 700.855 1112.11 718.725 1019.9 c 4,132,133
 722.061 1002.68 722.061 1002.68 707.686 989.352 c 4,134,135
 688.209 971.768 688.209 971.768 661.228 966.607 c 5,136,137
 681.052 982.903 681.052 982.903 655.721 1018.66 c 132,-1,138
 630.39 1054.41 630.39 1054.41 630.39 1111.2 c 132,-1,139
 630.39 1167.99 630.39 1167.99 661.228 1182.42 c 4,140,141
 750.296 1215.9 750.296 1215.9 782.325 1134.54 c 4,142,143
 811.294 1060.96 811.294 1060.96 806.729 989.535 c 132,-1,144
 802.164 918.107 802.164 918.107 774.374 884.179 c 4,145,146
 732.413 832.946 732.413 832.946 659.025 843.172 c 6,147,-1
 633.63 846.711 l 5,148,-1
 623.707 819.029 l 6,149,150
 613.785 791.353 613.785 791.353 588.744 777.141 c 132,-1,151
 563.701 762.93 563.701 762.93 520.941 782.766 c 5,152,153
 573.332 837.898 573.332 837.898 562.338 886.675 c 5,154,-1
 541.64 927.678 l 6,155,156
 520.941 968.681 520.941 968.681 505.993 1047.28 c 132,-1,157
 491.045 1125.88 491.045 1125.88 502.545 1201.07 c 4,158,159
 522.181 1329.48 522.181 1329.48 607.86 1416.1 c 132,-1,160
 693.542 1502.72 693.542 1502.72 813.014 1510.14 c 4,161,162
 1024.67 1523.28 1024.67 1523.28 1146.48 1241.04 c 4,163,164
 1188.16 1144.45 1188.16 1144.45 1138.15 1008.57 c 4,165,166
 1119.39 957.617 1119.39 957.617 1099.59 924.812 c 6,167,-1
 1079.79 892.007 l 5,68,69
619.833 185.944 m 5,168,-1
 541.64 276.534 l 5,169,-1
 574.093 265.58 l 6,170,171
 606.546 254.625 606.546 254.625 650.241 257.289 c 132,-1,172
 693.936 259.954 693.936 259.954 716.421 287.192 c 4,173,174
 771.683 354.123 771.683 354.123 744.021 521.656 c 4,175,176
 728.526 615.48 728.526 615.48 633.63 606.915 c 4,177,178
 602.392 604.097 602.392 604.097 583.958 572.604 c 132,-1,179
 565.524 541.115 565.524 541.115 566.842 508.057 c 132,-1,180
 568.159 474.998 568.159 474.998 597.341 449.225 c 132,-1,181
 626.521 423.454 626.521 423.454 637.605 431.587 c 132,-1,182
 648.689 439.72 648.689 439.72 649.295 457.2 c 132,-1,183
 649.902 474.678 649.902 474.678 657.396 487.364 c 132,-1,184
 664.889 500.05 664.889 500.05 686.363 500.289 c 132,-1,185
 707.838 500.527 707.838 500.527 718.574 478.239 c 132,-1,186
 729.312 455.95 729.312 455.95 721.023 428.402 c 4,187,188
 704.138 372.292 704.138 372.292 656.199 357.381 c 132,-1,189
 608.259 342.47 608.259 342.47 564.638 385.773 c 4,190,191
 526.819 425.208 526.819 425.208 515.515 509.533 c 6,192,-1
 511.743 537.643 l 5,193,-1
 491.418 540.575 l 6,194,195
 471.096 543.507 471.096 543.507 456.722 560.826 c 132,-1,196
 442.349 578.144 442.349 578.144 454.247 606.915 c 4,197,198
 485.709 668.715 485.709 668.715 526.103 622.159 c 6,199,-1
 541.64 604.254 l 5,200,201
 565.926 650.912 565.926 650.912 618.537 670.03 c 6,202,-1
 642.83 678.854 l 5,203,-1
 635.07 703.083 l 6,204,205
 627.306 727.313 627.306 727.313 641.537 741.51 c 132,-1,206
 655.769 755.707 655.769 755.707 690.694 758.578 c 6,207,-1
 725.621 761.449 l 5,208,209
 693.34 791.924 693.34 791.924 642.936 794.779 c 6,210,-1
 619.833 796.086 l 5,211,-1
 689.81 815.25 l 6,212,213
 715.753 822.253 715.753 822.253 744.021 820.066 c 5,214,-1
 810.714 886.675 l 5,215,-1
 865.91 822.732 l 5,216,-1
 890.918 826.478 l 6,217,218
 938.187 833.559 938.187 833.559 988.228 799.626 c 6,219,-1
 1013.09 782.766 l 5,220,-1
 987.867 786.014 l 6,221,222
 944.099 791.646 944.099 791.646 931.132 776.622 c 4,223,224
 916.301 760.896 916.301 760.896 914.204 748.129 c 5,225,-1
 942.089 741.466 l 6,226,227
 999.188 727.83 999.188 727.83 979.172 684.186 c 6,228,-1
 969.398 662.868 l 5,229,-1
 1020 646.881 l 5,230,-1
 1030.32 670.128 l 6,231,232
 1057.17 730.57 1057.17 730.57 1105.09 697.505 c 5,233,234
 1139.65 658.784 1139.65 658.784 1096.42 605.929 c 6,235,-1
 1079.79 585.6 l 5,236,-1
 1090.31 567.713 l 6,237,238
 1117.66 521.193 1117.66 521.193 1104.3 464.759 c 132,-1,239
 1090.94 408.325 1090.94 408.325 1068.37 382.754 c 132,-1,240
 1045.79 357.181 1045.79 357.181 1012.96 344.093 c 4,241,242
 956.365 321.531 956.365 321.531 909.222 371.712 c 6,243,-1
 893.506 388.438 l 5,244,245
 881.301 408.056 881.301 408.056 884.766 432.661 c 132,-1,246
 888.23 457.267 888.23 457.267 907.307 468.368 c 4,247,248
 945.683 487.35 945.683 487.35 955.613 477.752 c 132,-1,249
 965.548 468.152 965.548 468.152 972.712 451.744 c 132,-1,250
 979.876 435.334 979.876 435.334 990.099 439.062 c 4,251,252
 1025.68 452.03 1025.68 452.03 1035.21 477.684 c 132,-1,253
 1044.74 503.341 1044.74 503.341 1033.79 527.422 c 132,-1,254
 1022.84 551.504 1022.84 551.504 1005.83 570.294 c 132,-1,255
 988.825 589.084 988.825 589.084 964.26 592.705 c 132,-1,256
 939.694 596.326 939.694 596.326 897.918 564.374 c 132,-1,257
 856.143 532.421 856.143 532.421 864.296 450.83 c 132,-1,258
 872.45 369.239 872.45 369.239 910.259 321.747 c 4,259,260
 967.353 250.033 967.353 250.033 1061.14 267.742 c 6,261,-1
 1093.59 273.869 l 5,262,-1
 1031.49 193.938 l 5,263,-1
 1002.34 196.382 l 6,264,265
 947.942 200.935 947.942 200.935 915.093 230.102 c 6,266,-1
 895.807 247.227 l 5,267,-1
 815.312 124.663 l 5,268,-1
 750.92 239.23 l 5,269,-1
 732.046 224.827 l 6,270,271
 696.011 197.328 696.011 197.328 646.02 189.858 c 6,272,-1
 619.833 185.944 l 5,168,-1
EndSplineSet
EndChar
StartChar: P
Encoding: 80 80 51
Width: 1364
GlyphClass: 2
Flags: HW
Fore
195.771 24.96 m 1,0,-1
 228.022 141.85 l 2,1,2
 260.274 258.74 260.274 258.74 293.272 463.582 c 128,-1,3
 326.271 668.426 326.271 668.426 327.768 844.329 c 128,-1,4
 329.265 1020.23 329.265 1020.23 299.632 1211.18 c 128,-1,5
 270 1402.12 270 1402.12 239.62 1505.11 c 2,6,-1
 209.24 1608.1 l 1,7,-1
 236.253 1593.88 l 2,8,9
 363.611 1526.81 363.611 1526.81 487.898 1568.51 c 0,10,11
 533.692 1583.88 533.692 1583.88 558.684 1598.92 c 2,12,-1
 583.676 1613.95 l 1,13,-1
 558.534 1505.68 l 2,14,15
 533.393 1397.41 533.393 1397.41 507.802 1201.34 c 128,-1,16
 482.211 1005.28 482.211 1005.28 481.312 829.698 c 128,-1,17
 480.414 654.119 480.414 654.119 503.985 455.129 c 128,-1,18
 527.557 256.139 527.557 256.139 551.576 144.938 c 2,19,-1
 575.596 33.7373 l 1,20,-1
 545.515 45.1992 l 2,21,22
 403.713 99.2323 403.713 99.2323 284.892 63.4883 c 0,23,24
 241.117 50.3213 241.117 50.3213 218.444 37.6406 c 2,25,-1
 195.771 24.96 l 1,0,-1
564.821 1587.62 m 1,26,-1
 787.152 1594.3 l 2,27,28
 1009.48 1600.98 1009.48 1600.98 1030.85 1581.76 c 1,29,30
 1110.67 1564.32 1110.67 1564.32 1212.37 1429.94 c 128,-1,31
 1314.08 1295.56 1314.08 1295.56 1316.39 1151.45 c 128,-1,32
 1318.7 1007.34 1318.7 1007.34 1243.4 913.385 c 0,33,34
 1135.87 779.197 1135.87 779.197 964.025 736.626 c 0,35,36
 922.216 724.746 922.216 724.746 898.85 730.203 c 1,37,38
 909.819 698.18 909.819 698.18 894.419 674.752 c 128,-1,39
 879.02 651.323 879.02 651.323 851.091 651.219 c 128,-1,40
 823.162 651.114 823.162 651.114 812.387 670.867 c 0,41,42
 798.542 696.048 798.542 696.048 801.873 730.203 c 1,43,-1
 632.165 736.057 l 1,44,45
 607.423 732.817 607.423 732.817 591.509 720.943 c 128,-1,46
 575.596 709.069 575.596 709.069 578.433 694.34 c 128,-1,47
 581.271 679.611 581.271 679.611 616.639 664.791 c 128,-1,48
 652.007 649.972 652.007 649.972 654.108 629.883 c 128,-1,49
 656.209 609.795 656.209 609.795 626.006 591.206 c 128,-1,50
 595.803 572.62 595.803 572.62 569.766 581.105 c 0,51,52
 519.653 597.436 519.653 597.436 513.638 659.973 c 0,53,54
 509.826 711.841 509.826 711.841 537.883 744.834 c 1,55,-1
 462.456 712.646 l 1,56,-1
 459.762 844.329 l 1,57,-1
 527.108 823.845 l 1,58,59
 496.571 864.079 496.571 864.079 507.932 902.386 c 128,-1,60
 519.292 940.692 519.292 940.692 545.518 962.469 c 128,-1,61
 571.745 984.246 571.745 984.246 596.484 979.079 c 128,-1,62
 621.223 973.912 621.223 973.912 633.85 950.593 c 128,-1,63
 646.476 927.272 646.476 927.272 642.939 908.709 c 0,64,65
 641.222 899.692 641.222 899.692 615.75 905.508 c 128,-1,66
 590.277 911.324 590.277 911.324 580.983 894.078 c 0,67,68
 576.225 883.247 576.225 883.247 589.379 852.083 c 2,69,-1
 602.532 820.919 l 1,70,-1
 742.611 820.919 l 1,71,-1
 725.027 835.062 l 2,72,73
 707.442 849.206 707.442 849.206 687.912 879.934 c 128,-1,74
 668.382 910.659 668.382 910.659 664.49 943.824 c 0,75,76
 656.711 1010.15 656.711 1010.15 694.871 1092.09 c 2,77,-1
 707.592 1119.4 l 1,78,79
 655.241 1088.15 655.241 1088.15 613.309 1104.77 c 0,80,81
 557.273 1133.55 557.273 1133.55 571.239 1197.27 c 128,-1,82
 585.205 1260.99 585.205 1260.99 659.103 1251.09 c 0,83,84
 680.952 1248.16 680.952 1248.16 705.196 1227.68 c 128,-1,85
 729.441 1207.19 729.441 1207.19 742.761 1188.17 c 2,86,-1
 756.079 1169.15 l 1,87,-1
 769.885 1203.81 l 2,88,89
 793.837 1263.94 793.837 1263.94 738.944 1325.39 c 0,90,91
 716.721 1350.26 716.721 1350.26 698.687 1363.59 c 2,92,-1
 680.653 1376.92 l 1,93,-1
 731.245 1370.52 l 2,94,95
 843.962 1356.26 843.962 1356.26 918.538 1463.48 c 0,96,97
 930.27 1480.35 930.27 1480.35 930.961 1477.35 c 128,-1,98
 931.652 1474.34 931.652 1474.34 930.082 1447.16 c 128,-1,99
 928.514 1419.98 928.514 1419.98 931.819 1382.28 c 128,-1,100
 935.125 1344.58 935.125 1344.58 947.338 1312.54 c 0,101,102
 971.882 1248.16 971.882 1248.16 1024.19 1202.07 c 2,103,-1
 1041.62 1186.71 l 1,104,-1
 988.545 1187.12 l 2,105,106
 861.363 1188.17 861.363 1188.17 807.261 1125.26 c 1,107,-1
 833.75 1117.7 l 2,108,109
 860.238 1110.14 860.238 1110.14 888.523 1093.31 c 128,-1,110
 916.81 1076.48 916.81 1076.48 921.634 1051.59 c 128,-1,111
 926.459 1026.69 926.459 1026.69 902.812 993.123 c 128,-1,112
 879.165 959.555 879.165 959.555 850.362 958.458 c 0,113,114
 807.672 956.83 807.672 956.83 788.404 1022.83 c 0,115,116
 780.684 1055.69 780.684 1055.69 804.567 1078.44 c 1,117,118
 776.577 1075.94 776.577 1075.94 760.119 1051.51 c 128,-1,119
 743.662 1027.07 743.662 1027.07 742.6 990.25 c 128,-1,120
 741.537 953.432 741.537 953.432 750.99 924.505 c 0,121,122
 767.011 875.01 767.011 875.01 804.567 856.036 c 1,123,-1
 823.424 893.621 l 2,124,125
 859.421 965.37 859.421 965.37 879.993 897.46 c 2,126,-1
 890.77 861.888 l 1,127,128
 947.072 874.871 947.072 874.871 1010.21 938.548 c 0,129,130
 1097.55 1026.64 1097.55 1026.64 1074.72 1221.85 c 0,131,132
 1060.06 1347.13 1060.06 1347.13 999.534 1439.4 c 0,133,134
 968.737 1486.34 968.737 1486.34 913.088 1516.16 c 128,-1,135
 857.441 1545.99 857.441 1545.99 787.771 1540.94 c 128,-1,136
 718.102 1535.9 718.102 1535.9 657.49 1516.15 c 128,-1,137
 596.882 1496.39 596.882 1496.39 570.077 1479.09 c 2,138,-1
 543.271 1461.78 l 1,139,-1
 564.821 1587.62 l 1,26,-1
327.768 718.499 m 1,140,141
 300.793 721.079 300.793 721.079 275.364 713.043 c 0,142,143
 255.114 706.747 255.114 706.747 235.278 680.492 c 128,-1,144
 215.442 654.238 215.442 654.238 209.24 610.224 c 0,145,146
 204.009 573.095 204.009 573.095 227.58 540.172 c 128,-1,147
 251.149 507.251 251.149 507.251 277.337 492.896 c 2,148,-1
 303.523 478.54 l 1,149,-1
 287.36 405.382 l 1,150,-1
 265.033 419.944 l 2,151,152
 242.708 434.507 242.708 434.507 216.748 458.644 c 128,-1,153
 190.789 482.782 190.789 482.782 171.729 523.479 c 128,-1,154
 152.669 564.175 152.669 564.175 158.059 607.297 c 0,155,156
 164.73 660.676 164.73 660.676 194.346 709.95 c 128,-1,157
 223.961 759.223 223.961 759.223 255.68 787.779 c 128,-1,158
 287.398 816.337 287.398 816.337 312.97 833.26 c 2,159,-1
 338.542 850.183 l 1,160,-1
 327.768 718.499 l 1,140,141
508.252 390.749 m 1,161,-1
 536.985 396.683 l 2,162,163
 565.72 402.618 565.72 402.618 604.778 425.297 c 128,-1,164
 643.839 447.977 643.839 447.977 664.49 481.467 c 128,-1,165
 685.143 514.956 685.143 514.956 692.551 567.63 c 128,-1,166
 699.958 620.305 699.958 620.305 697.041 656.231 c 2,167,-1
 694.121 692.161 l 1,168,169
 719.503 679.988 719.503 679.988 740.036 658.437 c 128,-1,170
 760.568 636.886 760.568 636.886 766.555 614.017 c 0,171,172
 777.497 558.972 777.497 558.972 750.691 504.876 c 1,173,174
 859.402 577.583 859.402 577.583 964.1 486.262 c 2,175,-1
 979.664 472.687 l 1,176,-1
 938.458 449.001 l 2,177,178
 854.083 400.506 854.083 400.506 806.335 413.611 c 2,179,-1
 783.017 420.014 l 1,180,-1
 804.289 402.391 l 2,181,182
 825.561 384.768 825.561 384.768 839.703 347.455 c 128,-1,183
 853.845 310.145 853.845 310.145 838.717 268.367 c 128,-1,184
 823.589 226.589 823.589 226.589 779.141 213.421 c 128,-1,185
 734.693 200.253 734.693 200.253 698.245 209.175 c 2,186,-1
 661.797 218.097 l 1,187,-1
 685.658 223.328 l 2,188,189
 709.518 228.56 709.518 228.56 734.436 251.971 c 128,-1,190
 759.353 275.38 759.353 275.38 761.244 307.91 c 128,-1,191
 763.136 340.44 763.136 340.44 738.893 357.267 c 128,-1,192
 714.648 374.093 714.648 374.093 689.568 376.569 c 2,193,-1
 664.49 379.045 l 1,194,-1
 505.558 317.592 l 1,195,-1
 508.252 390.749 l 1,161,-1
EndSplineSet
EndChar
